<svg xmlns="http://www.w3.org/2000/svg" xmlns:xlink="http://www.w3.org/1999/xlink" width="0" height="0" style="display:none;"><symbol viewBox="0 0 24 24" id="twitter-x-fill"><path d="M18.2048 2.25H21.5128L14.2858 10.51L22.7878 21.75H16.1308L10.9168 14.933L4.95084 21.75H1.64084L9.37084 12.915L1.21484 2.25H8.04084L12.7538 8.481L18.2048 2.25ZM17.0438 19.77H18.8768L7.04484 4.126H5.07784L17.0438 19.77Z"></path></symbol><symbol viewBox="0 0 24 24" id="twitter-fill"><path d="M22.2125 5.65605C21.4491 5.99375 20.6395 6.21555 19.8106 6.31411C20.6839 5.79132 21.3374 4.9689 21.6493 4.00005C20.8287 4.48761 19.9305 4.83077 18.9938 5.01461C18.2031 4.17106 17.098 3.69303 15.9418 3.69434C13.6326 3.69434 11.7597 5.56661 11.7597 7.87683C11.7597 8.20458 11.7973 8.52242 11.8676 8.82909C8.39047 8.65404 5.31007 6.99005 3.24678 4.45941C2.87529 5.09767 2.68005 5.82318 2.68104 6.56167C2.68104 8.01259 3.4196 9.29324 4.54149 10.043C3.87737 10.022 3.22788 9.84264 2.64718 9.51973C2.64654 9.5373 2.64654 9.55487 2.64654 9.57148C2.64654 11.5984 4.08819 13.2892 6.00199 13.6731C5.6428 13.7703 5.27232 13.8194 4.90022 13.8191C4.62997 13.8191 4.36771 13.7942 4.11279 13.7453C4.64531 15.4065 6.18886 16.6159 8.0196 16.6491C6.53813 17.8118 4.70869 18.4426 2.82543 18.4399C2.49212 18.4402 2.15909 18.4205 1.82812 18.3811C3.74004 19.6102 5.96552 20.2625 8.23842 20.2601C15.9316 20.2601 20.138 13.8875 20.138 8.36111C20.138 8.1803 20.1336 7.99886 20.1256 7.81997C20.9443 7.22845 21.651 6.49567 22.2125 5.65605Z"></path></symbol><symbol viewBox="0 0 24 24" id="tumblr-fill"><path d="M6.27051 7.62976C8.86829 7.07312 10.816 4.76401 10.816 2H13.8463V7.15152H17.4826V10.7879H13.8463V16.2424C13.8463 16.7566 14.044 17.4493 14.7554 17.9091C15.2296 18.2156 16.2397 18.3671 17.7857 18.3636V22H13.5432C11.0329 22 8.99778 19.9649 8.99778 17.4545V10.7879H6.27051V7.62976Z"></path></symbol><symbol viewBox="0 0 24 24" id="threads-fill"><path d="M16.7051 11.1081C16.543 8.12137 14.911 6.41148 12.1708 6.39398C10.5193 6.3838 9.13771 7.08389 8.29233 8.36664L9.79941 9.40046C10.4334 8.43852 11.4342 8.24015 12.1593 8.24685C13.0616 8.2526 13.7425 8.51494 14.1832 9.02653C14.5038 9.39899 14.7183 9.91367 14.8245 10.5632C14.0246 10.4273 13.1594 10.3855 12.2345 10.4385C9.62919 10.5886 7.95426 12.1081 8.06675 14.2194C8.12384 15.2904 8.65739 16.2118 9.56906 16.8137C10.3399 17.3225 11.3326 17.5713 12.3644 17.515C13.727 17.4403 14.7959 16.9205 15.5416 15.9699C16.1079 15.248 16.4661 14.3125 16.6243 13.1338C17.2737 13.5257 17.7549 14.0414 18.0207 14.6613C18.4726 15.7151 18.499 17.4469 17.086 18.8587C15.848 20.0955 14.3598 20.6306 12.1108 20.6471C9.61601 20.6286 7.72924 19.8285 6.50253 18.269C5.35381 16.8088 4.76014 14.6996 4.73799 12C4.76014 9.30038 5.35381 7.19117 6.50253 5.73092C7.72924 4.17147 9.61597 3.37141 12.1107 3.35287C14.6236 3.37155 16.5433 4.17547 17.8169 5.74244C18.4415 6.51086 18.9123 7.47721 19.2227 8.60394L20.9888 8.13274C20.6125 6.74587 20.0205 5.55078 19.2148 4.55966C17.582 2.55073 15.1816 1.52134 12.1046 1.5C9.03385 1.52127 6.6725 2.55457 5.08614 4.57117C3.67451 6.3657 2.94634 8.87742 2.92188 12.0074C2.94634 15.1373 3.67451 17.6343 5.08614 19.4289C6.6725 21.4454 9.04616 22.4788 12.1169 22.5C14.847 22.4811 16.7713 21.7663 18.3566 20.1825C20.4307 18.1103 20.3682 15.513 19.6846 13.9185C19.1595 12.6943 18.1141 11.7129 16.7051 11.1081ZM12.2669 15.6648C11.125 15.7291 9.93869 15.2166 9.88019 14.1188C9.83684 13.3048 10.4595 12.3966 12.3369 12.2884C13.2594 12.2352 14.1138 12.2976 14.8701 12.463C14.6538 15.1648 13.3848 15.6035 12.2669 15.6648Z"></path></symbol><symbol viewBox="0 0 24 24" id="tiktok-fill"><path d="M16 8.24537V15.5C16 19.0899 13.0899 22 9.5 22C5.91015 22 3 19.0899 3 15.5C3 11.9101 5.91015 9 9.5 9C10.0163 9 10.5185 9.06019 11 9.17393V12.3368C10.5454 12.1208 10.0368 12 9.5 12C7.567 12 6 13.567 6 15.5C6 17.433 7.567 19 9.5 19C11.433 19 13 17.433 13 15.5V2H16C16 4.76142 18.2386 7 21 7V10C19.1081 10 17.3696 9.34328 16 8.24537Z"></path></symbol><symbol viewBox="0 0 24 24" id="steam-fill"><path d="M12.0052 2C6.75435 2 2.44852 6.05 2.04102 11.1975L7.40102 13.4125C7.85518 13.1033 8.40352 12.9208 8.99435 12.9208C9.04685 12.9208 9.09852 12.9242 9.15102 12.9258L11.5352 9.47417V9.425C11.5352 7.34583 13.2252 5.655 15.3052 5.655C17.3835 5.655 19.0752 7.3475 19.0752 9.4275C19.0752 11.5075 17.3835 13.1983 15.3052 13.1983H15.2177L11.821 15.6242C11.821 15.6675 11.8243 15.7117 11.8243 15.7567C11.8243 17.3192 10.5618 18.5867 8.99935 18.5867C7.63685 18.5867 6.48602 17.6092 6.22352 16.3142L2.38602 14.725C3.57435 18.9225 7.42768 22 12.0052 22C17.5277 22 22.0043 17.5225 22.0043 12C22.0043 6.4775 17.5268 2 12.0052 2ZM7.07852 16.6667C7.29685 17.1192 7.67352 17.4992 8.17352 17.7083C9.25435 18.1575 10.501 17.645 10.9502 16.5625C11.1693 16.0375 11.1702 15.4633 10.9543 14.9383C10.7385 14.4133 10.3293 14.0042 9.80685 13.7858C9.28685 13.5692 8.73185 13.5783 8.24185 13.7608L9.51102 14.2858C10.3077 14.6192 10.6852 15.5358 10.3518 16.3317C10.021 17.1292 9.10435 17.5067 8.30685 17.175L7.07852 16.6667ZM17.8185 9.4225C17.8185 8.0375 16.691 6.91 15.306 6.91C13.9185 6.91 12.7935 8.0375 12.7935 9.4225C12.7935 10.81 13.9185 11.935 15.306 11.935C16.6918 11.935 17.8185 10.81 17.8185 9.4225ZM15.3118 7.53C16.3527 7.53 17.2002 8.375 17.2002 9.41833C17.2002 10.4608 16.3527 11.3058 15.3118 11.3058C14.2677 11.3058 13.4243 10.4608 13.4243 9.41833C13.4243 8.375 14.2685 7.53 15.3118 7.53Z"></path></symbol><symbol viewBox="0 0 24 24" id="telegram-fill"><path d="M22 12C22 17.5228 17.5228 22 12 22C6.47715 22 2 17.5228 2 12C2 6.47715 6.47715 2 12 2C17.5228 2 22 6.47715 22 12ZM12.3584 9.38246C11.3857 9.78702 9.4418 10.6244 6.5266 11.8945C6.05321 12.0827 5.80524 12.2669 5.78266 12.4469C5.74451 12.7513 6.12561 12.8711 6.64458 13.0343C6.71517 13.0565 6.78832 13.0795 6.8633 13.1039C7.37388 13.2698 8.06071 13.464 8.41776 13.4717C8.74164 13.4787 9.10313 13.3452 9.50222 13.0711C12.226 11.2325 13.632 10.3032 13.7203 10.2832C13.7826 10.269 13.8689 10.2513 13.9273 10.3032C13.9858 10.3552 13.98 10.4536 13.9739 10.48C13.9361 10.641 12.4401 12.0318 11.666 12.7515C11.4351 12.9661 11.2101 13.1853 10.9833 13.4039C10.509 13.8611 10.1533 14.204 11.003 14.764C11.8644 15.3317 12.7323 15.8982 13.5724 16.4971C13.9867 16.7925 14.359 17.0579 14.8188 17.0156C15.0861 16.991 15.3621 16.7397 15.5022 15.9903C15.8335 14.2193 16.4847 10.3821 16.6352 8.80083C16.6484 8.6623 16.6318 8.485 16.6185 8.40717C16.6052 8.32934 16.5773 8.21844 16.4762 8.13635C16.3563 8.03913 16.1714 8.01863 16.0887 8.02009C15.7125 8.02672 15.1355 8.22737 12.3584 9.38246Z"></path></symbol><symbol viewBox="0 0 24 24" id="skype-fill"><path d="M13.3109 20.3997C12.8839 20.4657 12.4464 20.5 12.001 20.5C7.30656 20.5 3.50098 16.6944 3.50098 12C3.50098 11.5545 3.53524 11.1171 3.60129 10.6901C3.21792 9.96108 3.00098 9.13087 3.00098 8.25C3.00098 5.35051 5.35148 3 8.25098 3C9.13185 3 9.96205 3.21694 10.6911 3.60031C11.118 3.53427 11.5555 3.5 12.001 3.5C16.6954 3.5 20.501 7.30558 20.501 12C20.501 12.4455 20.4667 12.8829 20.4007 13.3099C20.784 14.0389 21.001 14.8691 21.001 15.75C21.001 18.6495 18.6505 21 15.751 21C14.8701 21 14.0399 20.7831 13.3109 20.3997ZM12.0532 17.1555L12.0126 17.1562C14.8854 17.1562 16.3158 15.7703 16.3158 13.9132C16.3158 12.7148 15.7645 11.442 13.5904 10.9552L11.6073 10.515C10.8522 10.3433 9.98514 10.1145 9.98514 9.39975C9.98514 8.685 10.6041 8.187 11.7088 8.187C13.9394 8.187 13.7355 9.71475 14.8403 9.71475C15.4156 9.71475 15.933 9.37275 15.933 8.78475C15.933 7.41525 13.7355 6.3855 11.8773 6.3855C9.85579 6.3855 7.70421 7.2435 7.70421 9.52875C7.70421 10.6275 8.09753 11.799 10.2634 12.342L12.9527 13.0133C13.7686 13.215 13.9709 13.6718 13.9709 14.085C13.9709 14.772 13.2873 15.4432 12.0532 15.4432C9.6362 15.4432 9.97461 13.5855 8.67885 13.5855C8.09828 13.5855 7.67639 13.9837 7.67639 14.5575C7.67639 15.6712 9.0278 17.1555 12.0532 17.1555Z"></path></symbol><symbol viewBox="0 0 24 24" id="instagram-line"><path d="M12.001 9C10.3436 9 9.00098 10.3431 9.00098 12C9.00098 13.6573 10.3441 15 12.001 15C13.6583 15 15.001 13.6569 15.001 12C15.001 10.3427 13.6579 9 12.001 9ZM12.001 7C14.7614 7 17.001 9.2371 17.001 12C17.001 14.7605 14.7639 17 12.001 17C9.24051 17 7.00098 14.7629 7.00098 12C7.00098 9.23953 9.23808 7 12.001 7ZM18.501 6.74915C18.501 7.43926 17.9402 7.99917 17.251 7.99917C16.5609 7.99917 16.001 7.4384 16.001 6.74915C16.001 6.0599 16.5617 5.5 17.251 5.5C17.9393 5.49913 18.501 6.0599 18.501 6.74915ZM12.001 4C9.5265 4 9.12318 4.00655 7.97227 4.0578C7.18815 4.09461 6.66253 4.20007 6.17416 4.38967C5.74016 4.55799 5.42709 4.75898 5.09352 5.09255C4.75867 5.4274 4.55804 5.73963 4.3904 6.17383C4.20036 6.66332 4.09493 7.18811 4.05878 7.97115C4.00703 9.0752 4.00098 9.46105 4.00098 12C4.00098 14.4745 4.00753 14.8778 4.05877 16.0286C4.0956 16.8124 4.2012 17.3388 4.39034 17.826C4.5591 18.2606 4.7605 18.5744 5.09246 18.9064C5.42863 19.2421 5.74179 19.4434 6.17187 19.6094C6.66619 19.8005 7.19148 19.9061 7.97212 19.9422C9.07618 19.9939 9.46203 20 12.001 20C14.4755 20 14.8788 19.9934 16.0296 19.9422C16.8117 19.9055 17.3385 19.7996 17.827 19.6106C18.2604 19.4423 18.5752 19.2402 18.9074 18.9085C19.2436 18.5718 19.4445 18.2594 19.6107 17.8283C19.8013 17.3358 19.9071 16.8098 19.9432 16.0289C19.9949 14.9248 20.001 14.5389 20.001 12C20.001 9.52552 19.9944 9.12221 19.9432 7.97137C19.9064 7.18906 19.8005 6.66149 19.6113 6.17318C19.4434 5.74038 19.2417 5.42635 18.9084 5.09255C18.573 4.75715 18.2616 4.55693 17.8271 4.38942C17.338 4.19954 16.8124 4.09396 16.0298 4.05781C14.9258 4.00605 14.5399 4 12.001 4ZM12.001 2C14.7176 2 15.0568 2.01 16.1235 2.06C17.1876 2.10917 17.9135 2.2775 18.551 2.525C19.2101 2.77917 19.7668 3.1225 20.3226 3.67833C20.8776 4.23417 21.221 4.7925 21.476 5.45C21.7226 6.08667 21.891 6.81333 21.941 7.8775C21.9885 8.94417 22.001 9.28333 22.001 12C22.001 14.7167 21.991 15.0558 21.941 16.1225C21.8918 17.1867 21.7226 17.9125 21.476 18.55C21.2218 19.2092 20.8776 19.7658 20.3226 20.3217C19.7668 20.8767 19.2076 21.22 18.551 21.475C17.9135 21.7217 17.1876 21.89 16.1235 21.94C15.0568 21.9875 14.7176 22 12.001 22C9.28431 22 8.94514 21.99 7.87848 21.94C6.81431 21.8908 6.08931 21.7217 5.45098 21.475C4.79264 21.2208 4.23514 20.8767 3.67931 20.3217C3.12348 19.7658 2.78098 19.2067 2.52598 18.55C2.27848 17.9125 2.11098 17.1867 2.06098 16.1225C2.01348 15.0558 2.00098 14.7167 2.00098 12C2.00098 9.28333 2.01098 8.94417 2.06098 7.8775C2.11014 6.8125 2.27848 6.0875 2.52598 5.45C2.78014 4.79167 3.12348 4.23417 3.67931 3.67833C4.23514 3.1225 4.79348 2.78 5.45098 2.525C6.08848 2.2775 6.81348 2.11 7.87848 2.06C8.94514 2.0125 9.28431 2 12.001 2Z"></path></symbol><symbol viewBox="0 0 24 24" id="linkedin-fill"><path d="M6.94048 4.99993C6.94011 5.81424 6.44608 6.54702 5.69134 6.85273C4.9366 7.15845 4.07187 6.97605 3.5049 6.39155C2.93793 5.80704 2.78195 4.93715 3.1105 4.19207C3.43906 3.44699 4.18654 2.9755 5.00048 2.99993C6.08155 3.03238 6.94097 3.91837 6.94048 4.99993ZM7.00048 8.47993H3.00048V20.9999H7.00048V8.47993ZM13.3205 8.47993H9.34048V20.9999H13.2805V14.4299C13.2805 10.7699 18.0505 10.4299 18.0505 14.4299V20.9999H22.0005V13.0699C22.0005 6.89993 14.9405 7.12993 13.2805 10.1599L13.3205 8.47993Z"></path></symbol><symbol viewBox="0 0 24 24" id="github-fill"><path d="M12.001 2C6.47598 2 2.00098 6.475 2.00098 12C2.00098 16.425 4.86348 20.1625 8.83848 21.4875C9.33848 21.575 9.52598 21.275 9.52598 21.0125C9.52598 20.775 9.51348 19.9875 9.51348 19.15C7.00098 19.6125 6.35098 18.5375 6.15098 17.975C6.03848 17.6875 5.55098 16.8 5.12598 16.5625C4.77598 16.375 4.27598 15.9125 5.11348 15.9C5.90098 15.8875 6.46348 16.625 6.65098 16.925C7.55098 18.4375 8.98848 18.0125 9.56348 17.75C9.65098 17.1 9.91348 16.6625 10.201 16.4125C7.97598 16.1625 5.65098 15.3 5.65098 11.475C5.65098 10.3875 6.03848 9.4875 6.67598 8.7875C6.57598 8.5375 6.22598 7.5125 6.77598 6.1375C6.77598 6.1375 7.61348 5.875 9.52598 7.1625C10.326 6.9375 11.176 6.825 12.026 6.825C12.876 6.825 13.726 6.9375 14.526 7.1625C16.4385 5.8625 17.276 6.1375 17.276 6.1375C17.826 7.5125 17.476 8.5375 17.376 8.7875C18.0135 9.4875 18.401 10.375 18.401 11.475C18.401 15.3125 16.0635 16.1625 13.8385 16.4125C14.201 16.725 14.5135 17.325 14.5135 18.2625C14.5135 19.6 14.501 20.675 14.501 21.0125C14.501 21.275 14.6885 21.5875 15.1885 21.4875C19.259 20.1133 21.9999 16.2963 22.001 12C22.001 6.475 17.526 2 12.001 2Z"></path></symbol><symbol viewBox="0 0 24 24" id="facebook-fill"><path d="M14 13.5H16.5L17.5 9.5H14V7.5C14 6.47062 14 5.5 16 5.5H17.5V2.1401C17.1743 2.09685 15.943 2 14.6429 2C11.9284 2 10 3.65686 10 6.69971V9.5H7V13.5H10V22H14V13.5Z"></path></symbol><symbol viewBox="0 0 24 24" id="discord-line"><path d="M8.52062 13.8458C7.48059 13.8458 6.63159 12.9014 6.63159 11.7446 6.63159 10.5879 7.45936 9.64331 8.52062 9.64331 9.57123 9.64331 10.4308 10.5879 10.4096 11.7446 10.4096 12.9014 9.57123 13.8458 8.52062 13.8458ZM15.4941 13.8458C14.454 13.8458 13.604 12.9014 13.604 11.7446 13.604 10.5879 14.4328 9.64331 15.4941 9.64331 16.5447 9.64331 17.4043 10.5879 17.3831 11.7446 17.3831 12.9014 16.5553 13.8458 15.4941 13.8458ZM10.1253 4.32296 9.81655 3.76001 9.18323 3.86556C7.71915 4.10958 6.32658 4.54677 5.02544 5.14604L4.79651 5.25148 4.65507 5.46009C2.0418 9.31441 1.3258 13.1087 1.68032 16.8362L1.71897 17.2425 2.04912 17.4824C3.78851 18.7465 5.47417 19.5189 7.12727 20.0257L7.91657 20.2676 9.03013 17.5506C10.9397 18.0226 13.0592 18.0228 14.969 17.5511L16.0757 20.2683 16.8668 20.0256C18.5173 19.5193 20.2137 18.7472 21.9466 17.4811L22.2726 17.243 22.3131 16.8414C22.7491 12.5213 21.616 8.75773 19.3547 5.45652L19.2128 5.24944 18.9846 5.14504C17.6767 4.54685 16.2852 4.10981 14.8309 3.86573L14.2132 3.76207 13.8987 4.30369C13.8112 4.45445 13.7215 4.62464 13.6364 4.79687 12.5441 4.6847 11.456 4.68446 10.3726 4.79652 10.2882 4.62736 10.2025 4.4638 10.1253 4.32296ZM6.71436 16.6102C6.91235 16.7243 7.11973 16.8358 7.32557 16.9381L6.8764 18.034C5.75585 17.6259 4.61837 17.0637 3.4476 16.2557 3.22313 13.1178 3.86092 9.951 6.01196 6.68626 6.90962 6.29123 7.8535 5.98279 8.83606 5.77295 8.89631 5.89831 8.95235 6.02066 8.99839 6.12917L9.27128 6.77238 9.96259 6.67098C11.3152 6.4726 12.6772 6.47234 14.0523 6.67124L14.7424 6.77106 15.0147 6.12917C15.0621 6.01743 15.1167 5.89547 15.1743 5.77322 16.1525 5.98326 17.098 6.29212 18.0029 6.68812 19.8781 9.50857 20.8241 12.6544 20.5486 16.2552 19.3837 17.0625 18.2422 17.6249 17.1193 18.0335L16.6735 16.939C16.8799 16.8365 17.0879 16.7246 17.2865 16.6102 17.7763 16.328 18.3039 15.976 18.6402 15.6397L17.3606 14.3602C17.1969 14.5239 16.837 14.7808 16.3831 15.0423 15.9388 15.2983 15.498 15.5052 15.2164 15.5983 13.2126 16.2608 10.7883 16.2608 8.78443 15.5983 8.50285 15.5052 8.06205 15.2983 7.61772 15.0423 7.16383 14.7808 6.80392 14.5239 6.64017 14.3602L5.36065 15.6397C5.6969 15.976 6.2245 16.328 6.71436 16.6102Z"></path></symbol><symbol viewBox="0 0 24 24" id="pinterest-fill"><path d="M13.3717 2.09442C8.42512 1.41268 3.73383 4.48505 2.38064 9.29256C1.02745 14.1001 3.42711 19.1692 8.00271 21.1689C7.94264 20.4008 7.99735 19.628 8.16502 18.8761C8.34964 18.0374 9.46121 13.4132 9.46121 13.4132C9.23971 12.9173 9.12893 12.379 9.13659 11.8359C9.13659 10.3509 9.99353 9.24295 11.0597 9.24295C11.4472 9.23718 11.8181 9.40028 12.0758 9.68981C12.3335 9.97934 12.4526 10.3667 12.402 10.751C12.402 11.6512 11.8236 13.0131 11.5228 14.2903C11.4014 14.7656 11.5131 15.2703 11.8237 15.65C12.1343 16.0296 12.6069 16.2389 13.0967 16.2139C14.9944 16.2139 16.2675 13.7825 16.2675 10.9126C16.2675 8.71205 14.8098 7.0655 12.1243 7.0655C10.826 7.01531 9.56388 7.4996 8.63223 8.40543C7.70057 9.31126 7.18084 10.5595 7.19423 11.859C7.16563 12.5722 7.39566 13.2717 7.84194 13.8287C8.01361 13.9564 8.07985 14.1825 8.00425 14.3827C7.9581 14.5673 7.84194 15.0059 7.79578 15.1675C7.77632 15.278 7.70559 15.3728 7.60516 15.4228C7.50473 15.4729 7.38651 15.4724 7.28654 15.4214C5.9019 14.8674 5.24957 13.3439 5.24957 11.6051C5.24957 8.75822 7.63424 5.3497 12.4036 5.3497C16.1998 5.3497 18.723 8.1273 18.723 11.0972C18.723 15.0059 16.5468 17.9451 13.3298 17.9451C12.3526 17.9761 11.4273 17.5061 10.8759 16.6986C10.8759 16.6986 10.2974 19.0146 10.1835 19.4531C9.95101 20.2099 9.60779 20.9281 9.16505 21.5844C10.0877 21.8643 11.0471 22.0044 12.0113 22C14.6636 22.0017 17.2078 20.9484 19.0829 19.072C20.958 17.1957 22.0099 14.6504 22.0069 11.9975C22.004 7.00306 18.3183 2.77616 13.3717 2.09442Z"></path></symbol><symbol viewBox="0 0 24 24" id="youtube-fill"><path d="M12.2439 4C12.778 4.00294 14.1143 4.01586 15.5341 4.07273L16.0375 4.09468C17.467 4.16236 18.8953 4.27798 19.6037 4.4755C20.5486 4.74095 21.2913 5.5155 21.5423 6.49732C21.942 8.05641 21.992 11.0994 21.9982 11.8358L21.9991 11.9884L21.9991 11.9991C21.9991 11.9991 21.9991 12.0028 21.9991 12.0099L21.9982 12.1625C21.992 12.8989 21.942 15.9419 21.5423 17.501C21.2878 18.4864 20.5451 19.261 19.6037 19.5228C18.8953 19.7203 17.467 19.8359 16.0375 19.9036L15.5341 19.9255C14.1143 19.9824 12.778 19.9953 12.2439 19.9983L12.0095 19.9991L11.9991 19.9991C11.9991 19.9991 11.9956 19.9991 11.9887 19.9991L11.7545 19.9983C10.6241 19.9921 5.89772 19.941 4.39451 19.5228C3.4496 19.2573 2.70692 18.4828 2.45587 17.501C2.0562 15.9419 2.00624 12.8989 2 12.1625V11.8358C2.00624 11.0994 2.0562 8.05641 2.45587 6.49732C2.7104 5.51186 3.45308 4.73732 4.39451 4.4755C5.89772 4.05723 10.6241 4.00622 11.7545 4H12.2439ZM9.99911 8.49914V15.4991L15.9991 11.9991L9.99911 8.49914Z"></path></symbol><symbol viewBox="0 0 24 24" id="youtube-line"><path d="M19.6069 6.99482C19.5307 6.69695 19.3152 6.47221 19.0684 6.40288C18.6299 6.28062 16.501 6 12.001 6C7.50098 6 5.37252 6.28073 4.93225 6.40323C4.68776 6.47123 4.4723 6.69593 4.3951 6.99482C4.2863 7.41923 4.00098 9.19595 4.00098 12C4.00098 14.804 4.2863 16.5808 4.3954 17.0064C4.47126 17.3031 4.68676 17.5278 4.93251 17.5968C5.37252 17.7193 7.50098 18 12.001 18C16.501 18 18.6299 17.7194 19.0697 17.5968C19.3142 17.5288 19.5297 17.3041 19.6069 17.0052C19.7157 16.5808 20.001 14.8 20.001 12C20.001 9.2 19.7157 7.41923 19.6069 6.99482ZM21.5442 6.49818C22.001 8.28 22.001 12 22.001 12C22.001 12 22.001 15.72 21.5442 17.5018C21.2897 18.4873 20.547 19.2618 19.6056 19.5236C17.8971 20 12.001 20 12.001 20C12.001 20 6.10837 20 4.39637 19.5236C3.45146 19.2582 2.70879 18.4836 2.45774 17.5018C2.00098 15.72 2.00098 12 2.00098 12C2.00098 12 2.00098 8.28 2.45774 6.49818C2.71227 5.51273 3.45495 4.73818 4.39637 4.47636C6.10837 4 12.001 4 12.001 4C12.001 4 17.8971 4 19.6056 4.47636C20.5505 4.74182 21.2932 5.51636 21.5442 6.49818ZM10.001 15.5V8.5L16.001 12L10.001 15.5Z"></path></symbol><symbol viewBox="0 0 24 24" id="github-line"><path d="M5.88401 18.6533C5.58404 18.4526 5.32587 18.1975 5.0239 17.8369C4.91473 17.7065 4.47283 17.1524 4.55811 17.2583C4.09533 16.6833 3.80296 16.417 3.50156 16.3089C2.9817 16.1225 2.7114 15.5499 2.89784 15.0301C3.08428 14.5102 3.65685 14.2399 4.17672 14.4263C4.92936 14.6963 5.43847 15.1611 6.12425 16.0143C6.03025 15.8974 6.46364 16.441 6.55731 16.5529C6.74784 16.7804 6.88732 16.9182 6.99629 16.9911C7.20118 17.1283 7.58451 17.1874 8.14709 17.1311C8.17065 16.7489 8.24136 16.3783 8.34919 16.0358C5.38097 15.3104 3.70116 13.3952 3.70116 9.63971C3.70116 8.40085 4.0704 7.28393 4.75917 6.3478C4.5415 5.45392 4.57433 4.37284 5.06092 3.15636C5.1725 2.87739 5.40361 2.66338 5.69031 2.57352C5.77242 2.54973 5.81791 2.53915 5.89878 2.52673C6.70167 2.40343 7.83573 2.69705 9.31449 3.62336C10.181 3.41879 11.0885 3.315 12.0012 3.315C12.9129 3.315 13.8196 3.4186 14.6854 3.62277C16.1619 2.69 17.2986 2.39649 18.1072 2.52651C18.1919 2.54013 18.2645 2.55783 18.3249 2.57766C18.6059 2.66991 18.8316 2.88179 18.9414 3.15636C19.4279 4.37256 19.4608 5.45344 19.2433 6.3472C19.9342 7.28337 20.3012 8.39208 20.3012 9.63971C20.3012 13.3968 18.627 15.3048 15.6588 16.032C15.7837 16.447 15.8496 16.9105 15.8496 17.4121C15.8496 18.0765 15.8471 18.711 15.8424 19.4225C15.8412 19.6127 15.8397 19.8159 15.8375 20.1281C16.2129 20.2109 16.5229 20.5077 16.6031 20.9089C16.7114 21.4504 16.3602 21.9773 15.8186 22.0856C14.6794 22.3134 13.8353 21.5538 13.8353 20.5611C13.8353 20.4708 13.836 20.3417 13.8375 20.1145C13.8398 19.8015 13.8412 19.599 13.8425 19.4094C13.8471 18.7019 13.8496 18.0716 13.8496 17.4121C13.8496 16.7148 13.6664 16.2602 13.4237 16.051C12.7627 15.4812 13.0977 14.3973 13.965 14.2999C16.9314 13.9666 18.3012 12.8177 18.3012 9.63971C18.3012 8.68508 17.9893 7.89571 17.3881 7.23559C17.1301 6.95233 17.0567 6.54659 17.199 6.19087C17.3647 5.77663 17.4354 5.23384 17.2941 4.57702L17.2847 4.57968C16.7928 4.71886 16.1744 5.0198 15.4261 5.5285C15.182 5.69438 14.8772 5.74401 14.5932 5.66413C13.7729 5.43343 12.8913 5.315 12.0012 5.315C11.111 5.315 10.2294 5.43343 9.40916 5.66413C9.12662 5.74359 8.82344 5.69492 8.57997 5.53101C7.8274 5.02439 7.2056 4.72379 6.71079 4.58376C6.56735 5.23696 6.63814 5.77782 6.80336 6.19087C6.94565 6.54659 6.87219 6.95233 6.61423 7.23559C6.01715 7.8912 5.70116 8.69376 5.70116 9.63971C5.70116 12.8116 7.07225 13.9683 10.023 14.2999C10.8883 14.3971 11.2246 15.4769 10.5675 16.0482C10.3751 16.2156 10.1384 16.7802 10.1384 17.4121V20.5611C10.1384 21.5474 9.30356 22.2869 8.17878 22.09C7.63476 21.9948 7.27093 21.4766 7.36613 20.9326C7.43827 20.5204 7.75331 20.2116 8.13841 20.1276V19.1381C7.22829 19.1994 6.47656 19.0498 5.88401 18.6533Z"></path></symbol><symbol viewBox="0 0 24 24" id="whatsapp-line"><path d="M7.25361 18.4944L7.97834 18.917C9.18909 19.623 10.5651 20 12.001 20C16.4193 20 20.001 16.4183 20.001 12C20.001 7.58172 16.4193 4 12.001 4C7.5827 4 4.00098 7.58172 4.00098 12C4.00098 13.4363 4.37821 14.8128 5.08466 16.0238L5.50704 16.7478L4.85355 19.1494L7.25361 18.4944ZM2.00516 22L3.35712 17.0315C2.49494 15.5536 2.00098 13.8345 2.00098 12C2.00098 6.47715 6.47813 2 12.001 2C17.5238 2 22.001 6.47715 22.001 12C22.001 17.5228 17.5238 22 12.001 22C10.1671 22 8.44851 21.5064 6.97086 20.6447L2.00516 22ZM8.39232 7.30833C8.5262 7.29892 8.66053 7.29748 8.79459 7.30402C8.84875 7.30758 8.90265 7.31384 8.95659 7.32007C9.11585 7.33846 9.29098 7.43545 9.34986 7.56894C9.64818 8.24536 9.93764 8.92565 10.2182 9.60963C10.2801 9.76062 10.2428 9.95633 10.125 10.1457C10.0652 10.2428 9.97128 10.379 9.86248 10.5183C9.74939 10.663 9.50599 10.9291 9.50599 10.9291C9.50599 10.9291 9.40738 11.0473 9.44455 11.1944C9.45903 11.25 9.50521 11.331 9.54708 11.3991C9.57027 11.4368 9.5918 11.4705 9.60577 11.4938C9.86169 11.9211 10.2057 12.3543 10.6259 12.7616C10.7463 12.8783 10.8631 12.9974 10.9887 13.108C11.457 13.5209 11.9868 13.8583 12.559 14.1082L12.5641 14.1105C12.6486 14.1469 12.692 14.1668 12.8157 14.2193C12.8781 14.2457 12.9419 14.2685 13.0074 14.2858C13.0311 14.292 13.0554 14.2955 13.0798 14.2972C13.2415 14.3069 13.335 14.2032 13.3749 14.1555C14.0984 13.279 14.1646 13.2218 14.1696 13.2222V13.2238C14.2647 13.1236 14.4142 13.0888 14.5476 13.097C14.6085 13.1007 14.6691 13.1124 14.7245 13.1377C15.2563 13.3803 16.1258 13.7587 16.1258 13.7587L16.7073 14.0201C16.8047 14.0671 16.8936 14.1778 16.8979 14.2854C16.9005 14.3523 16.9077 14.4603 16.8838 14.6579C16.8525 14.9166 16.7738 15.2281 16.6956 15.3913C16.6406 15.5058 16.5694 15.6074 16.4866 15.6934C16.3743 15.81 16.2909 15.8808 16.1559 15.9814C16.0737 16.0426 16.0311 16.0714 16.0311 16.0714C15.8922 16.159 15.8139 16.2028 15.6484 16.2909C15.391 16.428 15.1066 16.5068 14.8153 16.5218C14.6296 16.5313 14.4444 16.5447 14.2589 16.5347C14.2507 16.5342 13.6907 16.4482 13.6907 16.4482C12.2688 16.0742 10.9538 15.3736 9.85034 14.402C9.62473 14.2034 9.4155 13.9885 9.20194 13.7759C8.31288 12.8908 7.63982 11.9364 7.23169 11.0336C7.03043 10.5884 6.90299 10.1116 6.90098 9.62098C6.89729 9.01405 7.09599 8.4232 7.46569 7.94186C7.53857 7.84697 7.60774 7.74855 7.72709 7.63586C7.85348 7.51651 7.93392 7.45244 8.02057 7.40811C8.13607 7.34902 8.26293 7.31742 8.39232 7.30833Z"></path></symbol><symbol viewBox="0 0 24 24" id="whatsapp-fill"><path d="M12.001 2C17.5238 2 22.001 6.47715 22.001 12C22.001 17.5228 17.5238 22 12.001 22C10.1671 22 8.44851 21.5064 6.97086 20.6447L2.00516 22L3.35712 17.0315C2.49494 15.5536 2.00098 13.8345 2.00098 12C2.00098 6.47715 6.47813 2 12.001 2ZM8.59339 7.30019L8.39232 7.30833C8.26293 7.31742 8.13607 7.34902 8.02057 7.40811C7.93392 7.45244 7.85348 7.51651 7.72709 7.63586C7.60774 7.74855 7.53857 7.84697 7.46569 7.94186C7.09599 8.4232 6.89729 9.01405 6.90098 9.62098C6.90299 10.1116 7.03043 10.5884 7.23169 11.0336C7.63982 11.9364 8.31288 12.8908 9.20194 13.7759C9.4155 13.9885 9.62473 14.2034 9.85034 14.402C10.9538 15.3736 12.2688 16.0742 13.6907 16.4482C13.6907 16.4482 14.2507 16.5342 14.2589 16.5347C14.4444 16.5447 14.6296 16.5313 14.8153 16.5218C15.1066 16.5068 15.391 16.428 15.6484 16.2909C15.8139 16.2028 15.8922 16.159 16.0311 16.0714C16.0311 16.0714 16.0737 16.0426 16.1559 15.9814C16.2909 15.8808 16.3743 15.81 16.4866 15.6934C16.5694 15.6074 16.6406 15.5058 16.6956 15.3913C16.7738 15.2281 16.8525 14.9166 16.8838 14.6579C16.9077 14.4603 16.9005 14.3523 16.8979 14.2854C16.8936 14.1778 16.8047 14.0671 16.7073 14.0201L16.1258 13.7587C16.1258 13.7587 15.2563 13.3803 14.7245 13.1377C14.6691 13.1124 14.6085 13.1007 14.5476 13.097C14.4142 13.0888 14.2647 13.1236 14.1696 13.2238C14.1646 13.2218 14.0984 13.279 13.3749 14.1555C13.335 14.2032 13.2415 14.3069 13.0798 14.2972C13.0554 14.2955 13.0311 14.292 13.0074 14.2858C12.9419 14.2685 12.8781 14.2457 12.8157 14.2193C12.692 14.1668 12.6486 14.1469 12.5641 14.1105C11.9868 13.8583 11.457 13.5209 10.9887 13.108C10.8631 12.9974 10.7463 12.8783 10.6259 12.7616C10.2057 12.3543 9.86169 11.9211 9.60577 11.4938C9.5918 11.4705 9.57027 11.4368 9.54708 11.3991C9.50521 11.331 9.45903 11.25 9.44455 11.1944C9.40738 11.0473 9.50599 10.9291 9.50599 10.9291C9.50599 10.9291 9.74939 10.663 9.86248 10.5183C9.97128 10.379 10.0652 10.2428 10.125 10.1457C10.2428 9.95633 10.2801 9.76062 10.2182 9.60963C9.93764 8.92565 9.64818 8.24536 9.34986 7.56894C9.29098 7.43545 9.11585 7.33846 8.95659 7.32007C8.90265 7.31384 8.84875 7.30758 8.79459 7.30402C8.66053 7.29748 8.5262 7.29892 8.39232 7.30833L8.59339 7.30019Z"></path></symbol><symbol viewBox="0 0 24 24" id="telegram-line"><path d="M20 12C20 16.4183 16.4183 20 12 20C7.58172 20 4 16.4183 4 12C4 7.58172 7.58172 4 12 4C16.4183 4 20 7.58172 20 12ZM12 22C17.5228 22 22 17.5228 22 12C22 6.47715 17.5228 2 12 2C6.47715 2 2 6.47715 2 12C2 17.5228 6.47715 22 12 22ZM12.3584 9.38246C11.3857 9.78702 9.4418 10.6244 6.5266 11.8945C6.05321 12.0827 5.80524 12.2669 5.78266 12.4469C5.74451 12.7513 6.12561 12.8711 6.64458 13.0343C6.71517 13.0565 6.78832 13.0795 6.8633 13.1039C7.37388 13.2698 8.06071 13.464 8.41776 13.4717C8.74164 13.4787 9.10313 13.3452 9.50222 13.0711C12.226 11.2325 13.632 10.3032 13.7203 10.2832C13.7826 10.269 13.8689 10.2513 13.9273 10.3032C13.9858 10.3552 13.98 10.4536 13.9739 10.48C13.9361 10.641 12.4401 12.0318 11.6659 12.7515C11.4351 12.9661 11.2101 13.1853 10.9833 13.4039C10.509 13.8611 10.1533 14.204 11.003 14.764C11.8644 15.3317 12.7323 15.8982 13.5724 16.4971C13.9867 16.7925 14.359 17.0579 14.8188 17.0156C15.0861 16.991 15.3621 16.7397 15.5022 15.9903C15.8335 14.2193 16.4847 10.3821 16.6352 8.80083C16.6484 8.6623 16.6318 8.485 16.6185 8.40717C16.6052 8.32934 16.5773 8.21844 16.4762 8.13635C16.3563 8.03913 16.1714 8.01863 16.0887 8.02009C15.7125 8.02672 15.1355 8.22737 12.3584 9.38246Z"></path></symbol><symbol viewBox="0 0 24 24" id="skype-line"><path d="M13.0052 18.4232C13.4288 18.3577 13.8623 18.43 14.2418 18.6295C14.7026 18.8719 15.2154 19 15.751 19C17.5459 19 19.001 17.5449 19.001 15.75C19.001 15.2144 18.8728 14.7016 18.6305 14.2408C18.431 13.8613 18.3586 13.4278 18.4242 13.0042C18.4752 12.6746 18.501 12.3393 18.501 12C18.501 8.41015 15.5908 5.5 12.001 5.5C11.6617 5.5 11.3264 5.52582 10.9968 5.57681C10.5731 5.64234 10.1396 5.57001 9.7602 5.37047C9.29939 5.12815 8.7866 5 8.25098 5C6.45605 5 5.00098 6.45507 5.00098 8.25C5.00098 8.78562 5.12912 9.29841 5.37145 9.75922C5.57098 10.1387 5.64332 10.5722 5.57778 10.9958C5.5268 11.3254 5.50098 11.6607 5.50098 12C5.50098 15.5899 8.41113 18.5 12.001 18.5C12.3403 18.5 12.6755 18.4742 13.0052 18.4232ZM12.001 20.5C7.30656 20.5 3.50098 16.6944 3.50098 12C3.50098 11.5545 3.53524 11.1171 3.60129 10.6901C3.21792 9.96108 3.00098 9.13087 3.00098 8.25C3.00098 5.35051 5.35148 3 8.25098 3C9.13185 3 9.96205 3.21694 10.6911 3.60031C11.118 3.53427 11.5555 3.5 12.001 3.5C16.6954 3.5 20.501 7.30558 20.501 12C20.501 12.4455 20.4667 12.8829 20.4007 13.3099C20.784 14.0389 21.001 14.8691 21.001 15.75C21.001 18.6495 18.6505 21 15.751 21C14.8701 21 14.0399 20.7831 13.3109 20.3997C12.8839 20.4657 12.4464 20.5 12.001 20.5ZM12.0539 16.9993C9.25237 16.9993 8.00098 15.6213 8.00098 14.5872C8.00098 14.0545 8.39165 13.6848 8.92925 13.6848C10.1291 13.6848 9.81574 15.4096 12.0539 15.4096C13.1967 15.4096 13.8297 14.7864 13.8297 14.1485C13.8297 13.7648 13.6423 13.3408 12.8868 13.1535L10.3965 12.5303C8.39095 12.0261 8.02674 10.9384 8.02674 9.91832C8.02674 7.7966 10.0191 7 11.8909 7C13.6117 7 15.6465 7.95606 15.6465 9.22756C15.6465 9.77348 15.1674 10.091 14.6347 10.091C13.6117 10.091 13.8004 8.67259 11.735 8.67259C10.712 8.67259 10.1389 9.13495 10.1389 9.79855C10.1389 10.4622 10.9418 10.6745 11.6409 10.834L13.4773 11.2427C15.4905 11.6947 16.001 12.8763 16.001 13.9891C16.001 15.7132 14.6765 17 12.0163 17L12.0539 16.9993Z"></path></symbol><symbol viewBox="0 0 24 24" id="pinterest-line"><path d="M8.49161 19.1912C8.51535 18.8546 8.56306 18.5199 8.63456 18.1897C8.69754 17.8951 8.88867 17.0596 9.16872 15.8498L9.17581 15.8191C9.29895 15.2872 9.43089 14.7192 9.56283 14.1525C9.64199 13.8124 9.70356 13.5484 9.74438 13.4602C9.55012 13.0123 9.45298 12.5263 9.45969 12.0373C9.45969 10.6999 10.2157 9.66359 11.1958 9.6636C11.5555 9.65809 11.8996 9.81388 12.1383 10.09C12.3764 10.3655 12.4863 10.7335 12.4404 11.086C12.4404 11.5385 12.3548 11.8844 11.9865 13.1212C11.9158 13.3587 11.8674 13.5254 11.8215 13.692C11.7696 13.8799 11.7261 14.0503 11.6887 14.2136C11.5928 14.6003 11.6811 15.011 11.9262 15.3195C12.1707 15.6272 12.5421 15.7966 12.9319 15.7762C14.4242 15.7762 15.5321 13.7911 15.5321 11.2277C15.5321 9.25804 14.2412 7.95424 12.1 7.95416C11.0224 7.91127 9.97466 8.32523 9.20095 9.09986C8.42664 9.87508 7.99452 10.9437 8.00559 12.0614C7.98214 12.6633 8.17064 13.2536 8.51804 13.7053C8.69915 13.8441 8.76869 14.0885 8.69262 14.2941C8.65157 14.4632 8.55259 14.8473 8.51649 14.9755C8.49464 15.1032 8.41497 15.2131 8.30126 15.2715C8.18678 15.3303 8.05172 15.3297 7.94618 15.2737C6.78507 14.7954 6.14967 13.4963 6.14967 11.8349C6.14967 8.84907 8.64129 6.2497 12.3417 6.2497C15.4772 6.2497 17.8231 8.57864 17.8231 11.3896C17.8231 14.922 15.8911 17.4942 13.1337 17.4942C12.3393 17.5202 11.5838 17.162 11.087 16.535L11.044 16.712C10.9499 17.0992 10.9028 17.2928 10.8368 17.5638L10.8349 17.5715C10.6887 18.1717 10.5867 18.5885 10.5471 18.7452C10.4412 19.0998 10.307 19.448 10.1471 19.7841C10.7421 19.9253 11.3628 20 12.001 20C16.4193 20 20.001 16.4183 20.001 12C20.001 7.58172 16.4193 4 12.001 4C7.5827 4 4.00098 7.58172 4.00098 12C4.00098 15.1594 5.83244 17.8911 8.49161 19.1912ZM12.001 22C6.47813 22 2.00098 17.5228 2.00098 12C2.00098 6.47715 6.47813 2 12.001 2C17.5238 2 22.001 6.47715 22.001 12C22.001 17.5228 17.5238 22 12.001 22Z"></path></symbol><symbol viewBox="0 0 24 24" id="messenger-line"><path d="M7.76497 19.225C8.35411 18.9652 9.01479 18.9164 9.63316 19.0861C10.4032 19.2963 11.198 19.4019 12.001 19.4C16.5861 19.4 20.001 16.1135 20.001 11.7C20.001 7.28651 16.5861 4 12.001 4C7.41585 4 4.00098 7.28651 4.00098 11.7C4.00098 13.9699 4.89652 15.9722 6.46655 17.3764C7.0418 17.8853 7.38251 18.6082 7.409 19.3822L7.76497 19.225ZM12.001 2C17.6345 2 22.001 6.1265 22.001 11.7C22.001 17.2735 17.6345 21.4 12.001 21.4C11.0233 21.4023 10.0497 21.273 9.10648 21.0155C8.92907 20.9668 8.7403 20.9808 8.57198 21.055L6.58748 21.931C6.34398 22.0386 6.06291 22.018 5.83768 21.8761C5.61244 21.7342 5.47254 21.4896 5.46448 21.2235L5.40998 19.4445C5.40257 19.2257 5.30547 19.0196 5.14148 18.8745C3.19598 17.1345 2.00098 14.6155 2.00098 11.7C2.00098 6.1265 6.36748 2 12.001 2ZM5.99598 14.5365L8.93348 9.8765C9.15689 9.5221 9.51834 9.27728 9.93034 9.2013C10.3423 9.12532 10.7673 9.22511 11.1025 9.4765L13.439 11.2265C13.6528 11.3878 13.9476 11.3878 14.1615 11.2265L17.317 8.8315C17.738 8.512 18.288 9.016 18.006 9.4635L15.0685 14.1235C14.8451 14.4779 14.4836 14.7227 14.0716 14.7987C13.6596 14.8747 13.2346 14.7749 12.8995 14.5235L10.563 12.7735C10.3491 12.6122 10.0543 12.6122 9.84048 12.7735L6.68498 15.1685C6.26398 15.488 5.71398 14.984 5.99598 14.5365Z"></path></symbol><symbol viewBox="0 0 24 24" id="messenger-fill"><path d="M12.001 2C17.6345 2 22.001 6.1265 22.001 11.7C22.001 17.2735 17.6345 21.4 12.001 21.4C11.0233 21.4023 10.0497 21.273 9.10648 21.0155C8.92907 20.9668 8.7403 20.9808 8.57198 21.055L6.58748 21.931C6.34398 22.0386 6.06291 22.018 5.83768 21.8761C5.61244 21.7342 5.47254 21.4896 5.46448 21.2235L5.40998 19.4445C5.40257 19.2257 5.30547 19.0196 5.14148 18.8745C3.19598 17.1345 2.00098 14.6155 2.00098 11.7C2.00098 6.1265 6.36748 2 12.001 2ZM5.99598 14.5365C5.71398 14.984 6.26398 15.488 6.68498 15.1685L9.84048 12.7735C10.0543 12.6122 10.3491 12.6122 10.563 12.7735L12.8995 14.5235C13.2346 14.7749 13.6596 14.8747 14.0716 14.7987C14.4836 14.7227 14.8451 14.4779 15.0685 14.1235L18.006 9.4635C18.288 9.016 17.738 8.512 17.317 8.8315L14.1615 11.2265C13.9476 11.3878 13.6528 11.3878 13.439 11.2265L11.1025 9.4765C10.7673 9.22511 10.3423 9.12532 9.93034 9.2013C9.51834 9.27728 9.15689 9.5221 8.93348 9.8765L5.99598 14.5365Z"></path></symbol><symbol viewBox="0 0 24 24" id="instagram-fill"><path d="M13.0281 2.00073C14.1535 2.00259 14.7238 2.00855 15.2166 2.02322L15.4107 2.02956C15.6349 2.03753 15.8561 2.04753 16.1228 2.06003C17.1869 2.1092 17.9128 2.27753 18.5503 2.52503C19.2094 2.7792 19.7661 3.12253 20.3219 3.67837C20.8769 4.2342 21.2203 4.79253 21.4753 5.45003C21.7219 6.0867 21.8903 6.81337 21.9403 7.87753C21.9522 8.1442 21.9618 8.3654 21.9697 8.58964L21.976 8.78373C21.9906 9.27647 21.9973 9.84686 21.9994 10.9723L22.0002 11.7179C22.0003 11.809 22.0003 11.903 22.0003 12L22.0002 12.2821L21.9996 13.0278C21.9977 14.1532 21.9918 14.7236 21.9771 15.2163L21.9707 15.4104C21.9628 15.6347 21.9528 15.8559 21.9403 16.1225C21.8911 17.1867 21.7219 17.9125 21.4753 18.55C21.2211 19.2092 20.8769 19.7659 20.3219 20.3217C19.7661 20.8767 19.2069 21.22 18.5503 21.475C17.9128 21.7217 17.1869 21.89 16.1228 21.94C15.8561 21.9519 15.6349 21.9616 15.4107 21.9694L15.2166 21.9757C14.7238 21.9904 14.1535 21.997 13.0281 21.9992L12.2824 22C12.1913 22 12.0973 22 12.0003 22L11.7182 22L10.9725 21.9993C9.8471 21.9975 9.27672 21.9915 8.78397 21.9768L8.58989 21.9705C8.36564 21.9625 8.14444 21.9525 7.87778 21.94C6.81361 21.8909 6.08861 21.7217 5.45028 21.475C4.79194 21.2209 4.23444 20.8767 3.67861 20.3217C3.12278 19.7659 2.78028 19.2067 2.52528 18.55C2.27778 17.9125 2.11028 17.1867 2.06028 16.1225C2.0484 15.8559 2.03871 15.6347 2.03086 15.4104L2.02457 15.2163C2.00994 14.7236 2.00327 14.1532 2.00111 13.0278L2.00098 10.9723C2.00284 9.84686 2.00879 9.27647 2.02346 8.78373L2.02981 8.58964C2.03778 8.3654 2.04778 8.1442 2.06028 7.87753C2.10944 6.81253 2.27778 6.08753 2.52528 5.45003C2.77944 4.7917 3.12278 4.2342 3.67861 3.67837C4.23444 3.12253 4.79278 2.78003 5.45028 2.52503C6.08778 2.27753 6.81278 2.11003 7.87778 2.06003C8.14444 2.04816 8.36564 2.03847 8.58989 2.03062L8.78397 2.02433C9.27672 2.00969 9.8471 2.00302 10.9725 2.00086L13.0281 2.00073ZM12.0003 7.00003C9.23738 7.00003 7.00028 9.23956 7.00028 12C7.00028 14.7629 9.23981 17 12.0003 17C14.7632 17 17.0003 14.7605 17.0003 12C17.0003 9.23713 14.7607 7.00003 12.0003 7.00003ZM12.0003 9.00003C13.6572 9.00003 15.0003 10.3427 15.0003 12C15.0003 13.6569 13.6576 15 12.0003 15C10.3434 15 9.00028 13.6574 9.00028 12C9.00028 10.3431 10.3429 9.00003 12.0003 9.00003ZM17.2503 5.50003C16.561 5.50003 16.0003 6.05994 16.0003 6.74918C16.0003 7.43843 16.5602 7.9992 17.2503 7.9992C17.9395 7.9992 18.5003 7.4393 18.5003 6.74918C18.5003 6.05994 17.9386 5.49917 17.2503 5.50003Z"></path></symbol><symbol viewBox="0 0 24 24" id="shopping-cart-2-fill"><path d="M4.00436 6.41686L0.761719 3.17422L2.17593 1.76001L5.41857 5.00265H20.6603C21.2126 5.00265 21.6603 5.45037 21.6603 6.00265C21.6603 6.09997 21.6461 6.19678 21.6182 6.29L19.2182 14.29C19.0913 14.713 18.7019 15.0027 18.2603 15.0027H6.00436V17.0027H17.0044V19.0027H5.00436C4.45207 19.0027 4.00436 18.5549 4.00436 18.0027V6.41686ZM5.50436 23.0027C4.67593 23.0027 4.00436 22.3311 4.00436 21.5027C4.00436 20.6742 4.67593 20.0027 5.50436 20.0027C6.33279 20.0027 7.00436 20.6742 7.00436 21.5027C7.00436 22.3311 6.33279 23.0027 5.50436 23.0027ZM17.5044 23.0027C16.6759 23.0027 16.0044 22.3311 16.0044 21.5027C16.0044 20.6742 16.6759 20.0027 17.5044 20.0027C18.3328 20.0027 19.0044 20.6742 19.0044 21.5027C19.0044 22.3311 18.3328 23.0027 17.5044 23.0027Z"></path></symbol><symbol viewBox="0 0 24 24" id="shopping-cart-2-line"><path d="M4.00436 6.41686L0.761719 3.17422L2.17593 1.76001L5.41857 5.00265H20.6603C21.2126 5.00265 21.6603 5.45037 21.6603 6.00265C21.6603 6.09997 21.6461 6.19678 21.6182 6.29L19.2182 14.29C19.0913 14.713 18.7019 15.0027 18.2603 15.0027H6.00436V17.0027H17.0044V19.0027H5.00436C4.45207 19.0027 4.00436 18.5549 4.00436 18.0027V6.41686ZM6.00436 7.00265V13.0027H17.5163L19.3163 7.00265H6.00436ZM5.50436 23.0027C4.67593 23.0027 4.00436 22.3311 4.00436 21.5027C4.00436 20.6742 4.67593 20.0027 5.50436 20.0027C6.33279 20.0027 7.00436 20.6742 7.00436 21.5027C7.00436 22.3311 6.33279 23.0027 5.50436 23.0027ZM17.5044 23.0027C16.6759 23.0027 16.0044 22.3311 16.0044 21.5027C16.0044 20.6742 16.6759 20.0027 17.5044 20.0027C18.3328 20.0027 19.0044 20.6742 19.0044 21.5027C19.0044 22.3311 18.3328 23.0027 17.5044 23.0027Z"></path></symbol><symbol viewBox="0 0 24 24" id="shopping-bag-fill"><path d="M12.0049 0.999695C14.7663 0.999695 17.0049 3.23827 17.0049 5.99969V7.99969H20.0049C20.5572 7.99969 21.0049 8.44741 21.0049 8.99969V20.9997C21.0049 21.552 20.5572 21.9997 20.0049 21.9997H4.00488C3.4526 21.9997 3.00488 21.552 3.00488 20.9997V8.99969C3.00488 8.44741 3.4526 7.99969 4.00488 7.99969H7.00488V5.99969C7.00488 3.23827 9.24346 0.999695 12.0049 0.999695ZM17.0049 10.9997H15.0049V11.9997C15.0049 12.552 15.4526 12.9997 16.0049 12.9997C16.5177 12.9997 16.9404 12.6137 16.9982 12.1163L17.0049 11.9997V10.9997ZM9.00488 10.9997H7.00488V11.9997C7.00488 12.552 7.4526 12.9997 8.00488 12.9997C8.51772 12.9997 8.94039 12.6137 8.99815 12.1163L9.00488 11.9997V10.9997ZM12.0049 2.99969C10.4072 2.99969 9.10122 4.24861 9.00998 5.82342L9.00488 5.99969V7.99969H15.0049V5.99969C15.0049 4.40201 13.756 3.09603 12.1812 3.00479L12.0049 2.99969Z"></path></symbol><symbol viewBox="0 0 24 24" id="shopping-bag-line"><path d="M7.00488 7.99966V5.99966C7.00488 3.23824 9.24346 0.999664 12.0049 0.999664C14.7663 0.999664 17.0049 3.23824 17.0049 5.99966V7.99966H20.0049C20.5572 7.99966 21.0049 8.44738 21.0049 8.99966V20.9997C21.0049 21.5519 20.5572 21.9997 20.0049 21.9997H4.00488C3.4526 21.9997 3.00488 21.5519 3.00488 20.9997V8.99966C3.00488 8.44738 3.4526 7.99966 4.00488 7.99966H7.00488ZM7.00488 9.99966H5.00488V19.9997H19.0049V9.99966H17.0049V11.9997H15.0049V9.99966H9.00488V11.9997H7.00488V9.99966ZM9.00488 7.99966H15.0049V5.99966C15.0049 4.34281 13.6617 2.99966 12.0049 2.99966C10.348 2.99966 9.00488 4.34281 9.00488 5.99966V7.99966Z"></path></symbol><symbol viewBox="0 0 24 24" id="shopping-bag-3-fill"><path d="M6.50488 2H17.5049C17.8196 2 18.116 2.14819 18.3049 2.4L21.0049 6V21C21.0049 21.5523 20.5572 22 20.0049 22H4.00488C3.4526 22 3.00488 21.5523 3.00488 21V6L5.70488 2.4C5.89374 2.14819 6.19013 2 6.50488 2ZM18.5049 6L17.0049 4H7.00488L5.50488 6H18.5049ZM9.00488 10H7.00488V12C7.00488 14.7614 9.24346 17 12.0049 17C14.7663 17 17.0049 14.7614 17.0049 12V10H15.0049V12C15.0049 13.6569 13.6617 15 12.0049 15C10.348 15 9.00488 13.6569 9.00488 12V10Z"></path></symbol><symbol viewBox="0 0 24 24" id="shopping-bag-3-line"><path d="M6.50488 2H17.5049C17.8196 2 18.116 2.14819 18.3049 2.4L21.0049 6V21C21.0049 21.5523 20.5572 22 20.0049 22H4.00488C3.4526 22 3.00488 21.5523 3.00488 21V6L5.70488 2.4C5.89374 2.14819 6.19013 2 6.50488 2ZM19.0049 8H5.00488V20H19.0049V8ZM18.5049 6L17.0049 4H7.00488L5.50488 6H18.5049ZM9.00488 10V12C9.00488 13.6569 10.348 15 12.0049 15C13.6617 15 15.0049 13.6569 15.0049 12V10H17.0049V12C17.0049 14.7614 14.7663 17 12.0049 17C9.24346 17 7.00488 14.7614 7.00488 12V10H9.00488Z"></path></symbol><symbol viewBox="0 0 24 24" id="shopping-basket-fill"><path d="M12.0049 2C15.3186 2 18.0049 4.68629 18.0049 8V9H22.0049V11H20.8379L20.0813 20.083C20.0381 20.6013 19.6048 21 19.0847 21H4.92502C4.40493 21 3.97166 20.6013 3.92847 20.083L3.17088 11H2.00488V9H6.00488V8C6.00488 4.68629 8.69117 2 12.0049 2ZM13.0049 13H11.0049V17H13.0049V13ZM9.00488 13H7.00488V17H9.00488V13ZM17.0049 13H15.0049V17H17.0049V13ZM12.0049 4C9.86269 4 8.1138 5.68397 8.00978 7.80036L8.00488 8V9H16.0049V8C16.0049 5.8578 14.3209 4.10892 12.2045 4.0049L12.0049 4Z"></path></symbol><symbol viewBox="0 0 24 24" id="shopping-basket-line"><path d="M12.0049 2C15.3186 2 18.0049 4.68629 18.0049 8V9H22.0049V11H20.8379L20.0813 20.083C20.0381 20.6013 19.6048 21 19.0847 21H4.92502C4.40493 21 3.97166 20.6013 3.92847 20.083L3.17088 11H2.00488V9H6.00488V8C6.00488 4.68629 8.69117 2 12.0049 2ZM18.8309 11H5.17788L5.84488 19H18.1639L18.8309 11ZM13.0049 13V17H11.0049V13H13.0049ZM9.00488 13V17H7.00488V13H9.00488ZM17.0049 13V17H15.0049V13H17.0049ZM12.0049 4C9.86269 4 8.1138 5.68397 8.00978 7.80036L8.00488 8V9H16.0049V8C16.0049 5.8578 14.3209 4.10892 12.2045 4.0049L12.0049 4Z"></path></symbol><symbol viewBox="0 0 24 24" id="cake-3-line"><path d="M15.5 2C17.433 2 19 3.567 19 5.5C19 5.72679 18.9784 5.94854 18.9372 6.16332L18.9223 6.22941C20.7106 6.82471 22 8.51178 22 10.5C22 12.3741 20.8544 13.9806 19.2253 14.6574L18.1393 21.1644C18.0589 21.6466 17.6417 22 17.1529 22H6.84713C6.35829 22 5.9411 21.6466 5.86073 21.1644L4.832 14.994C3.24892 14.9037 2 13.5977 2 12C2 10.6926 2.83627 9.5806 4.00306 9.16963L4 9C4 5.68629 6.68629 3 10 3C10.9212 3 11.794 3.20761 12.574 3.5786C13.1984 2.62849 14.2758 2 15.5 2ZM9 15H6.86L7.694 20H9V15ZM13 15H11V20H13V15ZM17.139 15H15V20H16.305L17.139 15ZM10 5C7.8578 5 6.10892 6.68397 6.0046 8.76748L5.99967 8.96394L6.00273 9.13357C6.0173 9.94127 5.54534 10.6726 4.8166 10.9967L4.6675 11.056C4.27121 11.1956 4 11.5722 4 12C4 12.5523 4.44772 13 5 13H17.5C18.8807 13 20 11.8807 20 10.5C20 9.11929 18.8807 8 17.5 8C17.1643 8 16.8417 8.06519 16.5442 8.18959L16.3688 8.27129C15.4021 8.76932 14.2253 8.40165 13.7059 7.46716L13.6362 7.32984C12.9876 5.92108 11.5778 5 10 5ZM15.5 4C14.9536 4 14.4755 4.29211 14.2132 4.72868C14.7264 5.2345 15.1481 5.83144 15.4529 6.49336C15.8966 6.26481 16.3838 6.10867 16.8988 6.03984C16.9645 5.87263 17 5.69046 17 5.5C17 4.67157 16.3284 4 15.5 4Z"></path></symbol><symbol viewBox="0 0 24 24" id="cake-3-fill"><path d="M15.5 2C17.433 2 19 3.567 19 5.5C19 5.72679 18.9784 5.94854 18.9372 6.16332L18.9223 6.22941C20.7106 6.82471 22 8.51178 22 10.5C22 12.3741 20.8544 13.9806 19.2253 14.6574L18.1393 21.1644C18.0589 21.6466 17.6417 22 17.1529 22H6.84713C6.35829 22 5.9411 21.6466 5.86073 21.1644L4.832 14.994C3.24892 14.9037 2 13.5977 2 12C2 10.6926 2.83627 9.5806 4.00306 9.16963L4 9C4 5.68629 6.68629 3 10 3C10.9216 3 11.7947 3.20779 12.575 3.57908C13.1988 2.62827 14.276 2 15.5 2ZM11 15H9V20H11V15ZM15 15H13V20H15V15ZM17.5 13C18.8807 13 20 11.8807 20 10.5C20 9.11929 18.8807 8 17.5 8C17.1643 8 16.8417 8.06519 16.5442 8.18959L16.3688 8.27129C15.4021 8.76932 14.2253 8.40165 13.7059 7.46716L13.6362 7.32984C12.9876 5.92108 11.5778 5 10 5C7.8578 5 6.10892 6.68397 6.0046 8.76748L5.99967 8.96394L6.00273 9.13357C6.0173 9.94127 5.54534 10.6726 4.8166 10.9967L4.6675 11.056C4.27121 11.1956 4 11.5722 4 12C4 12.5523 4.44772 13 5 13H17.5Z"></path></symbol><symbol viewBox="0 0 24 24" id="cake-2-fill"><path d="M8 6V9.999H11V6H13V9.999H16V6H18V9.999L19 10C20.5977 10 21.9037 11.2489 21.9949 12.8237L22 13V14C22 15.0139 21.6227 15.9397 21.001 16.6447L21 21C21 21.5523 20.5523 22 20 22H4C3.44772 22 3 21.5523 3 21L2.99917 16.6401C2.47812 16.0464 2.12795 15.2943 2.02793 14.4584L2.00551 14.2052L2 14V13C2 11.4023 3.24892 10.0963 4.82373 10.0051L5 10L6 9.999V6H8ZM19 12H5C4.48716 12 4.06449 12.386 4.00673 12.8834L4 13L3.99958 13.9711L4.00342 14.1184C4.06444 15.1715 4.93934 16 6 16C7.00762 16 7.84761 15.2523 7.98033 14.2995L7.99532 14.1474L8.00042 13.9711C8.03649 12.7225 9.82713 12.6779 9.98853 13.8373L9.99958 13.9711L10.0034 14.1184C10.0644 15.1715 10.9393 16 12 16C13.0544 16 13.9182 15.1841 13.9945 14.1493L14.007 13.8668C14.131 12.7111 15.869 12.7111 15.993 13.8668L16.0055 14.1493C16.0818 15.1841 16.9456 16 18 16C19.0544 16 19.9182 15.1841 19.9945 14.1493L20 14V13C20 12.4872 19.614 12.0645 19.1166 12.0067L19 12ZM7 1C8.31948 1.87119 8.6633 3.08803 8.44889 3.88823C8.23448 4.68843 7.41197 5.1633 6.61177 4.94889C5.81157 4.73448 5.3367 3.91197 5.55111 3.11177C5.84871 2.00111 7 2.5 7 1ZM12 1C13.3195 1.87119 13.6633 3.08803 13.4489 3.88823C13.2345 4.68843 12.412 5.1633 11.6118 4.94889C10.8116 4.73448 10.3367 3.91197 10.5511 3.11177C10.8487 2.00111 12 2.5 12 1ZM17 1C18.3195 1.87119 18.6633 3.08803 18.4489 3.88823C18.2345 4.68843 17.412 5.1633 16.6118 4.94889C15.8116 4.73448 15.3367 3.91197 15.5511 3.11177C15.8487 2.00111 17 2.5 17 1Z"></path></symbol><symbol viewBox="0 0 24 24" id="cake-2-line"><path d="M8 6V9.999H11V6H13V9.999H16V6H18V9.999L19 10C20.5977 10 21.9037 11.2489 21.9949 12.8237L22 13V14C22 15.0139 21.6227 15.9397 21.001 16.6447L21 21C21 21.5523 20.5523 22 20 22H4C3.44772 22 3 21.5523 3 21L2.99917 16.6401C2.47812 16.0464 2.12795 15.2943 2.02793 14.4584L2.00551 14.2052L2 14V13C2 11.4023 3.24892 10.0963 4.82373 10.0051L5 10L6 9.999V6H8ZM9.002 16.641L8.94768 16.7041C8.30742 17.4013 7.42357 17.8697 6.43424 17.9767L6.20413 17.9949L6 18C5.65524 18 5.32032 17.9563 5.00061 17.8738L5 20H19L19.0008 17.8738C18.6809 17.9562 18.3456 18 18 18C16.9378 18 15.9724 17.586 15.2561 16.9106L15.1065 16.7619L15 16.644L14.8935 16.7619C14.2607 17.4246 13.4024 17.8703 12.4418 17.9759L12.1996 17.9951L12 18C10.914 18 9.92563 17.5661 9.20287 16.8557L9.05211 16.6993L9.002 16.641ZM19 12H5C4.48716 12 4.06449 12.386 4.00673 12.8834L4 13L3.99958 13.9711L4.00342 14.1184C4.06444 15.1715 4.93934 16 6 16C7.00762 16 7.84761 15.2523 7.98033 14.2995L7.99532 14.1474L8.00042 13.9711C8.03649 12.7225 9.82713 12.6779 9.98853 13.8373L9.99958 13.9711L10.0034 14.1184C10.0644 15.1715 10.9393 16 12 16C13.0544 16 13.9182 15.1841 13.9945 14.1493L14.007 13.8668C14.131 12.7111 15.869 12.7111 15.993 13.8668L16.0055 14.1493C16.0818 15.1841 16.9456 16 18 16C19.0544 16 19.9182 15.1841 19.9945 14.1493L20 14V13C20 12.4872 19.614 12.0645 19.1166 12.0067L19 12ZM7 1C8.31948 1.87119 8.6633 3.08803 8.44889 3.88823C8.23448 4.68843 7.41197 5.1633 6.61177 4.94889C5.81157 4.73448 5.3367 3.91197 5.55111 3.11177C5.84871 2.00111 7 2.5 7 1ZM12 1C13.3195 1.87119 13.6633 3.08803 13.4489 3.88823C13.2345 4.68843 12.412 5.1633 11.6118 4.94889C10.8116 4.73448 10.3367 3.91197 10.5511 3.11177C10.8487 2.00111 12 2.5 12 1ZM17 1C18.3195 1.87119 18.6633 3.08803 18.4489 3.88823C18.2345 4.68843 17.412 5.1633 16.6118 4.94889C15.8116 4.73448 15.3367 3.91197 15.5511 3.11177C15.8487 2.00111 17 2.5 17 1Z"></path></symbol><symbol viewBox="0 0 24 24" id="cake-line"><path d="M13 6.99993V10.9999L20 10.9999C20.5523 10.9999 21 11.4476 21 11.9999V19.9999L23 19.9999V21.9999H1V19.9999L3 19.9999V11.9999C3 11.4476 3.44772 10.9999 4 10.9999L11 10.9999V6.99993H13ZM19 12.9999H5V19.9999H19V12.9999ZM13.8301 0.401855C14.6586 1.83673 14.1669 3.6715 12.7321 4.49993L11 5.49993C10.1716 4.06505 10.6632 2.23028 12.0981 1.40186L13.8301 0.401855Z"></path></symbol><symbol viewBox="0 0 24 24" id="cake-fill"><path d="M13 6.99993V10.9999L20 10.9999C20.5523 10.9999 21 11.4476 21 11.9999V19.9999L23 19.9999V21.9999H1V19.9999L3 19.9999V11.9999C3 11.4476 3.44772 10.9999 4 10.9999L11 10.9999V6.99993H13ZM13.8301 0.401855C14.6586 1.83673 14.1669 3.6715 12.7321 4.49993L11 5.49993C10.1716 4.06505 10.6632 2.23028 12.0981 1.40186L13.8301 0.401855Z"></path></symbol><symbol viewBox="0 0 24 24" id="arrow-right-line"><path d="M16.1716 10.9999L10.8076 5.63589L12.2218 4.22168L20 11.9999L12.2218 19.778L10.8076 18.3638L16.1716 12.9999H4V10.9999H16.1716Z"></path></symbol><symbol viewBox="0 0 24 24" id="arrow-left-line"><path d="M7.82843 10.9999H20V12.9999H7.82843L13.1924 18.3638L11.7782 19.778L4 11.9999L11.7782 4.22168L13.1924 5.63589L7.82843 10.9999Z"></path></symbol><symbol viewBox="0 0 24 24" id="arrow-up-line"><path d="M13.0001 7.82843V20H11.0001V7.82843L5.63614 13.1924L4.22192 11.7782L12.0001 4L19.7783 11.7782L18.3641 13.1924L13.0001 7.82843Z"></path></symbol><symbol viewBox="0 0 24 24" id="arrow-left-up-line"><path d="M9.41421 8L18.0208 16.6066L16.6066 18.0208L8 9.41421V17H6V6H17V8H9.41421Z"></path></symbol><symbol viewBox="0 0 24 24" id="arrow-right-up-line"><path d="M16.0037 9.41421L7.39712 18.0208L5.98291 16.6066L14.5895 8H7.00373V6H18.0037V17H16.0037V9.41421Z"></path></symbol><symbol viewBox="0 0 24 24" id="arrow-right-down-line"><path d="M14.5895 16.0032L5.98291 7.39664L7.39712 5.98242L16.0037 14.589V7.00324H18.0037V18.0032H7.00373V16.0032H14.5895Z"></path></symbol><symbol viewBox="0 0 24 24" id="arrow-down-line"><path d="M13.0001 16.1716L18.3641 10.8076L19.7783 12.2218L12.0001 20L4.22192 12.2218L5.63614 10.8076L11.0001 16.1716V4H13.0001V16.1716Z"></path></symbol><symbol viewBox="0 0 24 24" id="arrow-left-down-line"><path d="M9 13.589L17.6066 4.98242L19.0208 6.39664L10.4142 15.0032H18V17.0032H7V6.00324H9V13.589Z"></path></symbol><symbol viewBox="0 0 24 24" id="arrow-left-s-line"><path d="M10.8284 12.0007L15.7782 16.9504L14.364 18.3646L8 12.0007L14.364 5.63672L15.7782 7.05093L10.8284 12.0007Z"></path></symbol><symbol viewBox="0 0 24 24" id="arrow-down-s-line"><path d="M11.9999 13.1714L16.9497 8.22168L18.3639 9.63589L11.9999 15.9999L5.63599 9.63589L7.0502 8.22168L11.9999 13.1714Z"></path></symbol><symbol viewBox="0 0 24 24" id="arrow-right-s-line"><path d="M13.1717 12.0007L8.22192 7.05093L9.63614 5.63672L16.0001 12.0007L9.63614 18.3646L8.22192 16.9504L13.1717 12.0007Z"></path></symbol><symbol viewBox="0 0 24 24" id="arrow-up-s-line"><path d="M11.9999 10.8284L7.0502 15.7782L5.63599 14.364L11.9999 8L18.3639 14.364L16.9497 15.7782L11.9999 10.8284Z"></path></symbol><symbol viewBox="0 0 24 24" id="home-line"><path d="M21 20C21 20.5523 20.5523 21 20 21H4C3.44772 21 3 20.5523 3 20V9.48907C3 9.18048 3.14247 8.88917 3.38606 8.69972L11.3861 2.47749C11.7472 2.19663 12.2528 2.19663 12.6139 2.47749L20.6139 8.69972C20.8575 8.88917 21 9.18048 21 9.48907V20ZM19 19V9.97815L12 4.53371L5 9.97815V19H19Z"></path></symbol><symbol viewBox="0 0 24 24" id="home-2-line"><path d="M19 21H5C4.44772 21 4 20.5523 4 20V11L1 11L11.3273 1.6115C11.7087 1.26475 12.2913 1.26475 12.6727 1.6115L23 11L20 11V20C20 20.5523 19.5523 21 19 21ZM6 19H18V9.15745L12 3.7029L6 9.15745V19Z"></path></symbol><symbol viewBox="0 0 24 24" id="home-2-fill"><path d="M20 20C20 20.5523 19.5523 21 19 21H5C4.44772 21 4 20.5523 4 20V11L1 11L11.3273 1.6115C11.7087 1.26475 12.2913 1.26475 12.6727 1.6115L23 11L20 11V20Z"></path></symbol><symbol viewBox="0 0 24 24" id="home-fill"><path d="M21 20C21 20.5523 20.5523 21 20 21H4C3.44772 21 3 20.5523 3 20V9.48907C3 9.18048 3.14247 8.88917 3.38606 8.69972L11.3861 2.47749C11.7472 2.19663 12.2528 2.19663 12.6139 2.47749L20.6139 8.69972C20.8575 8.88917 21 9.18048 21 9.48907V20Z"></path></symbol><symbol viewBox="0 0 24 24" id="money-dollar-circle-line"><path d="M12.0049 22.0027C6.48204 22.0027 2.00488 17.5256 2.00488 12.0027C2.00488 6.4799 6.48204 2.00275 12.0049 2.00275C17.5277 2.00275 22.0049 6.4799 22.0049 12.0027C22.0049 17.5256 17.5277 22.0027 12.0049 22.0027ZM12.0049 20.0027C16.4232 20.0027 20.0049 16.421 20.0049 12.0027C20.0049 7.58447 16.4232 4.00275 12.0049 4.00275C7.5866 4.00275 4.00488 7.58447 4.00488 12.0027C4.00488 16.421 7.5866 20.0027 12.0049 20.0027ZM8.50488 14.0027H14.0049C14.281 14.0027 14.5049 13.7789 14.5049 13.5027C14.5049 13.2266 14.281 13.0027 14.0049 13.0027H10.0049C8.62417 13.0027 7.50488 11.8835 7.50488 10.5027C7.50488 9.12203 8.62417 8.00275 10.0049 8.00275H11.0049V6.00275H13.0049V8.00275H15.5049V10.0027H10.0049C9.72874 10.0027 9.50488 10.2266 9.50488 10.5027C9.50488 10.7789 9.72874 11.0027 10.0049 11.0027H14.0049C15.3856 11.0027 16.5049 12.122 16.5049 13.5027C16.5049 14.8835 15.3856 16.0027 14.0049 16.0027H13.0049V18.0027H11.0049V16.0027H8.50488V14.0027Z"></path></symbol><symbol viewBox="0 0 24 24" id="money-dollar-circle-fill"><path d="M12.0049 22.0027C6.48204 22.0027 2.00488 17.5256 2.00488 12.0027C2.00488 6.4799 6.48204 2.00275 12.0049 2.00275C17.5277 2.00275 22.0049 6.4799 22.0049 12.0027C22.0049 17.5256 17.5277 22.0027 12.0049 22.0027ZM8.50488 14.0027V16.0027H11.0049V18.0027H13.0049V16.0027H14.0049C15.3856 16.0027 16.5049 14.8835 16.5049 13.5027C16.5049 12.122 15.3856 11.0027 14.0049 11.0027H10.0049C9.72874 11.0027 9.50488 10.7789 9.50488 10.5027C9.50488 10.2266 9.72874 10.0027 10.0049 10.0027H15.5049V8.00275H13.0049V6.00275H11.0049V8.00275H10.0049C8.62417 8.00275 7.50488 9.12203 7.50488 10.5027C7.50488 11.8835 8.62417 13.0027 10.0049 13.0027H14.0049C14.281 13.0027 14.5049 13.2266 14.5049 13.5027C14.5049 13.7789 14.281 14.0027 14.0049 14.0027H8.50488Z"></path></symbol><symbol viewBox="0 0 24 24" id="menu-line"><path d="M3 4H21V6H3V4ZM3 11H21V13H3V11ZM3 18H21V20H3V18Z"></path></symbol><symbol viewBox="0 0 24 24" id="phone-fill"><path d="M21 16.42V19.9561C21 20.4811 20.5941 20.9167 20.0705 20.9537C19.6331 20.9846 19.2763 21 19 21C10.1634 21 3 13.8366 3 5C3 4.72371 3.01545 4.36687 3.04635 3.9295C3.08337 3.40588 3.51894 3 4.04386 3H7.5801C7.83678 3 8.05176 3.19442 8.07753 3.4498C8.10067 3.67907 8.12218 3.86314 8.14207 4.00202C8.34435 5.41472 8.75753 6.75936 9.3487 8.00303C9.44359 8.20265 9.38171 8.44159 9.20185 8.57006L7.04355 10.1118C8.35752 13.1811 10.8189 15.6425 13.8882 16.9565L15.4271 14.8019C15.5572 14.6199 15.799 14.5573 16.001 14.6532C17.2446 15.2439 18.5891 15.6566 20.0016 15.8584C20.1396 15.8782 20.3225 15.8995 20.5502 15.9225C20.8056 15.9483 21 16.1633 21 16.42Z"></path></symbol><symbol viewBox="0 0 24 24" id="phone-line"><path d="M9.36556 10.6821C10.302 12.3288 11.6712 13.698 13.3179 14.6344L14.2024 13.3961C14.4965 12.9845 15.0516 12.8573 15.4956 13.0998C16.9024 13.8683 18.4571 14.3353 20.0789 14.4637C20.599 14.5049 21 14.9389 21 15.4606V19.9234C21 20.4361 20.6122 20.8657 20.1022 20.9181C19.5723 20.9726 19.0377 21 18.5 21C9.93959 21 3 14.0604 3 5.5C3 4.96227 3.02742 4.42771 3.08189 3.89776C3.1343 3.38775 3.56394 3 4.07665 3H8.53942C9.0611 3 9.49513 3.40104 9.5363 3.92109C9.66467 5.54288 10.1317 7.09764 10.9002 8.50444C11.1427 8.9484 11.0155 9.50354 10.6039 9.79757L9.36556 10.6821ZM6.84425 10.0252L8.7442 8.66809C8.20547 7.50514 7.83628 6.27183 7.64727 5H5.00907C5.00303 5.16632 5 5.333 5 5.5C5 12.9558 11.0442 19 18.5 19C18.667 19 18.8337 18.997 19 18.9909V16.3527C17.7282 16.1637 16.4949 15.7945 15.3319 15.2558L13.9748 17.1558C13.4258 16.9425 12.8956 16.6915 12.3874 16.4061L12.3293 16.373C10.3697 15.2587 8.74134 13.6303 7.627 11.6707L7.59394 11.6126C7.30849 11.1044 7.05754 10.5742 6.84425 10.0252Z"></path></symbol><symbol viewBox="0 0 24 24" id="settings-3-line"><path d="M3.33946 17.0002C2.90721 16.2515 2.58277 15.4702 2.36133 14.6741C3.3338 14.1779 3.99972 13.1668 3.99972 12.0002C3.99972 10.8345 3.3348 9.824 2.36353 9.32741C2.81025 7.71651 3.65857 6.21627 4.86474 4.99001C5.7807 5.58416 6.98935 5.65534 7.99972 5.072C9.01009 4.48866 9.55277 3.40635 9.4962 2.31604C11.1613 1.8846 12.8847 1.90004 14.5031 2.31862C14.4475 3.40806 14.9901 4.48912 15.9997 5.072C17.0101 5.65532 18.2187 5.58416 19.1346 4.99007C19.7133 5.57986 20.2277 6.25151 20.66 7.00021C21.0922 7.7489 21.4167 8.53025 21.6381 9.32628C20.6656 9.82247 19.9997 10.8336 19.9997 12.0002C19.9997 13.166 20.6646 14.1764 21.6359 14.673C21.1892 16.2839 20.3409 17.7841 19.1347 19.0104C18.2187 18.4163 17.0101 18.3451 15.9997 18.9284C14.9893 19.5117 14.4467 20.5941 14.5032 21.6844C12.8382 22.1158 11.1148 22.1004 9.49633 21.6818C9.55191 20.5923 9.00929 19.5113 7.99972 18.9284C6.98938 18.3451 5.78079 18.4162 4.86484 19.0103C4.28617 18.4205 3.77172 17.7489 3.33946 17.0002ZM8.99972 17.1964C10.0911 17.8265 10.8749 18.8227 11.2503 19.9659C11.7486 20.0133 12.2502 20.014 12.7486 19.9675C13.1238 18.8237 13.9078 17.8268 14.9997 17.1964C16.0916 16.5659 17.347 16.3855 18.5252 16.6324C18.8146 16.224 19.0648 15.7892 19.2729 15.334C18.4706 14.4373 17.9997 13.2604 17.9997 12.0002C17.9997 10.74 18.4706 9.5632 19.2729 8.6665C19.1688 8.4405 19.0538 8.21822 18.9279 8.00021C18.802 7.78219 18.667 7.57148 18.5233 7.36842C17.3457 7.61476 16.0911 7.43414 14.9997 6.80405C13.9083 6.17395 13.1246 5.17768 12.7491 4.03455C12.2509 3.98714 11.7492 3.98646 11.2509 4.03292C10.8756 5.17671 10.0916 6.17364 8.99972 6.80405C7.9078 7.43447 6.65245 7.61494 5.47428 7.36803C5.18485 7.77641 4.93463 8.21117 4.72656 8.66637C5.52881 9.56311 5.99972 10.74 5.99972 12.0002C5.99972 13.2604 5.52883 14.4372 4.72656 15.3339C4.83067 15.5599 4.94564 15.7822 5.07152 16.0002C5.19739 16.2182 5.3324 16.4289 5.47612 16.632C6.65377 16.3857 7.90838 16.5663 8.99972 17.1964ZM11.9997 15.0002C10.3429 15.0002 8.99972 13.6571 8.99972 12.0002C8.99972 10.3434 10.3429 9.00021 11.9997 9.00021C13.6566 9.00021 14.9997 10.3434 14.9997 12.0002C14.9997 13.6571 13.6566 15.0002 11.9997 15.0002ZM11.9997 13.0002C12.552 13.0002 12.9997 12.5525 12.9997 12.0002C12.9997 11.4479 12.552 11.0002 11.9997 11.0002C11.4474 11.0002 10.9997 11.4479 10.9997 12.0002C10.9997 12.5525 11.4474 13.0002 11.9997 13.0002Z"></path></symbol><symbol viewBox="0 0 24 24" id="settings-4-line"><path d="M2 11.9998C2 11.1353 2.1097 10.2964 2.31595 9.49631C3.40622 9.55283 4.48848 9.01015 5.0718 7.99982C5.65467 6.99025 5.58406 5.78271 4.99121 4.86701C6.18354 3.69529 7.66832 2.82022 9.32603 2.36133C9.8222 3.33385 10.8333 3.99982 12 3.99982C13.1667 3.99982 14.1778 3.33385 14.674 2.36133C16.3317 2.82022 17.8165 3.69529 19.0088 4.86701C18.4159 5.78271 18.3453 6.99025 18.9282 7.99982C19.5115 9.01015 20.5938 9.55283 21.6841 9.49631C21.8903 10.2964 22 11.1353 22 11.9998C22 12.8643 21.8903 13.7032 21.6841 14.5033C20.5938 14.4468 19.5115 14.9895 18.9282 15.9998C18.3453 17.0094 18.4159 18.2169 19.0088 19.1326C17.8165 20.3043 16.3317 21.1794 14.674 21.6383C14.1778 20.6658 13.1667 19.9998 12 19.9998C10.8333 19.9998 9.8222 20.6658 9.32603 21.6383C7.66832 21.1794 6.18354 20.3043 4.99121 19.1326C5.58406 18.2169 5.65467 17.0094 5.0718 15.9998C4.48848 14.9895 3.40622 14.4468 2.31595 14.5033C2.1097 13.7032 2 12.8643 2 11.9998ZM6.80385 14.9998C7.43395 16.0912 7.61458 17.3459 7.36818 18.5236C7.77597 18.8138 8.21005 19.0652 8.66489 19.2741C9.56176 18.4712 10.7392 17.9998 12 17.9998C13.2608 17.9998 14.4382 18.4712 15.3351 19.2741C15.7899 19.0652 16.224 18.8138 16.6318 18.5236C16.3854 17.3459 16.566 16.0912 17.1962 14.9998C17.8262 13.9085 18.8225 13.1248 19.9655 12.7493C19.9884 12.5015 20 12.2516 20 11.9998C20 11.7481 19.9884 11.4981 19.9655 11.2504C18.8225 10.8749 17.8262 10.0912 17.1962 8.99982C16.566 7.90845 16.3854 6.65378 16.6318 5.47605C16.224 5.18588 15.7899 4.93447 15.3351 4.72552C14.4382 5.52844 13.2608 5.99982 12 5.99982C10.7392 5.99982 9.56176 5.52844 8.66489 4.72552C8.21005 4.93447 7.77597 5.18588 7.36818 5.47605C7.61458 6.65378 7.43395 7.90845 6.80385 8.99982C6.17376 10.0912 5.17754 10.8749 4.03451 11.2504C4.01157 11.4981 4 11.7481 4 11.9998C4 12.2516 4.01157 12.5015 4.03451 12.7493C5.17754 13.1248 6.17376 13.9085 6.80385 14.9998ZM12 14.9998C10.3431 14.9998 9 13.6567 9 11.9998C9 10.343 10.3431 8.99982 12 8.99982C13.6569 8.99982 15 10.343 15 11.9998C15 13.6567 13.6569 14.9998 12 14.9998ZM12 12.9998C12.5523 12.9998 13 12.5521 13 11.9998C13 11.4475 12.5523 10.9998 12 10.9998C11.4477 10.9998 11 11.4475 11 11.9998C11 12.5521 11.4477 12.9998 12 12.9998Z"></path></symbol><symbol viewBox="0 0 24 24" id="settings-4-fill"><path d="M5.33409 4.54491C6.3494 3.63637 7.55145 2.9322 8.87555 2.49707C9.60856 3.4128 10.7358 3.99928 12 3.99928C13.2642 3.99928 14.3914 3.4128 15.1245 2.49707C16.4486 2.9322 17.6506 3.63637 18.6659 4.54491C18.2405 5.637 18.2966 6.90531 18.9282 7.99928C19.5602 9.09388 20.6314 9.77679 21.7906 9.95392C21.9279 10.6142 22 11.2983 22 11.9993C22 12.7002 21.9279 13.3844 21.7906 14.0446C20.6314 14.2218 19.5602 14.9047 18.9282 15.9993C18.2966 17.0932 18.2405 18.3616 18.6659 19.4536C17.6506 20.3622 16.4486 21.0664 15.1245 21.5015C14.3914 20.5858 13.2642 19.9993 12 19.9993C10.7358 19.9993 9.60856 20.5858 8.87555 21.5015C7.55145 21.0664 6.3494 20.3622 5.33409 19.4536C5.75952 18.3616 5.7034 17.0932 5.0718 15.9993C4.43983 14.9047 3.36862 14.2218 2.20935 14.0446C2.07212 13.3844 2 12.7002 2 11.9993C2 11.2983 2.07212 10.6142 2.20935 9.95392C3.36862 9.77679 4.43983 9.09388 5.0718 7.99928C5.7034 6.90531 5.75952 5.637 5.33409 4.54491ZM13.5 14.5974C14.9349 13.7689 15.4265 11.9342 14.5981 10.4993C13.7696 9.0644 11.9349 8.57277 10.5 9.4012C9.06512 10.2296 8.5735 12.0644 9.40192 13.4993C10.2304 14.9342 12.0651 15.4258 13.5 14.5974Z"></path></symbol><symbol viewBox="0 0 24 24" id="settings-3-fill"><path d="M9.95401 2.2106C11.2876 1.93144 12.6807 1.92263 14.0449 2.20785C14.2219 3.3674 14.9048 4.43892 15.9997 5.07103C17.0945 5.70313 18.364 5.75884 19.4566 5.3323C20.3858 6.37118 21.0747 7.58203 21.4997 8.87652C20.5852 9.60958 19.9997 10.736 19.9997 11.9992C19.9997 13.2632 20.5859 14.3902 21.5013 15.1232C21.29 15.7636 21.0104 16.3922 20.6599 16.9992C20.3094 17.6063 19.9049 18.1627 19.4559 18.6659C18.3634 18.2396 17.0943 18.2955 15.9997 18.9274C14.9057 19.559 14.223 20.6294 14.0453 21.7879C12.7118 22.067 11.3187 22.0758 9.95443 21.7906C9.77748 20.6311 9.09451 19.5595 7.99967 18.9274C6.90484 18.2953 5.63539 18.2396 4.54272 18.6662C3.61357 17.6273 2.92466 16.4164 2.49964 15.1219C3.41412 14.3889 3.99968 13.2624 3.99968 11.9992C3.99968 10.7353 3.41344 9.60827 2.49805 8.87524C2.70933 8.23482 2.98894 7.60629 3.33942 6.99923C3.68991 6.39217 4.09443 5.83576 4.54341 5.33257C5.63593 5.75881 6.90507 5.703 7.99967 5.07103C9.09364 4.43942 9.7764 3.3691 9.95401 2.2106ZM11.9997 14.9992C13.6565 14.9992 14.9997 13.6561 14.9997 11.9992C14.9997 10.3424 13.6565 8.99923 11.9997 8.99923C10.3428 8.99923 8.99967 10.3424 8.99967 11.9992C8.99967 13.6561 10.3428 14.9992 11.9997 14.9992Z"></path></symbol><symbol viewBox="0 0 24 24" id="logout-box-r-line"><path d="M5 22C4.44772 22 4 21.5523 4 21V3C4 2.44772 4.44772 2 5 2H19C19.5523 2 20 2.44772 20 3V6H18V4H6V20H18V18H20V21C20 21.5523 19.5523 22 19 22H5ZM18 16V13H11V11H18V8L23 12L18 16Z"></path></symbol><symbol viewBox="0 0 24 24" id="logout-box-r-fill"><path d="M5 22C4.44772 22 4 21.5523 4 21V3C4 2.44772 4.44772 2 5 2H19C19.5523 2 20 2.44772 20 3V21C20 21.5523 19.5523 22 19 22H5ZM15 16L20 12L15 8V11H9V13H15V16Z"></path></symbol><symbol viewBox="0 0 24 24" id="logout-circle-r-line"><path d="M12 22C6.47715 22 2 17.5228 2 12C2 6.47715 6.47715 2 12 2C15.2713 2 18.1757 3.57078 20.0002 5.99923L17.2909 5.99931C15.8807 4.75499 14.0285 4 12 4C7.58172 4 4 7.58172 4 12C4 16.4183 7.58172 20 12 20C14.029 20 15.8816 19.2446 17.2919 17.9998L20.0009 17.9998C18.1765 20.4288 15.2717 22 12 22ZM19 16V13H11V11H19V8L24 12L19 16Z"></path></symbol><symbol viewBox="0 0 24 24" id="logout-circle-r-fill"><path d="M12 22C6.47715 22 2 17.5228 2 12C2 6.47715 6.47715 2 12 2C17.5228 2 22 6.47715 22 12C22 17.5228 17.5228 22 12 22ZM17 16L22 12L17 8V11H9V13H17V16Z"></path></symbol><symbol viewBox="0 0 24 24" id="search-line"><path d="M18.031 16.6168L22.3137 20.8995L20.8995 22.3137L16.6168 18.031C15.0769 19.263 13.124 20 11 20C6.032 20 2 15.968 2 11C2 6.032 6.032 2 11 2C15.968 2 20 6.032 20 11C20 13.124 19.263 15.0769 18.031 16.6168ZM16.0247 15.8748C17.2475 14.6146 18 12.8956 18 11C18 7.1325 14.8675 4 11 4C7.1325 4 4 7.1325 4 11C4 14.8675 7.1325 18 11 18C12.8956 18 14.6146 17.2475 15.8748 16.0247L16.0247 15.8748Z"></path></symbol><symbol viewBox="0 0 24 24" id="eye-off-line"><path d="M17.8827 19.2968C16.1814 20.3755 14.1638 21.0002 12.0003 21.0002C6.60812 21.0002 2.12215 17.1204 1.18164 12.0002C1.61832 9.62282 2.81932 7.5129 4.52047 5.93457L1.39366 2.80777L2.80788 1.39355L22.6069 21.1925L21.1927 22.6068L17.8827 19.2968ZM5.9356 7.3497C4.60673 8.56015 3.6378 10.1672 3.22278 12.0002C4.14022 16.0521 7.7646 19.0002 12.0003 19.0002C13.5997 19.0002 15.112 18.5798 16.4243 17.8384L14.396 15.8101C13.7023 16.2472 12.8808 16.5002 12.0003 16.5002C9.51498 16.5002 7.50026 14.4854 7.50026 12.0002C7.50026 11.1196 7.75317 10.2981 8.19031 9.60442L5.9356 7.3497ZM12.9139 14.328L9.67246 11.0866C9.5613 11.3696 9.50026 11.6777 9.50026 12.0002C9.50026 13.3809 10.6196 14.5002 12.0003 14.5002C12.3227 14.5002 12.6309 14.4391 12.9139 14.328ZM20.8068 16.5925L19.376 15.1617C20.0319 14.2268 20.5154 13.1586 20.7777 12.0002C19.8603 7.94818 16.2359 5.00016 12.0003 5.00016C11.1544 5.00016 10.3329 5.11773 9.55249 5.33818L7.97446 3.76015C9.22127 3.26959 10.5793 3.00016 12.0003 3.00016C17.3924 3.00016 21.8784 6.87992 22.8189 12.0002C22.5067 13.6998 21.8038 15.2628 20.8068 16.5925ZM11.7229 7.50857C11.8146 7.50299 11.9071 7.50016 12.0003 7.50016C14.4855 7.50016 16.5003 9.51488 16.5003 12.0002C16.5003 12.0933 16.4974 12.1858 16.4919 12.2775L11.7229 7.50857Z"></path></symbol><symbol viewBox="0 0 24 24" id="eye-off-fill"><path d="M4.52047 5.93457L1.39366 2.80777L2.80788 1.39355L22.6069 21.1925L21.1927 22.6068L17.8827 19.2968C16.1814 20.3755 14.1638 21.0002 12.0003 21.0002C6.60812 21.0002 2.12215 17.1204 1.18164 12.0002C1.61832 9.62282 2.81932 7.5129 4.52047 5.93457ZM14.7577 16.1718L13.2937 14.7078C12.902 14.8952 12.4634 15.0002 12.0003 15.0002C10.3434 15.0002 9.00026 13.657 9.00026 12.0002C9.00026 11.537 9.10522 11.0984 9.29263 10.7067L7.82866 9.24277C7.30514 10.0332 7.00026 10.9811 7.00026 12.0002C7.00026 14.7616 9.23884 17.0002 12.0003 17.0002C13.0193 17.0002 13.9672 16.6953 14.7577 16.1718ZM7.97446 3.76015C9.22127 3.26959 10.5793 3.00016 12.0003 3.00016C17.3924 3.00016 21.8784 6.87992 22.8189 12.0002C22.5067 13.6998 21.8038 15.2628 20.8068 16.5925L16.947 12.7327C16.9821 12.4936 17.0003 12.249 17.0003 12.0002C17.0003 9.23873 14.7617 7.00016 12.0003 7.00016C11.7514 7.00016 11.5068 7.01833 11.2677 7.05343L7.97446 3.76015Z"></path></symbol><symbol viewBox="0 0 24 24" id="eye-line"><path d="M12.0003 3C17.3924 3 21.8784 6.87976 22.8189 12C21.8784 17.1202 17.3924 21 12.0003 21C6.60812 21 2.12215 17.1202 1.18164 12C2.12215 6.87976 6.60812 3 12.0003 3ZM12.0003 19C16.2359 19 19.8603 16.052 20.7777 12C19.8603 7.94803 16.2359 5 12.0003 5C7.7646 5 4.14022 7.94803 3.22278 12C4.14022 16.052 7.7646 19 12.0003 19ZM12.0003 16.5C9.51498 16.5 7.50026 14.4853 7.50026 12C7.50026 9.51472 9.51498 7.5 12.0003 7.5C14.4855 7.5 16.5003 9.51472 16.5003 12C16.5003 14.4853 14.4855 16.5 12.0003 16.5ZM12.0003 14.5C13.381 14.5 14.5003 13.3807 14.5003 12C14.5003 10.6193 13.381 9.5 12.0003 9.5C10.6196 9.5 9.50026 10.6193 9.50026 12C9.50026 13.3807 10.6196 14.5 12.0003 14.5Z"></path></symbol><symbol viewBox="0 0 24 24" id="eye-fill"><path d="M1.18164 12C2.12215 6.87976 6.60812 3 12.0003 3C17.3924 3 21.8784 6.87976 22.8189 12C21.8784 17.1202 17.3924 21 12.0003 21C6.60812 21 2.12215 17.1202 1.18164 12ZM12.0003 17C14.7617 17 17.0003 14.7614 17.0003 12C17.0003 9.23858 14.7617 7 12.0003 7C9.23884 7 7.00026 9.23858 7.00026 12C7.00026 14.7614 9.23884 17 12.0003 17ZM12.0003 15C10.3434 15 9.00026 13.6569 9.00026 12C9.00026 10.3431 10.3434 9 12.0003 9C13.6571 9 15.0003 10.3431 15.0003 12C15.0003 13.6569 13.6571 15 12.0003 15Z"></path></symbol></svg>