<svg xmlns="http://www.w3.org/2000/svg" version="1.1" xmlns:xlink="http://www.w3.org/1999/xlink" xmlns:svgjs="http://svgjs.dev/svgjs" width="1500" height="333" viewBox="0 0 1500 333"><g transform="matrix(1,0,0,1,-0.9090909090909918,-0.6937361794998651)"><svg viewBox="0 0 396 88" data-background-color="#ffffff" preserveAspectRatio="xMidYMid meet" height="333" width="1500" xmlns="http://www.w3.org/2000/svg" xmlns:xlink="http://www.w3.org/1999/xlink"><g id="tight-bounds" transform="matrix(1,0,0,1,0.2400000000000091,0.18360298425102428)"><svg viewBox="0 0 395.52 87.63286138066373" height="87.63286138066373" width="395.52"><g><svg viewBox="0 0 551.6052425085595 122.21567999999999" height="87.63286138066373" width="395.52"><g transform="matrix(1,0,0,1,156.08524250855947,20.188330838580377)"><svg viewBox="0 0 395.52 81.83901832283924" height="81.83901832283924" width="395.52"><g id="textblocktransform"><svg viewBox="0 0 395.52 81.83901832283924" height="81.83901832283924" width="395.52" id="textblock"><g><svg viewBox="0 0 395.52 57.38755741127348" height="57.38755741127348" width="395.52"><g transform="matrix(1,0,0,1,0,0)"><svg width="395.52" viewBox="0.7 -29.6 335.26 48.650000000000006" height="57.38755741127348" data-palette-color="#55328b"><path d="M32.25-26.4L32.25-26.4Q32.25-25.3 31.35-23.85L31.35-23.85Q30.6-22.5 29.68-22 28.75-21.5 28.75-22.1L28.75-22.1Q28.75-22.15 29.3-22.7L29.3-22.7Q30.95-24.25 30.95-25.25L30.95-25.25Q30.95-27.4 26.7-27.4L26.7-27.4Q24.9-27.4 21.95-26.73 19-26.05 16.25-24.55L16.25-24.55Q13.05-22.8 13.05-21.5L13.05-21.5Q13.05-20.45 15-19.5L15-19.5Q16.05-19 19.18-17.82 22.3-16.65 24.23-15.78 26.15-14.9 27.88-13.3 29.6-11.7 29.6-9.75 29.6-7.8 27.3-5.5L27.3-5.5Q23.8-2.15 18.2 0.08 12.6 2.3 8.6 2.3L8.6 2.3Q0.7 2.3 0.7-2.15 0.7-6.6 5.55-9.7L5.55-9.7Q9.55-12.45 13.95-12.45L13.95-12.45Q15-12.45 14.9-12.1L14.9-12.1Q14.8-11.75 13.4-11.73 12-11.7 9.8-10.78 7.6-9.85 5.7-8.1L5.7-8.1Q3.2-5.85 3.2-3.6L3.2-3.6Q3.2-2.2 4.55-1.1 5.9 0 9.7 0 13.5 0 17.2-1.2L17.2-1.2Q25.2-3.85 27.2-7L27.2-7Q28-8.15 28-8.95L28-8.95Q28-11.25 25.2-12.55L25.2-12.55Q21.95-14.05 16.1-16L16.1-16Q13.85-16.75 12.28-17.98 10.7-19.2 10.7-20.93 10.7-22.65 12.58-24.33 14.45-26 17.1-27L17.1-27Q22.8-29.15 26.75-29.15L26.75-29.15Q32.25-29.15 32.25-26.4ZM48.75-29.25L48.75-29.25Q49.65-29.6 50.3-29.6L50.3-29.6Q52.5-29.6 53.2-28.4L53.2-28.4Q53.6-27.8 53.6-27.35L53.6-27.35Q53.6-23.95 47.9-18.8L47.9-18.8Q42.85-14.35 38.6-11.15L38.6-11.15Q37.2-8 35.7-3.4L35.7-3.4Q37.5-5.6 40.25-8.5L40.25-8.5Q45.8-14.25 48-14.25L48-14.25Q49.1-14.25 49.15-13.15L49.15-13.15Q49.25-12 48.67-10.95 48.1-9.9 47.6-9L47.6-9Q45.25-5.1 45.25-2.05L45.25-2.05Q45.25-1.05 45.65-0.6L45.65-0.6Q46.35 0.2 47.65-0.5 48.95-1.2 51.27-3.3 53.6-5.4 55.05-7.4L55.05-7.4Q55.3-7.65 55.52-7.53 55.75-7.4 55.75-7.28 55.75-7.15 55.65-7L55.65-7Q54.9-5.65 52.95-3.58 51-1.5 49.8-0.6L49.8-0.6Q47.5 1.15 45.4 1.15L45.4 1.15Q43.5 1.15 42.85-0.75L42.85-0.75Q42.7-1.2 42.7-1.83 42.7-2.45 42.8-3.15L42.8-3.15Q43.05-5.25 45.45-9.7L45.45-9.7Q45.95-10.6 45.95-10.98 45.95-11.35 45.55-11.35L45.55-11.35Q44.75-11.35 42.45-9.35L42.45-9.35Q40.9-7.9 37.87-3.88 34.85 0.15 34.45 0.4L34.45 0.4Q32.65 1.3 32.22 1.3 31.8 1.3 31.75 1.18 31.7 1.05 31.8 0.85 31.9 0.65 32.6-1.35L32.6-1.35Q34.95-8 35.8-10.15L35.8-10.15Q34.15-8.05 31.7-5.4L31.7-5.4Q31.3-5 31.3-5.58 31.3-6.15 31.75-6.75 32.2-7.35 33.62-9.08 35.05-10.8 35.65-11.65L35.65-11.65Q35.2-11.9 35.17-12.35 35.15-12.8 35.47-12.98 35.8-13.15 36.55-12.85L36.55-12.85Q37.05-13.55 37.45-14.4L37.45-14.4Q43.4-27.2 48.75-29.25ZM51.55-25.5L51.55-25.5Q52.2-26.7 52.2-27.53 52.2-28.35 51.47-28.35 50.75-28.35 49.55-27.45L49.55-27.45Q44.05-23.25 39.6-13.4L39.6-13.4Q42.85-15.5 46.4-19 49.95-22.5 51.55-25.5ZM65.95-14.55L65.95-14.55Q68.65-14.55 68.65-11.95L68.65-11.95Q68.65-10.6 67.9-9.75L67.9-9.75Q66.65-7.9 63.85-6.53 61.05-5.15 59.1-5L59.1-5Q58.4-4.95 58.35-5.4L58.35-5.4Q58.3-5.6 58.47-5.65 58.65-5.7 58.75-5.7L58.75-5.7Q59.9-5.8 61.7-6.8L61.7-6.8Q65.05-8.6 66.59-10.5L66.59-10.5Q67.25-11.4 67.25-12.23 67.25-13.05 66.45-13.05L66.45-13.05Q65.8-13.05 64.7-12.5L64.7-12.5Q62.35-11.4 59.75-8.68 57.15-5.95 56.35-3.35L56.35-3.35Q56.1-2.55 56.1-1.78 56.1-1 56.75-0.3 57.4 0.4 58.75 0.4L58.75 0.4Q60.25 0.4 62.2-0.4L62.2-0.4Q67.84-2.7 70.9-7.35L70.9-7.35Q71.2-7.75 71.45-7.5L71.45-7.5Q71.65-7.4 71.65-7.25 71.65-7.1 71.5-6.9L71.5-6.9Q70-4.4 67.7-2.45L67.7-2.45Q63.25 1.35 59.05 1.35L59.05 1.35Q55.45 1.35 54-0.8L54-0.8Q53.45-1.65 53.45-2.85 53.45-4.05 54.1-5.7L54.1-5.7Q55.35-8.55 59.45-11.55 63.55-14.55 65.95-14.55ZM76.94 1.25L76.94 1.25Q74.39 1.25 74.39-1.83 74.39-4.9 78.79-9.4L78.79-9.4Q79.14-9.75 79.29-9.95L79.29-9.95 79.64-10.45Q80.34-11.4 80.29-11.65L80.29-11.65 80.14-12.1Q79.94-12.7 78.49-12.98 77.04-13.25 76.14-13.25L76.14-13.25Q71.64-6.9 70.94-6 70.24-5.1 69.99-5.25 69.74-5.4 69.74-5.6 69.74-5.8 70.04-6.2L70.04-6.2Q72.74-9.5 74.69-13.25L74.69-13.25Q74.09-13.35 73.79-13.68 73.49-14 73.74-14.78 73.99-15.55 75.27-16.85 76.54-18.15 77.49-18.6 78.44-19.05 78.69-19.15 78.94-19.25 79.24-19.25L79.24-19.25Q79.84-19.25 78.84-17.45L78.84-17.45 76.89-14.35Q79.14-14.2 80.74-14.2L80.74-14.2 82.49-14.25Q83.34-14.25 83.74-14.03 84.14-13.8 83.94-13.25L83.94-13.25Q83.59-12.3 82.19-10.7L82.19-10.7Q79.19-7.2 77.69-3.25L77.69-3.25Q77.34-2.3 77.34-1.6L77.34-1.6Q77.34-0.15 78.39-0.15L78.39-0.15Q78.74-0.15 79.72-0.7 80.69-1.25 82.99-3.33 85.29-5.4 86.69-7.4L86.69-7.4Q86.89-7.65 87.17-7.53 87.44-7.4 87.44-7.28 87.44-7.15 87.34-7L87.34-7Q86.59-5.65 84.64-3.55 82.69-1.45 80.84-0.15L80.84-0.15Q79.04 1.25 76.94 1.25ZM92.69 1.25L92.69 1.25Q90.14 1.25 90.14-1.83 90.14-4.9 94.54-9.4L94.54-9.4Q94.89-9.75 95.04-9.95L95.04-9.95 95.39-10.45Q96.09-11.4 96.04-11.65L96.04-11.65 95.89-12.1Q95.69-12.7 94.24-12.98 92.79-13.25 91.89-13.25L91.89-13.25Q87.39-6.9 86.69-6 85.99-5.1 85.74-5.25 85.49-5.4 85.49-5.6 85.49-5.8 85.79-6.2L85.79-6.2Q88.49-9.5 90.44-13.25L90.44-13.25Q89.84-13.35 89.54-13.68 89.24-14 89.49-14.78 89.74-15.55 91.02-16.85 92.29-18.15 93.24-18.6 94.19-19.05 94.44-19.15 94.69-19.25 94.99-19.25L94.99-19.25Q95.59-19.25 94.59-17.45L94.59-17.45 92.64-14.35Q94.89-14.2 96.49-14.2L96.49-14.2 98.24-14.25Q99.09-14.25 99.49-14.03 99.89-13.8 99.69-13.25L99.69-13.25Q99.34-12.3 97.94-10.7L97.94-10.7Q94.94-7.2 93.44-3.25L93.44-3.25Q93.09-2.3 93.09-1.6L93.09-1.6Q93.09-0.15 94.14-0.15L94.14-0.15Q94.49-0.15 95.47-0.7 96.44-1.25 98.74-3.33 101.04-5.4 102.44-7.4L102.44-7.4Q102.64-7.65 102.92-7.53 103.19-7.4 103.19-7.28 103.19-7.15 103.09-7L103.09-7Q102.34-5.65 100.39-3.55 98.44-1.45 96.59-0.15L96.59-0.15Q94.79 1.25 92.69 1.25ZM100.49 19.05L100.49 19.05Q100.09 19.05 99.49 18.9L99.49 18.9Q96.94 18.25 96.94 16.23 96.94 14.2 99.56 11.15 102.19 8.1 110.64 2.5L110.64 2.5Q115.34-7.1 116.59-10.95L116.59-10.95Q115.99-10.25 114.24-7.93 112.49-5.6 111.14-3.98 109.79-2.35 107.89-0.9 105.99 0.55 104.39 0.55 102.79 0.55 101.91-0.18 101.04-0.9 100.94-1.7 100.84-2.5 100.84-3.05L100.84-3.05Q100.84-4.9 101.84-6.75L101.84-6.75Q103.34-9.8 105.89-12L105.89-12Q106.84-12.9 107.56-12.9 108.29-12.9 108.89-12.45L108.89-12.45Q109.54-11.75 109.29-11.25L109.29-11.25Q107.39-10.15 104.94-7L104.94-7Q103.64-5.3 103.14-2.7L103.14-2.7Q103.09-2.35 103.09-1.83 103.09-1.3 103.51-0.98 103.94-0.65 104.39-0.65L104.39-0.65Q105.94-0.65 107.64-2.3 109.34-3.95 110.89-5.78 112.44-7.6 114.41-10.15 116.39-12.7 117.01-13.5 117.64-14.3 118.29-14.3L118.29-14.3Q119.09-14.3 119.94-13.85 120.79-13.4 120.66-13.15 120.54-12.9 118.11-7.48 115.69-2.05 114.59 0.3L114.59 0.3Q115.79-0.35 118.66-2.78 121.54-5.2 123.54-7.7L123.54-7.7Q124.04-8.3 124.19-7.8L124.19-7.8Q124.24-7.7 124.24-7.48 124.24-7.25 123.94-6.85L123.94-6.85Q122.39-4.8 118.99-1.7 115.59 1.4 113.59 2.5L113.59 2.5Q109.34 11.25 107.89 13.5L107.89 13.5Q104.14 19.05 100.49 19.05ZM109.69 4.4L109.69 4.4Q103.69 8.9 101.11 11.5 98.54 14.1 98.54 15.98 98.54 17.85 99.84 17.85L99.84 17.85Q100.84 17.85 102.14 16.82 103.44 15.8 104.64 14.1 105.84 12.4 106.46 11.18 107.09 9.95 108.19 7.58 109.29 5.2 109.69 4.4ZM163.83-26.4L163.83-26.4Q163.83-25.3 162.93-23.85L162.93-23.85Q162.18-22.5 161.26-22 160.33-21.5 160.33-22.1L160.33-22.1Q160.33-22.15 160.88-22.7L160.88-22.7Q162.53-24.25 162.53-25.25L162.53-25.25Q162.53-27.4 158.28-27.4L158.28-27.4Q156.48-27.4 153.53-26.73 150.58-26.05 147.83-24.55L147.83-24.55Q144.63-22.8 144.63-21.5L144.63-21.5Q144.63-20.45 146.58-19.5L146.58-19.5Q147.63-19 150.76-17.82 153.88-16.65 155.81-15.78 157.73-14.9 159.46-13.3 161.18-11.7 161.18-9.75 161.18-7.8 158.88-5.5L158.88-5.5Q155.38-2.15 149.78 0.08 144.18 2.3 140.18 2.3L140.18 2.3Q132.28 2.3 132.28-2.15 132.28-6.6 137.13-9.7L137.13-9.7Q141.13-12.45 145.53-12.45L145.53-12.45Q146.58-12.45 146.48-12.1L146.48-12.1Q146.38-11.75 144.98-11.73 143.58-11.7 141.38-10.78 139.18-9.85 137.28-8.1L137.28-8.1Q134.78-5.85 134.78-3.6L134.78-3.6Q134.78-2.2 136.13-1.1 137.48 0 141.28 0 145.08 0 148.78-1.2L148.78-1.2Q156.78-3.85 158.78-7L158.78-7Q159.58-8.15 159.58-8.95L159.58-8.95Q159.58-11.25 156.78-12.55L156.78-12.55Q153.53-14.05 147.68-16L147.68-16Q145.43-16.75 143.86-17.98 142.28-19.2 142.28-20.93 142.28-22.65 144.16-24.33 146.03-26 148.68-27L148.68-27Q154.38-29.15 158.33-29.15L158.33-29.15Q163.83-29.15 163.83-26.4ZM170.86-12.5Q170.13-11.9 168.21-9.38 166.28-6.85 165.56-4.9 164.83-2.95 164.83-1.7 164.83-0.45 165.91-0.45 166.98-0.45 168.93-2L168.93-2Q172.08-4.6 176.03-11.65L176.03-11.65Q176.23-12 176.75-12 177.28-12 178.21-11.73 179.13-11.45 179.13-11L179.13-11Q179.13-10.85 179.03-10.7L179.03-10.7Q176.93-7.3 176.38-3L176.38-3Q176.18-1.55 176.88-0.65L176.88-0.65Q177.53 0.25 179.53-0.85L179.53-0.85Q182.63-2.4 185.21-5.7 187.78-9 188.38-11.65L188.38-11.65Q188.58-12.2 188.58-12.85L188.58-12.85Q188.58-15.65 186.98-16.25L186.98-16.25Q186.53-16.45 185.98-16.38 185.43-16.3 185.33-16.43 185.23-16.55 185.28-16.7L185.28-16.7Q185.38-17.15 187.33-17.15L187.33-17.15Q190.58-17.15 190.58-13.8 190.58-10.45 186.78-5.75L186.78-5.75Q184.38-2.9 181.13-0.5L181.13-0.5Q179.33 0.75 177.38 0.75L177.38 0.75Q174.83 0.75 174.23-1.15L174.23-1.15Q173.88-2.05 173.88-4 173.88-5.95 174.38-7.2L174.38-7.2Q173.03-4.5 171.43-2.65 169.83-0.8 168.71-0.13 167.58 0.55 166.43 0.55L166.43 0.55Q164.43 0.55 163.63-0.53 162.83-1.6 162.83-2.85L162.83-2.85Q162.83-4.5 163.56-6.43 164.28-8.35 165-9.47 165.73-10.6 166.91-12.18 168.08-13.75 168.43-13.9L168.43-13.9Q169.18-14.1 169.86-14.1 170.53-14.1 171.03-13.9 171.53-13.7 171.56-13.4 171.58-13.1 170.86-12.5ZM202.23-14.55L202.23-14.55Q204.93-14.55 204.93-11.95L204.93-11.95Q204.93-10.6 204.18-9.75L204.18-9.75Q202.93-7.9 200.13-6.53 197.33-5.15 195.38-5L195.38-5Q194.68-4.95 194.63-5.4L194.63-5.4Q194.58-5.6 194.75-5.65 194.93-5.7 195.03-5.7L195.03-5.7Q196.18-5.8 197.98-6.8L197.98-6.8Q201.33-8.6 202.88-10.5L202.88-10.5Q203.53-11.4 203.53-12.23 203.53-13.05 202.73-13.05L202.73-13.05Q202.08-13.05 200.98-12.5L200.98-12.5Q198.63-11.4 196.03-8.68 193.43-5.95 192.63-3.35L192.63-3.35Q192.38-2.55 192.38-1.78 192.38-1 193.03-0.3 193.68 0.4 195.03 0.4L195.03 0.4Q196.53 0.4 198.48-0.4L198.48-0.4Q204.13-2.7 207.18-7.35L207.18-7.35Q207.48-7.75 207.73-7.5L207.73-7.5Q207.93-7.4 207.93-7.25 207.93-7.1 207.78-6.9L207.78-6.9Q206.28-4.4 203.98-2.45L203.98-2.45Q199.53 1.35 195.33 1.35L195.33 1.35Q191.73 1.35 190.28-0.8L190.28-0.8Q189.73-1.65 189.73-2.85 189.73-4.05 190.38-5.7L190.38-5.7Q191.63-8.55 195.73-11.55 199.83-14.55 202.23-14.55ZM218.18-14.55L218.18-14.55Q220.88-14.55 220.88-11.95L220.88-11.95Q220.88-10.6 220.13-9.75L220.13-9.75Q218.88-7.9 216.07-6.53 213.28-5.15 211.32-5L211.32-5Q210.63-4.95 210.57-5.4L210.57-5.4Q210.53-5.6 210.7-5.65 210.88-5.7 210.97-5.7L210.97-5.7Q212.13-5.8 213.93-6.8L213.93-6.8Q217.28-8.6 218.82-10.5L218.82-10.5Q219.47-11.4 219.47-12.23 219.47-13.05 218.68-13.05L218.68-13.05Q218.03-13.05 216.93-12.5L216.93-12.5Q214.57-11.4 211.97-8.68 209.38-5.95 208.57-3.35L208.57-3.35Q208.32-2.55 208.32-1.78 208.32-1 208.97-0.3 209.63 0.4 210.97 0.4L210.97 0.4Q212.47 0.4 214.43-0.4L214.43-0.4Q220.07-2.7 223.13-7.35L223.13-7.35Q223.43-7.75 223.68-7.5L223.68-7.5Q223.88-7.4 223.88-7.25 223.88-7.1 223.72-6.9L223.72-6.9Q222.22-4.4 219.93-2.45L219.93-2.45Q215.47 1.35 211.28 1.35L211.28 1.35Q207.68 1.35 206.22-0.8L206.22-0.8Q205.68-1.65 205.68-2.85 205.68-4.05 206.32-5.7L206.32-5.7Q207.57-8.55 211.68-11.55 215.78-14.55 218.18-14.55ZM229.92-13.95L230.57-14Q234.42-14.35 235.25-14.35 236.07-14.35 236.07-14.1L236.07-14.1Q236.07-13.8 234.9-13.48 233.72-13.15 229.17-12.65L229.17-12.65Q228.92-12.2 228.57-11.6L228.57-11.6Q227.82-10.4 227.77-10.15L227.77-10.15Q224.92-4.45 224.77-2.9L224.77-2.9Q224.72-2.45 224.72-1.75 224.72-1.05 225.12-0.6L225.12-0.6Q225.82 0.2 227.12-0.5 228.42-1.2 230.75-3.3 233.07-5.4 234.52-7.4L234.52-7.4Q234.72-7.65 235.02-7.5L235.02-7.5Q235.77-7.15 232.42-3.55L232.42-3.55Q229.22-0.1 227.07 0.7L227.07 0.7Q225.82 1.15 224.97 1.15L224.97 1.15Q222.97 1.15 222.32-0.75L222.32-0.75Q222.22-1.1 222.22-1.6L222.22-1.6Q222.22-3.35 223.82-6.9L223.82-6.9Q223.57-6.35 221.87-4.4L221.87-4.4Q221.42-3.9 221.17-4.4L221.17-4.4Q221.12-4.5 221.12-4.67 221.12-4.85 221.32-5.1L221.32-5.1Q223.77-8.15 225.17-10.25L225.17-10.25Q225.17-10.3 226.27-12.35L226.27-12.35Q225.77-12.25 225.25-12.25 224.72-12.25 224.47-12.58 224.22-12.9 224.42-13.35L224.42-13.35Q224.77-14.15 227.07-14.25L227.07-14.25Q227.12-14.35 227.27-14.35L227.27-14.35 229.77-19Q229.97-19.4 230.22-19.83 230.47-20.25 230.6-20.48 230.72-20.7 230.87-20.95 231.02-21.2 231.12-21.3 231.22-21.4 231.32-21.5L231.32-21.5Q231.52-21.8 232.5-21.8 233.47-21.8 233.82-21.25L233.82-21.25Q233.97-21.05 233.97-20.58 233.97-20.1 233.62-19.53 233.27-18.95 232.87-18.7 232.47-18.45 232.32-18.15L232.32-18.15 229.92-13.95ZM234.37 0.5L234.37 0.5Q233.72 1.25 234.09 1.7 234.47 2.15 234.94 2.15 235.42 2.15 235.92 2L235.92 2Q238.07 1.35 240.09-0.58 242.12-2.5 242.12-4.5L242.12-4.5Q242.12-5.6 239.67-6.9L239.67-6.9Q238.52-7.5 238.37-7.6L238.37-7.6Q237.02-8.5 236.67-9.4L236.67-9.4Q235.97-8.2 234.42-5.95L234.42-5.95Q234.07-5.55 233.77-5.78 233.47-6 233.72-6.4L233.72-6.4Q235.77-9.2 236.42-11.1L236.42-11.1Q236.77-13.85 240.42-16.05 244.07-18.25 247.07-18.25L247.07-18.25Q248.97-18.25 249.75-17.57 250.52-16.9 250.52-16.25 250.52-15.6 250.15-14.75 249.77-13.9 248.62-13.15L248.62-13.15Q248.32-12.95 248.12-13.25L248.12-13.25Q248.02-13.55 248.55-14.08 249.07-14.6 249.22-15.5 249.37-16.4 248.42-16.6L248.42-16.6Q248.27-16.6 248.12-16.6L248.12-16.6Q246.17-16.6 243.25-15.15 240.32-13.7 238.67-11.4L238.67-11.4Q238.02-10.55 238.02-9.68 238.02-8.8 239.22-8.1L239.22-8.1Q239.72-7.8 240.92-7.15 242.12-6.5 242.62-6.2 243.12-5.9 243.82-5.25 244.52-4.6 244.57-4.05L244.57-4.05Q244.82-2.55 243.17-0.75L243.17-0.75Q240.82 1.85 236.17 2.9L236.17 2.9Q235.12 3.15 234.05 3.15 232.97 3.15 232.57 2.35L232.57 2.35Q232.42 2.15 232.42 1.73 232.42 1.3 233.22 0.35L233.22 0.35Q233.97-0.4 235.62-1.1L235.62-1.1Q235.77-1.15 235.87-1.05 235.97-0.95 235.92-0.8 235.87-0.65 235.4-0.45 234.92-0.25 234.37 0.5ZM266.02-25.5L266.02-25.5Q266.62-26.6 266.62-27.2L266.62-27.2Q266.62-28.25 265.77-28.25L265.77-28.25Q265.07-28.25 264.02-27.45L264.02-27.45Q260.02-24.35 256.27-17.65L256.27-17.65Q253.27-12.25 251.87-8.4L251.87-8.4Q255.32-10.75 259.59-16.05 263.87-21.35 266.02-25.5ZM251.12-6.4L251.12-6.4Q250.52-4.7 250.47-4.13 250.42-3.55 250.42-2.58 250.42-1.6 250.92-0.8L250.92-0.8Q251.77 0.55 253.77-0.6L253.77-0.6Q255.27-1.4 257.57-3.53 259.87-5.65 261.12-7.4L261.12-7.4Q261.22-7.55 261.42-7.55L261.42-7.55Q261.87-7.55 261.67-6.9L261.67-6.9Q260.92-5.55 258.89-3.45 256.87-1.35 255.22-0.13 253.57 1.1 251.92 1.1L251.92 1.1Q248.12 1.1 248.12-2.6L248.12-2.6Q248.12-2.75 248.12-2.9L248.12-2.9Q248.32-6.4 251.67-13.48 255.02-20.55 257.72-24.15L257.72-24.15 259.27-26.1Q259.82-26.75 260.87-27.7L260.87-27.7Q262.87-29.6 264.99-29.6 267.12-29.6 267.87-28.3L267.87-28.3Q268.12-27.85 268.12-27 268.12-26.15 267.37-24.6L267.37-24.6Q262.22-15.65 251.12-6.4ZM262.92 0.55L262.92 0.55Q262.12 0.55 261.19 0.08 260.27-0.4 259.62-1.28 258.97-2.15 258.97-3.15 258.97-4.15 259.42-5.05L259.42-5.05Q260.42-7.15 262.64-9.13 264.87-11.1 267.27-12.5 269.67-13.9 271.06-14.25 272.47-14.6 273.79-14.6 275.12-14.6 276.06-13.93 277.02-13.25 277.02-12.5L277.02-12.5Q277.02-12.25 276.97-12.2 276.92-12.15 276.72-12.25L276.72-12.25Q276.12-13.2 274.24-13.2 272.37-13.2 269.99-11.98 267.62-10.75 265.52-8.9L265.52-8.9Q263.77-7.25 262.44-5.18 261.12-3.1 261.12-2.15L261.12-2.15Q261.12-0.3 262.17-0.3 263.22-0.3 265.37-2L265.37-2Q268.92-5 270.22-6.4L270.22-6.4Q274.81-11.35 275.17-11.35L275.17-11.35Q275.77-11.35 276.62-11 277.47-10.65 277.17-10.15L277.17-10.15Q274.62-6.55 274.17-2.9L274.17-2.9Q274.12-2.45 274.12-1.75 274.12-1.05 274.52-0.6L274.52-0.6Q275.27 0.2 276.56-0.5 277.87-1.2 280.19-3.3 282.52-5.4 283.92-7.4L283.92-7.4Q284.12-7.65 284.37-7.53 284.62-7.4 284.62-7.3L284.62-7.3Q284.62-6.55 282.24-4.03 279.87-1.5 278.62-0.6L278.62-0.6Q276.27 1.15 274.27 1.15L274.27 1.15Q272.37 1.15 271.72-0.75L271.72-0.75Q271.56-1.35 271.56-2.1L271.56-2.1Q271.56-4.35 272.52-6.85L272.52-6.85Q272.31-6.75 270.67-4.85 269.02-2.95 266.84-1.2 264.67 0.55 262.92 0.55ZM297.16-14.2L297.16-14.2Q298.31-14.2 298.31-12.98 298.31-11.75 297.16-9.6 296.01-7.45 295.46-6.1L295.46-6.1Q294.51-3.8 294.51-2.43 294.51-1.05 294.91-0.6L294.91-0.6Q295.66 0.2 296.96-0.53 298.26-1.25 300.59-3.33 302.91-5.4 304.31-7.4L304.31-7.4Q304.51-7.65 304.79-7.53 305.06-7.4 305.06-7.28 305.06-7.15 304.96-7L304.96-7Q304.21-5.65 302.26-3.55 300.31-1.45 298.51-0.18 296.71 1.1 294.96 1.1L294.96 1.1Q293.26 1.05 292.56 0.33 291.86-0.4 291.86-1.5 291.86-2.6 292.06-3.63 292.26-4.65 292.81-6L292.81-6Q293.71-8.15 294.39-9.35 295.06-10.55 295.06-10.93 295.06-11.3 294.66-11.3L294.66-11.3Q293.86-11.3 291.61-9.35L291.61-9.35Q290.06-7.9 287.04-3.88 284.01 0.15 283.61 0.4L283.61 0.4Q281.81 1.3 281.36 1.3 280.91 1.3 280.91 1.15 280.91 1 281.01 0.73 281.11 0.45 281.99-2 282.86-4.45 283.89-7.38 284.91-10.3 285.14-10.9 285.36-11.5 285.44-11.93 285.51-12.35 285.61-12.65 285.71-12.95 285.99-13.33 286.26-13.7 286.71-13.73 287.16-13.75 287.86-13.63 288.56-13.5 288.56-13L288.56-13Q288.56-12.65 288.01-11.48 287.46-10.3 284.86-3.4L284.86-3.4Q286.66-5.6 289.41-8.47 292.16-11.35 294.06-12.85L294.06-12.85Q295.96-14.2 297.16-14.2ZM305.94-9.13Q308.16-11.1 310.56-12.5 312.96-13.9 314.36-14.25 315.76-14.6 317.11-14.6 318.46-14.6 319.66-13.7L319.66-13.7Q326.51-29.6 332.76-29.6L332.76-29.6Q334.86-29.6 335.61-28.4L335.61-28.4Q335.96-27.8 335.96-27.35L335.96-27.35Q335.96-26.1 334.89-24.18 333.81-22.25 331.56-19.95 329.31-17.65 325.11-14.28 320.91-10.9 320.46-10.5L320.46-10.5Q318.86-6.8 317.96-3.35 317.06 0.1 317.06 1.8 317.06 3.5 317.66 4.5L317.66 4.5Q317.96 5.15 318.56 5.28 319.16 5.4 319.59 5.13 320.01 4.85 320.24 4.65 320.46 4.45 320.79 4.28 321.11 4.1 321.26 4.2 321.41 4.3 321.21 4.75L321.21 4.75Q320.81 5.25 320.46 5.6L320.46 5.6Q319.66 6.15 318.59 6.15 317.51 6.15 317.16 6.1L317.16 6.1Q314.76 5.7 314.76 2.6L314.76 2.6Q314.76-0.4 315.56-2.95L315.56-2.95Q316.66-6.45 317.56-8.75L317.56-8.75Q309.56 0.55 306.21 0.55L306.21 0.55Q305.41 0.55 304.49 0.08 303.56-0.4 302.91-1.28 302.26-2.15 302.26-3.15 302.26-4.15 302.71-5.05L302.71-5.05Q303.71-7.15 305.94-9.13ZM318.56-11.2L319.26-12.9Q318.66-13.2 317.16-13.2 315.66-13.2 313.29-11.98 310.91-10.75 308.81-8.9L308.81-8.9Q307.06-7.25 305.74-5.18 304.41-3.1 304.41-2.15L304.41-2.15Q304.41-0.3 305.46-0.3 306.51-0.3 308.66-2L308.66-2Q314.21-6.55 318.56-11.2L318.56-11.2ZM333.91-25.5L333.91-25.5Q334.56-26.7 334.56-27.53 334.56-28.35 333.84-28.35 333.11-28.35 331.91-27.45L331.91-27.45Q326.41-23.25 321.96-13.4L321.96-13.4Q325.21-15.5 328.76-19 332.31-22.5 333.91-25.5Z" opacity="1" transform="matrix(1,0,0,1,0,0)" fill="#55328b" class="wordmark-text-0" data-fill-palette-color="primary" id="text-0"></path></svg></g></svg></g><g transform="matrix(1,0,0,1,0,70.93538241469727)"><svg viewBox="0 0 33.58440341872454 10.903635908141961" height="10.903635908141961" width="33.58440341872454"><g transform="matrix(1,0,0,1,0,0)"><svg width="33.58440341872454" viewBox="4.25 -35.6 111.49 36.2" height="10.903635908141961" data-palette-color="#55328b"><path d="M24.7 0L4.4 0Q4.25-0.9 4.25-1.85L4.25-1.85Q4.25-5.1 5.38-7.68 6.5-10.25 8.3-12.38 10.1-14.5 12.13-16.32 14.15-18.15 15.93-19.83 17.7-21.5 18.85-23.2 20-24.9 20-26.75L20-26.75Q20-28.85 18.45-30.23 16.9-31.6 14.45-31.6L14.45-31.6Q12.35-31.6 10.63-30.78 8.9-29.95 7.4-28.55L7.4-28.55 4.9-31.6Q6.9-33.4 9.33-34.5 11.75-35.6 14.95-35.6L14.95-35.6Q17.9-35.6 20.1-34.48 22.3-33.35 23.53-31.4 24.75-29.45 24.75-27.05L24.75-27.05Q24.75-24.65 23.7-22.6 22.65-20.55 21-18.75 19.35-16.95 17.45-15.28 15.55-13.6 13.8-11.85 12.05-10.1 10.83-8.2 9.6-6.3 9.3-4.1L9.3-4.1 24.7-4.1 24.7 0ZM44.95 0.6L44.95 0.6Q39.1 0.6 36.05-4.17 33-8.95 33-17.55L33-17.55Q33-26.2 36.12-30.9 39.25-35.6 45.05-35.6L45.05-35.6Q50.9-35.6 53.95-30.85 57-26.1 57-17.45L57-17.45Q57-8.8 53.87-4.1 50.75 0.6 44.95 0.6ZM45-3.5L45-3.5Q47.25-3.5 48.87-4.83 50.5-6.15 51.37-9.2 52.25-12.25 52.25-17.4L52.25-17.4Q52.25-24.3 50.32-27.9 48.4-31.5 45-31.5L45-31.5Q42.75-31.5 41.12-30.18 39.5-28.85 38.62-25.83 37.75-22.8 37.75-17.6L37.75-17.6Q37.75-10.7 39.67-7.1 41.6-3.5 45-3.5ZM84.8 0L67.2 0 67.2-4 74.34-4 74.34-29.25 67.65-24.2 65.2-27.55 75.55-35 78.84-35 78.84-4 84.8-4 84.8 0ZM103.19 0.6L103.19 0.6Q100.29 0.6 97.99-0.43 95.69-1.45 93.79-3.3L93.79-3.3 96.74-6.65Q99.74-3.5 103.44-3.5L103.44-3.5Q105.49-3.5 107.24-4.88 108.99-6.25 110.07-9.2 111.14-12.15 111.14-16.8L111.14-16.8Q109.59-15.4 107.69-14.45 105.79-13.5 103.59-13.5L103.59-13.5Q100.94-13.5 98.57-14.73 96.19-15.95 94.72-18.32 93.24-20.7 93.24-24.2L93.24-24.2Q93.24-27.35 94.67-29.95 96.09-32.55 98.64-34.08 101.19-35.6 104.54-35.6L104.54-35.6Q107.14-35.6 108.99-34.8 110.84-34 112.09-32.7L112.09-32.7Q113.29-31.45 114.12-29.78 114.94-28.1 115.34-25.38 115.74-22.65 115.74-18.3L115.74-18.3Q115.74-11.65 114.09-7.48 112.44-3.3 109.62-1.35 106.79 0.6 103.19 0.6ZM104.34-17.2L104.34-17.2Q106.24-17.2 108.02-18.15 109.79-19.1 111.14-20.45L111.14-20.45 111.14-21.95Q111.14-26.7 109.32-29.15 107.49-31.6 104.39-31.6L104.39-31.6Q101.54-31.6 99.57-29.63 97.59-27.65 97.59-24.4L97.59-24.4Q97.59-22.15 98.54-20.53 99.49-18.9 101.02-18.05 102.54-17.2 104.34-17.2Z" opacity="1" transform="matrix(1,0,0,1,0,0)" fill="#55328b" class="slogan-text-1" data-fill-palette-color="secondary" id="text-1"></path></svg></g></svg></g></svg></g></svg></g><g><svg viewBox="0 0 122.21567999999999 122.21567999999999" height="122.21567999999999" width="122.21567999999999"><g><svg viewBox="0 0 122.21567999999999 122.21567999999999" height="122.21567999999999" width="122.21567999999999"><g transform="matrix(1,0,0,1,39.49806609130721,32.30132796822496)"><svg viewBox="0 0 43.21954781738557 57.61302406355007" height="57.61302406355007" width="43.21954781738557"><g><svg xmlns="http://www.w3.org/2000/svg" xmlns:xlink="http://www.w3.org/1999/xlink" version="1.0" x="0" y="0" viewBox="13.487 0.8890334498059245 73.02900000000001 97.34996655019408" enable-background="new 0 0 100 100" xml:space="preserve" height="57.61302406355007" width="43.21954781738557" class="icon-dxe-0" data-fill-palette-color="accent" id="dxe-0"><g fill="#55328b" data-fill-palette-color="accent"><path d="M75.51 59.285L70.067 93.552C70.067 96.142 67.693 98.239 64.764 98.239H35.237C32.308 98.239 29.934 96.142 29.934 93.552L24.486 59.285C25.674 59.75 26.958 60.176 28.329 60.562 28.786 63.482 29.243 66.251 29.692 68.981 30.996 76.87 32.227 84.32 33.382 94.512A0.39 0.39 0 0 0 33.768 94.856H33.776A0.39 0.39 0 0 0 34.155 94.371C33.749 85.64 33.202 78.767 32.671 72.12A976 976 0 0 1 31.859 61.439C32.901 61.662 33.979 61.869 35.088 62.052 35.295 63.779 35.502 65.457 35.701 67.124 36.709 75.435 37.662 83.287 38.642 94.101A0.387 0.387 0 0 0 39.029 94.456H39.033C39.247 94.444 39.427 94.28 39.427 94.065 39.427 94.034 39.423 94.006 39.42 93.975 39.252 86.908 39.076 81.139 38.908 75.563 38.772 71.111 38.647 66.945 38.537 62.543A81 81 0 0 0 41.736 62.871C41.818 63.753 41.9 64.624 41.978 65.491 42.774 74.203 43.524 82.431 44.297 93.822A0.39 0.39 0 0 0 44.688 94.185H44.692A0.397 0.397 0 0 0 45.079 93.716C45.067 81.517 45.106 73.059 45.2 63.101 46.239 63.152 47.285 63.183 48.344 63.203L48.485 65.241C49.078 73.988 49.637 82.248 50.149 93.678A0.394 0.394 0 0 0 50.54 94.053H50.547A0.39 0.39 0 0 0 50.93 93.67C51.2 81.373 51.524 72.786 51.891 63.199 52.95 63.178 54 63.14 55.038 63.09 55.409 72.72 55.732 81.322 56.006 93.67A0.39 0.39 0 0 0 56.393 94.053H56.397A0.394 0.394 0 0 0 56.788 93.678C57.347 81.221 57.87 72.615 58.472 62.852 59.562 62.762 60.632 62.649 61.678 62.516 61.705 69.186 61.694 75.258 61.682 82.151 61.674 85.716 61.666 89.532 61.662 93.796A0.39 0.39 0 0 0 62.041 94.187H62.053A0.387 0.387 0 0 0 62.444 93.824C63.216 82.429 63.966 74.201 64.763 65.489 64.868 64.344 64.974 63.193 65.079 62.021A66 66 0 0 0 68.296 61.404 942 942 0 0 1 67.801 72.132C67.474 78.689 67.134 85.464 66.931 94.055A0.39 0.39 0 0 0 67.298 94.457H67.32C67.52 94.457 67.691 94.305 67.707 94.102 68.645 83.766 69.659 76.213 70.737 68.215 71.073 65.716 71.413 63.186 71.757 60.537A41 41 0 0 0 75.51 59.285" fill="#55328b" data-fill-palette-color="accent"></path><path d="M75.51 33.593C75.51 39.669 70.582 44.653 64.502 44.653 62.605 44.653 60.816 44.172 59.258 43.325A11 11 0 0 1 49.999 48.378 11 11 0 0 1 40.744 43.325 10.95 10.95 0 0 1 35.5 44.653C29.419 44.653 24.491 39.67 24.491 33.593 24.491 28.028 28.623 23.373 33.985 22.639 34.481 22.569 34.985 22.534 35.5 22.534S36.519 22.569 37.015 22.639C38.35 22.822 39.608 23.244 40.744 23.861 41.021 23.431 41.326 23.021 41.658 22.639A11 11 0 0 1 43.357 21.041 10.4 10.4 0 0 0 46.004 22.639C47.234 23.154 48.586 23.435 49.999 23.435S52.764 23.154 53.994 22.639A10.4 10.4 0 0 0 56.645 21.041 11 11 0 0 1 58.344 22.639C58.676 23.021 58.981 23.431 59.258 23.861A10.9 10.9 0 0 1 62.987 22.639C63.483 22.569 63.987 22.534 64.503 22.534S65.523 22.569 66.019 22.639C71.383 23.377 75.51 28.032 75.51 33.593" fill="#55328b" data-fill-palette-color="accent"></path><path d="M86.516 45.719C86.516 51.713 81.719 56.587 75.756 56.72 69.77 59.246 60.465 60.874 49.999 60.874 39.537 60.874 30.231 59.246 24.245 56.72 18.282 56.587 13.487 51.713 13.487 45.719 13.487 41.185 16.224 37.292 20.141 35.605 21.055 35.945 22.016 36.179 23.015 36.296 23.749 42.533 29.068 47.387 35.5 47.387 37.128 47.387 38.741 47.071 40.241 46.461A12.5 12.5 0 0 0 50 51.112C53.831 51.112 57.388 49.398 59.763 46.461 61.262 47.07 62.874 47.387 64.503 47.387 70.935 47.387 76.253 42.533 76.987 36.296 77.987 36.179 78.948 35.945 79.862 35.605 83.773 37.292 86.516 41.185 86.516 45.719" fill="#55328b" data-fill-palette-color="accent"></path><path d="M58.865 12.229A8.865 8.865 0 1 1 50 3.364C50.816 3.364 51.596 3.52 52.357 3.681 53.44 3.911 52.618 6.706 53.27 7.073 53.925 7.442 56.374 5.949 56.955 6.731 58.103 8.279 58.865 10.152 58.865 12.229" fill="#55328b" data-fill-palette-color="accent"></path><path d="M55.513 5.185A0.998 0.998 0 0 1 54.753 3.536C57.032 0.859 60.292 0.458 62.518 1.252A1 1 0 1 1 61.846 3.135C60.324 2.593 57.929 2.892 56.275 4.832A1 1 0 0 1 55.513 5.185" fill="#55328b" data-fill-palette-color="accent"></path></g></svg></g></svg></g><g id="text-0"><path d="M5.866 34.911v0c0.247 0.092 0.493 0.3 0.74 0.623v0c0.24 0.284 0.374 0.551 0.404 0.8 0.038 0.245-0.009 0.343-0.142 0.293v0c-0.013-0.005-0.057-0.09-0.132-0.255v0c-0.208-0.503-0.426-0.798-0.654-0.883v0c-0.481-0.18-0.9 0.207-1.257 1.162v0c-0.152 0.405-0.275 0.964-0.369 1.679-0.097 0.721-0.093 1.451 0.012 2.19v0c0.122 0.868 0.328 1.356 0.62 1.465v0c0.234 0.088 0.54-0.046 0.918-0.402v0c0.204-0.198 0.566-0.596 1.086-1.194 0.529-0.602 0.971-1.082 1.328-1.439 0.359-0.363 0.792-0.67 1.297-0.92 0.499-0.253 0.969-0.297 1.412-0.131 0.436 0.163 0.813 0.6 1.131 1.311v0c0.459 1.066 0.703 2.319 0.734 3.757 0.022 1.443-0.134 2.611-0.468 3.502v0c-0.663 1.771-1.491 2.47-2.484 2.098-0.999-0.374-1.643-1.236-1.931-2.583v0c-0.279-1.121-0.234-2.175 0.135-3.162v0c0.088-0.234 0.166-0.327 0.235-0.28v0c0.073 0.056 0.054 0.24-0.056 0.553-0.118 0.316-0.166 0.76-0.141 1.331 0.024 0.571 0.153 1.142 0.385 1.713v0c0.295 0.752 0.692 1.222 1.192 1.409v0c0.316 0.118 0.654 0.072 1.015-0.139 0.36-0.211 0.7-0.744 1.02-1.597 0.317-0.847 0.495-1.736 0.534-2.667v0c0.085-2.016-0.143-3.381-0.683-4.095v0c-0.193-0.274-0.378-0.444-0.555-0.511v0c-0.519-0.194-1.04-0.033-1.566 0.484v0c-0.608 0.602-1.376 1.478-2.305 2.63v0c-0.352 0.438-0.733 0.782-1.144 1.032-0.405 0.252-0.8 0.306-1.185 0.162-0.392-0.147-0.695-0.502-0.91-1.066-0.217-0.557-0.328-1.175-0.332-1.855v0c-0.002-1.457 0.163-2.629 0.494-3.514v0c0.462-1.233 1.003-1.734 1.622-1.501z" fill="#55328b" data-fill-palette-color="accent"></path><path d="M9.603 26.734v0c0.037-0.224 0.097-0.402 0.18-0.533v0c0.28-0.446 0.588-0.663 0.924-0.652v0c0.17-0.005 0.301 0.022 0.393 0.08v0c0.686 0.431 1.189 1.553 1.509 3.365v0c0.26 1.591 0.444 3.018 0.551 4.282v0c0.461 0.688 1.062 1.477 1.803 2.366v0c-0.216-0.646-0.444-1.432-0.684-2.356v0c-0.458-1.859-0.547-3.012-0.267-3.458v0c0.14-0.223 0.325-0.27 0.555-0.142v0c0.245 0.13 0.438 0.319 0.577 0.567 0.14 0.247 0.269 0.48 0.387 0.697v0c0.491 0.97 1.045 1.65 1.662 2.038v0c0.206 0.129 0.38 0.183 0.522 0.16v0c0.246-0.037 0.382-0.234 0.408-0.592 0.022-0.353-0.031-0.897-0.159-1.632-0.128-0.735-0.302-1.378-0.521-1.93v0c-0.019-0.084-0.003-0.141 0.049-0.173 0.057-0.028 0.097-0.034 0.12-0.02 0.029 0.018 0.05 0.047 0.064 0.088v0c0.177 0.327 0.351 0.819 0.52 1.475 0.175 0.66 0.279 1.168 0.311 1.524v0c0.06 0.692-0.043 1.249-0.309 1.672v0c-0.241 0.383-0.599 0.521-1.074 0.414v0c-0.109-0.029-0.227-0.083-0.353-0.162-0.126-0.079-0.253-0.175-0.381-0.288v0c-0.391-0.317-0.885-1.003-1.483-2.057v0c-0.122-0.212-0.22-0.342-0.294-0.388-0.074-0.047-0.137-0.03-0.187 0.05v0c-0.101 0.16-0.095 0.602 0.016 1.326v0c0.094 0.498 0.357 1.309 0.79 2.435 0.427 1.122 0.642 1.739 0.643 1.851v0c-0.047 0.481-0.098 0.764-0.152 0.85-0.054 0.086-0.096 0.127-0.126 0.125-0.036-0.007-0.066-0.034-0.092-0.082-0.029-0.042-0.202-0.262-0.518-0.661v0c-1.042-1.325-1.729-2.211-2.061-2.659v0c0.217 0.607 0.438 1.328 0.663 2.163v0c0.03 0.13-0.015 0.158-0.136 0.082-0.114-0.072-0.203-0.191-0.265-0.358-0.063-0.167-0.179-0.508-0.351-1.022-0.169-0.505-0.302-0.872-0.397-1.099v0c-0.109 0.059-0.209 0.06-0.301 0.002-0.095-0.052-0.14-0.12-0.135-0.204 0.009-0.09 0.091-0.19 0.248-0.299v0c-0.078-0.193-0.178-0.383-0.299-0.571v0c-1.837-2.838-2.62-4.929-2.35-6.274zM11.269 26.596v0c-0.157-0.282-0.319-0.476-0.485-0.58-0.172-0.108-0.304-0.087-0.397 0.062-0.093 0.149-0.124 0.401-0.092 0.755v0c0.151 1.65 0.94 3.554 2.367 5.712v0c-0.01-0.923-0.143-1.968-0.398-3.134-0.256-1.166-0.588-2.104-0.995-2.815z" fill="#55328b" data-fill-palette-color="accent"></path><path d="M19.21 23.076v0c0.429-0.486 0.879-0.521 1.35-0.105v0c0.238 0.21 0.375 0.453 0.412 0.727v0c0.133 0.513 0.102 1.13-0.093 1.85-0.199 0.725-0.439 1.274-0.722 1.646v0c-0.097 0.13-0.191 0.165-0.281 0.104v0c-0.044-0.021-0.058-0.051-0.041-0.091 0.017-0.039 0.034-0.069 0.051-0.09v0c0.163-0.225 0.299-0.578 0.408-1.058v0c0.203-0.883 0.258-1.614 0.164-2.192v0c-0.059-0.259-0.162-0.454-0.309-0.584-0.147-0.13-0.283-0.123-0.408 0.019v0c-0.103 0.116-0.193 0.316-0.271 0.598v0c-0.173 0.595-0.222 1.344-0.146 2.248 0.075 0.895 0.283 1.618 0.623 2.171v0c0.107 0.175 0.228 0.323 0.365 0.444 0.142 0.125 0.325 0.183 0.549 0.174 0.229-0.005 0.451-0.129 0.666-0.372v0c0.237-0.268 0.438-0.64 0.605-1.114v0c0.478-1.379 0.546-2.711 0.202-3.996v0c-0.031-0.118-0.004-0.179 0.082-0.184v0c0.052-0.018 0.09-0.015 0.115 0.007 0.025 0.022 0.047 0.064 0.066 0.125v0c0.209 0.662 0.305 1.354 0.287 2.078v0c-0.022 1.403-0.364 2.479-1.025 3.228v0c-0.572 0.648-1.164 0.931-1.777 0.85v0c-0.241-0.033-0.471-0.145-0.688-0.337-0.218-0.192-0.422-0.476-0.613-0.851v0c-0.31-0.679-0.41-1.623-0.299-2.831 0.106-1.212 0.349-2.034 0.729-2.464z" fill="#55328b" data-fill-palette-color="accent"></path><path d="M27.276 23.199v0c-0.466 0.401-0.939 0.323-1.419-0.235-0.48-0.558-0.672-1.587-0.575-3.087v0c0.014-0.119 0.016-0.21 0.006-0.273v0l-0.02-0.21c-0.022-0.284-0.058-0.445-0.108-0.482v0l-0.144-0.089c-0.128-0.077-0.345-0.028-0.65 0.145-0.306 0.183-0.54 0.345-0.704 0.487v0c0.178 1.852 0.272 2.912 0.281 3.18 0.013 0.274-0.014 0.418-0.083 0.432-0.063 0.01-0.11-0.003-0.141-0.039-0.035-0.041-0.058-0.119-0.068-0.235v0c-0.025-1.022-0.151-2.022-0.381-3.001v0c-0.125 0.072-0.242 0.102-0.351 0.089-0.105-0.008-0.196-0.103-0.273-0.286-0.073-0.178-0.096-0.484-0.068-0.918 0.033-0.438 0.098-0.771 0.196-0.998 0.103-0.232 0.169-0.378 0.197-0.438 0.033-0.055 0.075-0.105 0.126-0.148v0c0.107-0.093 0.213 0.102 0.316 0.583v0l0.198 1.301c0.431-0.327 0.79-0.614 1.077-0.861v0l0.462-0.425c0.153-0.132 0.286-0.211 0.398-0.237 0.107-0.021 0.186 0.035 0.239 0.169v0c0.079 0.226 0.119 0.593 0.12 1.101v0c-0.001 1.106 0.172 2.134 0.517 3.083v0c0.088 0.227 0.186 0.402 0.292 0.525v0c0.229 0.266 0.438 0.317 0.628 0.154v0c0.067-0.057 0.143-0.212 0.228-0.464 0.095-0.251 0.187-0.745 0.275-1.481 0.098-0.735 0.115-1.392 0.053-1.971v0c-0.004-0.077 0.029-0.127 0.098-0.151 0.073-0.019 0.119-0.018 0.136 0.003 0.022 0.026 0.034 0.06 0.035 0.103v0c0.079 0.36 0.104 0.882 0.078 1.565-0.027 0.692-0.106 1.299-0.236 1.821v0c-0.111 0.533-0.356 0.962-0.735 1.288z" fill="#55328b" data-fill-palette-color="accent"></path><path d="M32.84 19.018v0c-0.516 0.334-0.974 0.192-1.374-0.426-0.4-0.618-0.449-1.664-0.148-3.138v0c0.03-0.116 0.044-0.205 0.043-0.269v0l0.008-0.21c0.017-0.284 0.003-0.449-0.041-0.492v0l-0.131-0.109c-0.117-0.093-0.338-0.075-0.663 0.056-0.328 0.14-0.582 0.268-0.764 0.385v0c-0.076 1.859-0.128 2.922-0.156 3.19-0.024 0.273-0.071 0.412-0.14 0.417-0.064 0.001-0.108-0.018-0.135-0.058-0.029-0.045-0.041-0.126-0.036-0.243v0c0.115-1.015 0.126-2.024 0.033-3.025v0c-0.134 0.054-0.254 0.068-0.36 0.04-0.103-0.022-0.18-0.129-0.232-0.321-0.048-0.186-0.029-0.492 0.058-0.917 0.092-0.43 0.202-0.75 0.33-0.962 0.134-0.215 0.219-0.351 0.256-0.407 0.04-0.05 0.088-0.093 0.145-0.13v0c0.119-0.077 0.197 0.13 0.233 0.621v0l0.019 1.315c0.472-0.265 0.867-0.5 1.184-0.706v0l0.516-0.358c0.17-0.11 0.312-0.17 0.427-0.18 0.109-0.006 0.18 0.061 0.213 0.2v0c0.047 0.235 0.037 0.604-0.032 1.106v0c-0.152 1.096-0.121 2.137 0.093 3.126v0c0.057 0.237 0.129 0.423 0.217 0.559v0c0.191 0.295 0.391 0.374 0.601 0.239v0c0.074-0.048 0.17-0.191 0.289-0.429 0.129-0.236 0.287-0.713 0.475-1.429 0.197-0.715 0.304-1.363 0.321-1.946v0c0.007-0.077 0.046-0.122 0.117-0.136 0.075-0.008 0.12-0.001 0.135 0.022 0.018 0.028 0.025 0.064 0.021 0.107v0c0.029 0.367-0.017 0.888-0.136 1.56-0.122 0.682-0.282 1.273-0.483 1.772v0c-0.183 0.513-0.484 0.905-0.903 1.176z" fill="#55328b" data-fill-palette-color="accent"></path><path d="M38.732 22.781v0c-0.087 0.037-0.202 0.069-0.346 0.094v0c-0.626 0.101-1.035-0.072-1.227-0.519-0.193-0.446-0.145-1.129 0.143-2.047 0.288-0.918 1.097-2.392 2.428-4.422v0c0.118-2.558 0.131-4.318 0.041-5.279v0c-0.063 0.211-0.178 0.654-0.343 1.328-0.163 0.68-0.316 1.262-0.462 1.743-0.136 0.485-0.347 0.977-0.632 1.475-0.279 0.495-0.595 0.819-0.949 0.972-0.347 0.15-0.65 0.189-0.91 0.116-0.262-0.078-0.442-0.199-0.542-0.361-0.102-0.169-0.179-0.313-0.23-0.431v0c-0.176-0.409-0.24-0.864-0.19-1.363v0c0.04-0.811 0.235-1.579 0.584-2.303v0c0.125-0.289 0.269-0.469 0.43-0.538 0.155-0.067 0.322-0.08 0.501-0.04v0c0.209 0.094 0.309 0.205 0.299 0.334v0c-0.311 0.421-0.587 1.095-0.827 2.022v0c-0.125 0.495-0.12 1.052 0.014 1.671v0c0.022 0.086 0.058 0.185 0.106 0.296 0.051 0.118 0.137 0.191 0.26 0.219 0.125 0.034 0.237 0.03 0.336-0.013v0c0.341-0.147 0.62-0.481 0.837-1 0.221-0.529 0.414-1.068 0.582-1.619 0.164-0.541 0.341-1.188 0.532-1.939 0.193-0.745 0.324-1.235 0.391-1.47 0.059-0.239 0.16-0.389 0.303-0.451v0c0.174-0.075 0.375-0.103 0.603-0.083 0.229 0.019 0.343 0.062 0.342 0.128-0.007 0.069-0.017 0.813-0.031 2.23-0.02 1.42-0.039 2.443-0.055 3.069v0c0.199-0.255 0.5-0.785 0.902-1.591 0.403-0.806 0.705-1.58 0.907-2.322v0c0.049-0.176 0.117-0.216 0.202-0.12v0c0.02 0.013 0.041 0.045 0.063 0.094 0.021 0.05 0.017 0.133-0.014 0.249v0c-0.146 0.6-0.444 1.401-0.894 2.404-0.456 1.006-0.852 1.724-1.188 2.156v0c-0.101 2.323-0.208 3.799-0.319 4.428v0c-0.298 1.577-0.847 2.538-1.647 2.883zM39.683 16.646v0c-0.896 1.555-1.503 2.74-1.821 3.554-0.316 0.82-0.385 1.435-0.209 1.844 0.176 0.409 0.407 0.552 0.693 0.429v0c0.217-0.094 0.42-0.313 0.609-0.659 0.195-0.349 0.343-0.765 0.442-1.25 0.104-0.493 0.166-0.903 0.188-1.228 0.021-0.325 0.039-0.804 0.054-1.435 0.017-0.625 0.032-1.043 0.044-1.255z" fill="#55328b" data-fill-palette-color="accent"></path><path d="M59.322 0.797v0c0.031 0.262-0.04 0.576-0.214 0.944v0c-0.143 0.343-0.318 0.585-0.526 0.725-0.2 0.146-0.309 0.149-0.326 0.008v0c-0.002-0.013 0.054-0.091 0.166-0.234v0c0.352-0.416 0.513-0.744 0.485-0.985v0c-0.06-0.51-0.597-0.704-1.609-0.585v0c-0.429 0.051-0.983 0.198-1.662 0.442-0.685 0.245-1.332 0.583-1.939 1.016v0c-0.715 0.506-1.054 0.914-1.018 1.223v0c0.029 0.248 0.289 0.459 0.779 0.631v0c0.269 0.09 0.789 0.229 1.559 0.417 0.778 0.193 1.407 0.367 1.887 0.521 0.487 0.153 0.958 0.396 1.413 0.729 0.454 0.327 0.708 0.725 0.764 1.195 0.055 0.463-0.16 0.998-0.646 1.607v0c-0.737 0.897-1.738 1.689-3.002 2.376-1.272 0.681-2.381 1.078-3.327 1.19v0c-1.878 0.223-2.879-0.192-3.003-1.245-0.126-1.059 0.344-2.026 1.41-2.901v0c0.868-0.763 1.825-1.206 2.871-1.33v0c0.248-0.029 0.367-0.003 0.356 0.08v0c-0.016 0.09-0.189 0.158-0.516 0.204-0.335 0.04-0.751 0.201-1.248 0.485-0.497 0.283-0.945 0.66-1.345 1.129v0c-0.533 0.607-0.768 1.176-0.705 1.705v0c0.04 0.335 0.236 0.615 0.589 0.838 0.353 0.223 0.982 0.281 1.887 0.174 0.899-0.107 1.77-0.356 2.614-0.749v0c1.83-0.85 2.939-1.678 3.326-2.486v0c0.155-0.297 0.222-0.54 0.199-0.727v0c-0.065-0.55-0.448-0.94-1.148-1.17v0c-0.813-0.264-1.945-0.544-3.395-0.841v0c-0.55-0.111-1.031-0.292-1.441-0.543-0.41-0.244-0.639-0.57-0.688-0.979-0.049-0.416 0.127-0.848 0.53-1.297 0.396-0.448 0.894-0.83 1.496-1.147v0c1.294-0.67 2.41-1.061 3.349-1.173v0c1.308-0.155 2 0.096 2.078 0.753z" fill="#55328b" data-fill-palette-color="accent"></path><path d="M64.401 6.101c-0.188 0.124-0.54 0.467-1.055 1.029-0.514 0.555-0.881 1.056-1.1 1.502-0.219 0.447-0.343 0.822-0.371 1.125-0.028 0.296 0.085 0.456 0.34 0.48 0.262 0.025 0.643-0.125 1.142-0.451v0c0.805-0.547 1.758-1.616 2.86-3.207v0c0.055-0.076 0.146-0.108 0.274-0.095 0.121 0.012 0.289 0.062 0.505 0.149 0.216 0.082 0.319 0.176 0.308 0.284v0c-0.004 0.04-0.021 0.076-0.051 0.107v0c-0.574 0.759-0.975 1.647-1.2 2.664v0c-0.086 0.338-0.056 0.622 0.092 0.853v0c0.134 0.23 0.452 0.236 0.954 0.02v0c0.775-0.299 1.505-0.813 2.192-1.541 0.693-0.727 1.141-1.4 1.343-2.019v0c0.059-0.123 0.096-0.262 0.111-0.417v0c0.064-0.672-0.089-1.097-0.459-1.275v0c-0.103-0.057-0.219-0.082-0.349-0.074-0.136 0.001-0.212-0.013-0.23-0.042-0.024-0.029-0.028-0.064-0.01-0.103v0c0.03-0.106 0.281-0.136 0.751-0.091v0c0.773 0.074 1.121 0.511 1.045 1.311-0.076 0.8-0.622 1.715-1.635 2.743v0c-0.636 0.624-1.368 1.185-2.196 1.683v0c-0.459 0.261-0.921 0.37-1.384 0.326v0c-0.605-0.058-0.96-0.322-1.064-0.793v0c-0.06-0.223-0.068-0.566-0.024-1.03 0.044-0.464 0.141-0.838 0.29-1.122v0c-0.384 0.615-0.789 1.122-1.213 1.522-0.425 0.407-0.777 0.679-1.055 0.815-0.284 0.129-0.563 0.18-0.839 0.154v0c-0.477-0.046-0.798-0.205-0.961-0.478-0.171-0.274-0.242-0.559-0.214-0.855v0c0.037-0.39 0.165-0.808 0.385-1.255 0.218-0.44 0.428-0.787 0.628-1.039 0.194-0.253 0.449-0.551 0.767-0.894 0.312-0.35 0.513-0.541 0.604-0.573v0c0.179-0.03 0.35-0.038 0.511-0.022 0.161 0.015 0.3 0.052 0.417 0.111 0.116 0.065 0.174 0.132 0.174 0.199 0 0.075-0.095 0.174-0.283 0.299z" fill="#55328b" data-fill-palette-color="accent"></path><path d="M77.597 7.714v0c0.624 0.177 0.85 0.568 0.678 1.172v0c-0.087 0.305-0.246 0.534-0.479 0.685v0c-0.406 0.341-0.975 0.579-1.709 0.715-0.74 0.134-1.339 0.153-1.796 0.059v0c-0.16-0.031-0.231-0.101-0.215-0.209v0c0-0.049 0.021-0.075 0.064-0.076 0.043-0.002 0.077 0.001 0.103 0.008v0c0.274 0.05 0.651 0.02 1.131-0.09v0c0.885-0.198 1.567-0.464 2.048-0.797v0c0.208-0.165 0.339-0.342 0.393-0.531 0.053-0.188-0.011-0.308-0.192-0.36v0c-0.149-0.042-0.368-0.038-0.657 0.014v0c-0.611 0.1-1.308 0.38-2.091 0.838-0.775 0.454-1.338 0.954-1.69 1.499v0c-0.112 0.172-0.193 0.345-0.242 0.521-0.052 0.182-0.025 0.372 0.08 0.571 0.103 0.205 0.311 0.351 0.623 0.44v0c0.344 0.098 0.766 0.119 1.266 0.064v0c1.45-0.164 2.681-0.678 3.691-1.542v0c0.093-0.079 0.16-0.081 0.202-0.006v0c0.038 0.039 0.053 0.075 0.043 0.107-0.009 0.032-0.037 0.07-0.084 0.113v0c-0.507 0.474-1.09 0.859-1.75 1.157v0c-1.275 0.585-2.394 0.742-3.355 0.468v0c-0.831-0.236-1.343-0.648-1.534-1.235v0c-0.075-0.232-0.072-0.487 0.007-0.767 0.079-0.279 0.247-0.586 0.504-0.921v0c0.479-0.573 1.287-1.07 2.424-1.491 1.139-0.428 1.985-0.563 2.537-0.406z" fill="#55328b" data-fill-palette-color="accent"></path><path d="M84.867 10.568v0c0.593 0.261 0.763 0.679 0.51 1.254v0c-0.128 0.29-0.318 0.495-0.569 0.612v0c-0.449 0.282-1.046 0.44-1.791 0.473-0.751 0.031-1.347-0.033-1.787-0.189v0c-0.154-0.053-0.215-0.132-0.184-0.236v0c0.007-0.049 0.031-0.071 0.074-0.067 0.043 0.004 0.076 0.011 0.101 0.022v0c0.264 0.087 0.642 0.109 1.132 0.067v0c0.903-0.074 1.616-0.244 2.139-0.508v0c0.229-0.135 0.383-0.292 0.462-0.471 0.079-0.179 0.032-0.307-0.141-0.383v0c-0.142-0.063-0.36-0.088-0.652-0.077v0c-0.619 0.015-1.348 0.196-2.187 0.542-0.83 0.343-1.456 0.76-1.88 1.252v0c-0.135 0.155-0.239 0.316-0.312 0.483-0.076 0.173-0.076 0.365 0.001 0.576 0.074 0.217 0.259 0.391 0.556 0.521v0c0.328 0.144 0.743 0.224 1.245 0.239v0c1.459 0.038 2.749-0.302 3.869-1.019v0c0.103-0.065 0.17-0.058 0.201 0.022v0c0.032 0.044 0.042 0.081 0.028 0.112-0.014 0.031-0.047 0.064-0.1 0.1v0c-0.567 0.4-1.198 0.701-1.892 0.904v0c-1.344 0.404-2.473 0.405-3.388 0.002v0c-0.791-0.348-1.241-0.827-1.349-1.435v0c-0.042-0.24-0.004-0.493 0.113-0.758 0.117-0.266 0.326-0.546 0.625-0.843v0c0.553-0.502 1.422-0.883 2.607-1.143 1.187-0.267 2.044-0.284 2.569-0.052z" fill="#55328b" data-fill-palette-color="accent"></path><path d="M90.287 13.758l0.21 0.103c0.834 0.408 1.335 0.663 1.503 0.763 0.168 0.101 0.238 0.175 0.209 0.221v0c-0.038 0.064-0.197 0.059-0.476-0.014-0.281-0.083-0.919-0.353-1.912-0.81v0c-0.108 0.061-0.236 0.13-0.385 0.206v0c-0.297 0.152-0.467 0.251-0.509 0.296v0c-1.288 0.816-2.042 1.375-2.263 1.676v0c-0.067 0.086-0.145 0.201-0.232 0.345-0.087 0.145-0.118 0.288-0.093 0.429v0c0.047 0.249 0.247 0.381 0.601 0.397 0.353 0.016 0.899-0.046 1.636-0.185 0.732-0.142 1.369-0.33 1.912-0.562v0c0.072-0.028 0.131-0.008 0.177 0.059v0c0.111 0.169-0.399 0.414-1.53 0.734v0c-1.085 0.308-1.897 0.414-2.438 0.317v0c-0.31-0.061-0.552-0.143-0.725-0.248v0c-0.411-0.247-0.564-0.608-0.46-1.082v0c0.019-0.083 0.059-0.177 0.122-0.281v0c0.216-0.359 0.707-0.8 1.472-1.324v0c-0.118 0.079-0.471 0.213-1.059 0.402v0c-0.155 0.048-0.228 0.005-0.217-0.13v0c-0.001-0.024 0.011-0.057 0.035-0.097 0.021-0.035 0.07-0.064 0.148-0.089v0c0.874-0.325 1.584-0.614 2.131-0.868v0c0.007-0.012 0.25-0.161 0.731-0.447v0c-0.118-0.04-0.229-0.091-0.334-0.153-0.11-0.066-0.17-0.15-0.18-0.251-0.014-0.095 0.028-0.177 0.124-0.244v0c0.173-0.117 0.5-0.045 0.983 0.213v0c0.022-0.01 0.047-0.007 0.076 0.011v0l1.635-0.966c0.089-0.057 0.186-0.113 0.29-0.168 0.108-0.061 0.185-0.105 0.233-0.132 0.057-0.029 0.115-0.061 0.176-0.095 0.06-0.035 0.109-0.057 0.146-0.066 0.028-0.007 0.06-0.015 0.097-0.024v0c0.075-0.033 0.214 0.011 0.417 0.133 0.197 0.118 0.297 0.254 0.3 0.405v0c0.01 0.061-0.014 0.141-0.074 0.24-0.059 0.098-0.161 0.183-0.306 0.253-0.143 0.08-0.268 0.118-0.377 0.115-0.112 0.003-0.205 0.026-0.278 0.069v0z" fill="#55328b" data-fill-palette-color="accent"></path><path d="M90.159 19.865v0c-0.23 0.043-0.344 0.135-0.341 0.274 0.003 0.139 0.05 0.244 0.141 0.314 0.091 0.07 0.194 0.13 0.311 0.178v0c0.501 0.192 1.081 0.254 1.741 0.185 0.67-0.07 1.15-0.291 1.44-0.664v0c0.162-0.208 0.106-0.615-0.168-1.221v0c-0.122-0.283-0.193-0.445-0.213-0.485v0c-0.123-0.369-0.151-0.664-0.082-0.885v0c-0.307 0.12-0.773 0.28-1.398 0.478v0c-0.122 0.025-0.196-0.007-0.221-0.094-0.02-0.084 0.023-0.145 0.129-0.183v0c0.794-0.23 1.391-0.475 1.791-0.737v0c0.475-0.469 1.218-0.644 2.23-0.525 1.011 0.119 1.802 0.399 2.372 0.842v0c0.357 0.278 0.558 0.536 0.603 0.776 0.05 0.244 0.027 0.427-0.068 0.55-0.095 0.123-0.24 0.237-0.434 0.344-0.199 0.102-0.464 0.14-0.794 0.114v0c-0.082-0.004-0.121-0.047-0.117-0.13v0c0.024-0.075 0.126-0.124 0.306-0.147 0.171-0.021 0.338-0.105 0.503-0.251 0.159-0.15 0.163-0.314 0.01-0.492v0c-0.027-0.021-0.053-0.041-0.08-0.062v0c-0.368-0.286-0.935-0.508-1.7-0.667-0.77-0.154-1.477-0.135-2.123 0.057v0c-0.247 0.065-0.435 0.18-0.563 0.345-0.128 0.165-0.132 0.402-0.012 0.709v0c0.05 0.133 0.143 0.35 0.277 0.651 0.129 0.297 0.22 0.509 0.275 0.637 0.05 0.133 0.092 0.311 0.124 0.533 0.038 0.226 0.023 0.394-0.045 0.504v0c-0.176 0.325-0.551 0.534-1.127 0.625v0c-0.828 0.152-1.758-0.015-2.791-0.502v0c-0.235-0.105-0.453-0.237-0.656-0.394-0.203-0.157-0.281-0.342-0.236-0.555v0c-0.003-0.062 0.027-0.133 0.089-0.213 0.062-0.08 0.241-0.151 0.536-0.212v0c0.246-0.031 0.579 0.009 0.997 0.12v0c0.035 0.01 0.055 0.034 0.06 0.072 0.004 0.028-0.01 0.057-0.04 0.085-0.031 0.018-0.107 0.011-0.227-0.022-0.12-0.033-0.286-0.017-0.499 0.048z" fill="#55328b" data-fill-palette-color="accent"></path><path d="M106.244 21.859v0c0.287-0.083 0.482-0.173 0.583-0.273v0c0.179-0.175 0.197-0.334 0.056-0.479v0c-0.118-0.121-0.332-0.205-0.641-0.251v0c-1.201-0.167-2.691-0.011-4.468 0.469v0c-1.423 0.389-2.581 0.783-3.474 1.183v0c0.977 0.198 2.277 0.221 3.903 0.069 1.616-0.152 2.963-0.392 4.041-0.718zM97.601 22.822v0c-0.394 0.177-0.644 0.312-0.75 0.407-0.106 0.085-0.244 0.21-0.412 0.374-0.164 0.16-0.274 0.352-0.33 0.576v0c-0.086 0.367 0.136 0.627 0.664 0.782v0c0.39 0.119 0.957 0.198 1.702 0.235 0.749 0.042 1.377 0.024 1.885-0.056v0c0.048-0.009 0.088 0.003 0.121 0.037v0c0.075 0.077 0.036 0.153-0.117 0.228v0c-0.35 0.096-0.876 0.147-1.578 0.153-0.697 0.001-1.289-0.035-1.775-0.107-0.486-0.082-0.866-0.263-1.14-0.544v0c-0.637-0.652-0.639-1.287-0.005-1.905v0c0.024-0.024 0.051-0.05 0.079-0.078v0c0.632-0.551 1.833-1.129 3.603-1.733 1.774-0.609 3.197-0.983 4.268-1.123v0l0.882-0.097c0.205-0.012 0.475-0.006 0.809 0.017v0c0.663 0.022 1.172 0.215 1.526 0.577 0.358 0.367 0.488 0.722 0.388 1.064v0c-0.035 0.119-0.125 0.249-0.269 0.391-0.145 0.142-0.414 0.277-0.808 0.406v0c-2.39 0.616-5.305 0.748-8.743 0.396z" fill="#55328b" data-fill-palette-color="accent"></path><path d="M99.652 28.655v0c-0.114-0.151-0.194-0.348-0.241-0.592-0.038-0.242-0.02-0.488 0.054-0.737 0.07-0.255 0.202-0.456 0.397-0.602 0.189-0.142 0.402-0.235 0.64-0.278v0c0.546-0.106 1.167-0.087 1.865 0.055 0.698 0.143 1.355 0.342 1.97 0.599 0.615 0.256 1.054 0.492 1.317 0.708 0.268 0.221 0.497 0.459 0.687 0.713 0.191 0.254 0.288 0.518 0.293 0.794 0.008 0.281-0.058 0.474-0.199 0.579v0c-0.049 0.036-0.082 0.053-0.101 0.051-0.009-0.001-0.022-0.03-0.038-0.085v0c0.098-0.251 0.014-0.555-0.254-0.912-0.272-0.362-0.697-0.68-1.275-0.955-0.573-0.279-1.187-0.485-1.844-0.617v0c-0.565-0.1-1.142-0.126-1.732-0.08-0.585 0.042-0.969 0.132-1.152 0.271v0c-0.351 0.264-0.451 0.495-0.302 0.695 0.15 0.2 0.541 0.383 1.173 0.55v0c1.083 0.251 1.853 0.399 2.31 0.444v0c1.606 0.17 2.433 0.288 2.482 0.353v0c0.089 0.119 0.162 0.284 0.219 0.494 0.051 0.215 0.009 0.327-0.127 0.336v0c-1.056 0.033-1.965 0.268-2.727 0.705v0c-0.095 0.054-0.209 0.132-0.344 0.233-0.135 0.101-0.217 0.222-0.247 0.363v0c-0.042 0.259 0.098 0.462 0.42 0.61 0.322 0.147 0.85 0.295 1.586 0.442 0.732 0.143 1.391 0.205 1.978 0.187v0c0.077 0.001 0.121 0.032 0.131 0.091 0.009 0.069 0.006 0.109-0.01 0.122v0c-0.146 0.109-0.629 0.118-1.45 0.025-0.827-0.089-1.415-0.187-1.767-0.294v0c-0.675-0.202-1.155-0.492-1.439-0.871v0c-0.276-0.367-0.277-0.751-0.002-1.15v0c0.093-0.112 0.21-0.221 0.35-0.327v0c0.432-0.324 0.957-0.575 1.575-0.752v0c-0.05-0.022-0.375-0.056-0.976-0.103-0.597-0.041-1.219-0.144-1.866-0.309-0.651-0.17-1.102-0.422-1.354-0.756z" fill="#55328b" data-fill-palette-color="accent"></path><path d="M111.582 37.576v0c0.125 0.247 0.057 0.436-0.202 0.567-0.265 0.134-0.689 0.192-1.272 0.177-0.58-0.01-1.045-0.003-1.395 0.022v0c-0.592 0.041-1.035 0.136-1.331 0.285-0.295 0.149-0.469 0.293-0.519 0.432v0c-0.09 0.242 0.014 0.462 0.31 0.661 0.291 0.201 0.785 0.44 1.483 0.715 0.689 0.273 1.324 0.452 1.905 0.538v0c0.076 0.015 0.116 0.059 0.122 0.131-0.003 0.069-0.016 0.11-0.04 0.122-0.03 0.015-0.065 0.021-0.104 0.018v0c-0.371-0.017-0.885-0.121-1.541-0.312-0.662-0.188-1.226-0.407-1.692-0.655-0.466-0.249-0.793-0.561-0.981-0.935v0c-0.17-0.368-0.218-0.665-0.144-0.892 0.084-0.224 0.243-0.395 0.479-0.513 0.235-0.119 0.472-0.211 0.71-0.279 0.244-0.07 0.54-0.121 0.887-0.152v0c0.556-0.038 0.996-0.049 1.323-0.032 0.332 0.014 0.538 0.001 0.616-0.038 0.078-0.04 0.096-0.101 0.054-0.186v0c-0.088-0.175-0.46-0.396-1.117-0.662v0c-0.475-0.177-1.306-0.37-2.493-0.581-1.185-0.22-1.825-0.358-1.922-0.415v0c-0.387-0.289-0.604-0.478-0.65-0.569-0.049-0.096-0.058-0.152-0.027-0.167 0.036-0.018 0.086-0.032 0.149-0.041 0.072-0.006 0.418-0.048 1.037-0.126 0.619-0.078 1.293-0.164 2.024-0.26 0.737-0.099 1.18-0.156 1.331-0.172 0.151-0.016 0.279-0.039 0.385-0.069 0.1-0.028 0.184-0.047 0.253-0.06 0.078-0.009 0.171-0.007 0.277 0.008 0.109 0.021 0.191 0.078 0.245 0.171 0.055 0.093 0.108 0.222 0.16 0.385 0.046 0.166 0.018 0.275-0.085 0.326v0c-0.078 0.04-0.272 0.061-0.58 0.066-0.311 0.013-1.345 0.115-3.102 0.304v0c0.662 0.143 1.449 0.355 2.362 0.636 0.91 0.275 1.628 0.537 2.154 0.785v0c0.493 0.258 0.803 0.514 0.931 0.767z" fill="#55328b" data-fill-palette-color="accent"></path><path d="M111.855 42.904c0.598 0.389 1.135 0.815 1.613 1.278 0.478 0.464 0.8 0.844 0.967 1.142 0.168 0.304 0.295 0.612 0.381 0.924 0.084 0.306 0.061 0.628-0.07 0.965v0c4.108 0.569 6.36 1.573 6.757 3.012v0c0.135 0.488 0.085 0.856-0.148 1.102v0c-0.113 0.122-0.222 0.198-0.326 0.226v0c-0.286 0.079-0.686 0.053-1.199-0.079-0.517-0.123-1.111-0.37-1.78-0.738-0.677-0.373-1.537-0.938-2.579-1.695-1.049-0.754-1.633-1.171-1.753-1.25v0c-0.953-0.129-1.856-0.189-2.708-0.178-0.858 0.013-1.482 0.073-1.873 0.181-0.391 0.108-0.681 0.261-0.871 0.461v0c-0.13 0.113-0.192 0.242-0.187 0.388 0.012 0.144 0.06 0.257 0.146 0.338 0.092 0.08 0.168 0.139 0.228 0.179 0.06 0.04 0.123 0.092 0.19 0.157 0.059 0.061 0.081 0.114 0.066 0.161-0.011 0.038-0.074 0.048-0.191 0.031v0c-0.142-0.059-0.264-0.12-0.366-0.182v0c-0.18-0.146-0.305-0.343-0.373-0.591-0.068-0.247-0.108-0.415-0.118-0.503v0c-0.062-0.578 0.266-0.966 0.982-1.164v0c0.69-0.19 1.357-0.273 2.002-0.248v0c0.877 0.031 1.608 0.078 2.193 0.141v0c-2.652-1.258-4.084-2.274-4.298-3.048v0c-0.05-0.182-0.053-0.395-0.008-0.639 0.053-0.239 0.16-0.461 0.32-0.667 0.159-0.212 0.355-0.35 0.59-0.414 0.228-0.063 0.46-0.071 0.697-0.025v0c0.546 0.101 1.118 0.346 1.716 0.735zM113.781 47.07l0.654 0.082c0.034-0.156 0.002-0.41-0.095-0.762-0.095-0.345-0.361-0.751-0.799-1.219-0.431-0.47-0.927-0.886-1.49-1.249v0c-0.489-0.299-1.016-0.536-1.582-0.709-0.56-0.175-0.95-0.232-1.171-0.171v0c-0.423 0.117-0.601 0.296-0.535 0.537 0.066 0.241 0.363 0.555 0.89 0.942v0c1.402 0.993 2.778 1.843 4.128 2.549zM120.197 51.016v0c0.315 0.074 0.566 0.085 0.755 0.033 0.195-0.054 0.27-0.165 0.223-0.335-0.045-0.163-0.21-0.355-0.495-0.578v0c-1.32-1.002-3.257-1.7-5.811-2.095v0c0.688 0.616 1.548 1.219 2.58 1.81 1.033 0.598 1.95 0.986 2.748 1.165z" fill="#55328b" data-fill-palette-color="accent"></path><path d="M14.228 84.702v0c-0.222 0.08-0.512 0.084-0.868 0.012v0c-0.322-0.056-0.567-0.158-0.735-0.305-0.162-0.15-0.182-0.246-0.061-0.29v0c0.006-0.002 0.084 0.034 0.233 0.109v0c0.428 0.211 0.741 0.282 0.938 0.21v0c0.432-0.156 0.495-0.656 0.189-1.501v0c-0.131-0.362-0.369-0.811-0.713-1.347-0.347-0.542-0.771-1.032-1.273-1.467v0c-0.572-0.511-0.989-0.72-1.249-0.626v0c-0.21 0.076-0.34 0.342-0.39 0.798v0c-0.026 0.246-0.044 0.723-0.054 1.431-0.004 0.705-0.026 1.28-0.066 1.725-0.031 0.449-0.147 0.904-0.347 1.364-0.194 0.458-0.484 0.757-0.872 0.897-0.387 0.14-0.892 0.064-1.514-0.228v0c-0.926-0.455-1.81-1.163-2.652-2.122-0.849-0.957-1.416-1.832-1.703-2.626v0c-0.569-1.575-0.412-2.522 0.47-2.841 0.889-0.321 1.816-0.111 2.781 0.632v0c0.842 0.6 1.421 1.339 1.738 2.215v0c0.076 0.21 0.075 0.317-0.002 0.323v0c-0.079 0-0.171-0.136-0.276-0.406-0.107-0.277-0.332-0.602-0.675-0.973-0.343-0.372-0.757-0.685-1.244-0.94v0c-0.626-0.341-1.164-0.43-1.615-0.267v0c-0.279 0.101-0.478 0.327-0.595 0.678-0.126 0.347-0.052 0.898 0.221 1.655 0.275 0.762 0.667 1.468 1.174 2.117v0c1.103 1.403 2.041 2.192 2.815 2.364v0c0.286 0.076 0.508 0.086 0.667 0.028v0c0.457-0.165 0.715-0.574 0.774-1.227v0c0.064-0.756 0.079-1.788 0.044-3.096v0c-0.008-0.5 0.051-0.952 0.177-1.357 0.135-0.401 0.374-0.663 0.717-0.787 0.343-0.124 0.747-0.058 1.213 0.197 0.47 0.247 0.899 0.601 1.289 1.064v0c0.843 0.981 1.405 1.862 1.688 2.643v0c0.397 1.099 0.323 1.747-0.224 1.944z" fill="#55328b" data-fill-palette-color="accent"></path><path d="M18.659 90.386v0c0.162 0.123 0.279 0.245 0.353 0.367v0c0.242 0.398 0.291 0.728 0.149 0.988v0c-0.068 0.136-0.142 0.228-0.223 0.277v0c-0.612 0.371-1.699 0.324-3.261-0.143v0c-1.362-0.422-2.566-0.845-3.613-1.268v0c-0.722 0.098-1.583 0.261-2.582 0.488v0c0.598 0.087 1.31 0.22 2.137 0.398v0c1.649 0.374 2.594 0.761 2.835 1.159v0c0.123 0.202 0.089 0.368-0.1 0.499v0c-0.197 0.143-0.423 0.221-0.677 0.233-0.254 0.012-0.492 0.022-0.715 0.031v0c-0.964 0-1.722 0.168-2.277 0.504v0c-0.179 0.109-0.286 0.225-0.321 0.349v0c-0.067 0.215 0.033 0.399 0.299 0.553 0.271 0.16 0.724 0.335 1.361 0.525 0.631 0.194 1.209 0.313 1.734 0.358v0c0.074 0.018 0.112 0.054 0.113 0.109 0.001 0.054-0.009 0.089-0.032 0.103-0.023 0.014-0.051 0.019-0.085 0.016v0c-0.332 0.012-0.793-0.044-1.382-0.169-0.589-0.125-1.031-0.248-1.325-0.369v0c-0.57-0.223-0.97-0.525-1.202-0.906v0c-0.21-0.346-0.177-0.682 0.1-1.008v0c0.063-0.078 0.15-0.15 0.259-0.217 0.115-0.07 0.242-0.135 0.38-0.194v0c0.409-0.185 1.146-0.304 2.211-0.358v0c0.223-0.009 0.367-0.033 0.431-0.072 0.069-0.042 0.083-0.098 0.041-0.167v0c-0.091-0.15-0.445-0.323-1.061-0.518v0c-0.428-0.12-1.172-0.233-2.232-0.34-1.066-0.104-1.645-0.179-1.736-0.226v0c-0.358-0.225-0.561-0.378-0.611-0.459-0.046-0.075-0.06-0.125-0.044-0.151 0.02-0.02 0.052-0.032 0.097-0.035 0.051-0.007 0.294-0.056 0.729-0.146v0c1.466-0.305 2.442-0.498 2.93-0.581v0c-0.563-0.069-1.222-0.179-1.977-0.329v0c-0.115-0.033-0.12-0.081-0.016-0.144 0.104-0.063 0.235-0.087 0.394-0.073 0.162 0.02 0.476 0.063 0.942 0.127 0.469 0.071 0.815 0.114 1.038 0.129v0c-0.009-0.105 0.029-0.187 0.111-0.245 0.077-0.055 0.148-0.062 0.212-0.022 0.073 0.043 0.121 0.148 0.144 0.315v0c0.183 0.015 0.374 0.01 0.572-0.014v0c2.976-0.328 4.943-0.119 5.9 0.626zM18.099 91.768v0c0.289-0.018 0.509-0.072 0.66-0.163 0.15-0.091 0.185-0.203 0.104-0.335-0.077-0.127-0.266-0.249-0.566-0.368v0c-1.362-0.54-3.179-0.67-5.45-0.391v0c0.732 0.361 1.611 0.67 2.635 0.926 1.027 0.261 1.9 0.372 2.617 0.331z" fill="#55328b" data-fill-palette-color="accent"></path><path d="M19.623 99.264v0c0.373 0.436 0.349 0.834-0.072 1.194v0c-0.216 0.184-0.445 0.274-0.689 0.269v0c-0.469 0.054-1.007-0.05-1.614-0.313-0.607-0.263-1.057-0.54-1.35-0.831v0c-0.107-0.104-0.126-0.19-0.059-0.256v0c0.027-0.041 0.056-0.048 0.088-0.022 0.032 0.017 0.055 0.033 0.068 0.048v0c0.173 0.172 0.465 0.336 0.874 0.493v0c0.753 0.289 1.391 0.427 1.914 0.416v0c0.231-0.02 0.414-0.087 0.548-0.202 0.133-0.114 0.145-0.235 0.036-0.363v0c-0.088-0.103-0.255-0.204-0.501-0.305v0c-0.499-0.231-1.147-0.365-1.944-0.404-0.796-0.048-1.459 0.044-1.99 0.275v0c-0.163 0.069-0.307 0.156-0.43 0.261-0.128 0.11-0.203 0.267-0.224 0.471-0.025 0.199 0.054 0.407 0.239 0.622v0c0.206 0.241 0.512 0.464 0.917 0.668v0c1.146 0.593 2.305 0.815 3.476 0.668v0c0.101-0.006 0.149 0.028 0.142 0.104v0c0.011 0.044 0.006 0.075-0.014 0.092-0.026 0.022-0.065 0.033-0.118 0.034v0c-0.612 0.105-1.232 0.107-1.861 0.005v0c-1.221-0.191-2.121-0.626-2.7-1.303v0c-0.496-0.58-0.673-1.135-0.53-1.665v0c0.064-0.206 0.191-0.39 0.381-0.552 0.195-0.167 0.47-0.313 0.824-0.439v0c0.632-0.185 1.471-0.155 2.515 0.089 1.054 0.245 1.745 0.561 2.074 0.946z" fill="#55328b" data-fill-palette-color="accent"></path><path d="M20.707 107.386v0c-0.405-0.358-0.392-0.779 0.037-1.265 0.434-0.491 1.315-0.784 2.644-0.88v0c0.105-0.006 0.183-0.014 0.236-0.022v0l0.19-0.048c0.245-0.053 0.381-0.105 0.407-0.154v0l0.056-0.14c0.055-0.123-0.014-0.305-0.206-0.547-0.192-0.251-0.36-0.439-0.501-0.565v0c-1.603 0.376-2.526 0.589-2.767 0.637-0.237 0.043-0.364 0.034-0.382-0.026-0.023-0.056-0.018-0.102 0.013-0.137 0.027-0.03 0.092-0.058 0.196-0.084v0c0.891-0.141 1.754-0.374 2.591-0.698v0c-0.083-0.1-0.124-0.196-0.126-0.287-0.001-0.091 0.072-0.184 0.22-0.279 0.148-0.086 0.415-0.143 0.8-0.171 0.386-0.029 0.686-0.011 0.901 0.052 0.214 0.063 0.349 0.105 0.402 0.126 0.054 0.021 0.104 0.051 0.149 0.091v0c0.096 0.085-0.059 0.2-0.467 0.345v0l-1.127 0.328c0.341 0.338 0.638 0.618 0.891 0.842v0l0.424 0.361c0.137 0.121 0.22 0.226 0.249 0.315 0.034 0.094-0.001 0.17-0.108 0.229v0c-0.19 0.103-0.508 0.182-0.954 0.238v0c-0.968 0.136-1.85 0.411-2.647 0.823v0c-0.19 0.103-0.334 0.21-0.432 0.321v0c-0.201 0.228-0.218 0.415-0.052 0.563v0c0.056 0.049 0.2 0.1 0.433 0.153 0.233 0.053 0.677 0.075 1.332 0.069 0.655-0.007 1.235-0.071 1.739-0.194v0c0.066-0.014 0.113 0.01 0.14 0.071 0.023 0.056 0.025 0.094 0.007 0.114-0.018 0.02-0.043 0.034-0.076 0.04v0c-0.309 0.115-0.765 0.203-1.369 0.264-0.604 0.052-1.145 0.051-1.621 0v0c-0.48-0.028-0.887-0.189-1.222-0.485z" fill="#55328b" data-fill-palette-color="accent"></path><path d="M27.373 112.507v0c-0.451-0.298-0.497-0.717-0.14-1.257 0.361-0.546 1.193-0.96 2.495-1.241v0c0.103-0.021 0.18-0.039 0.231-0.055v0l0.182-0.073c0.236-0.087 0.363-0.157 0.381-0.21v0l0.036-0.146c0.037-0.129-0.057-0.3-0.28-0.513-0.226-0.222-0.417-0.385-0.575-0.489v0c-1.535 0.596-2.419 0.935-2.651 1.016-0.228 0.076-0.355 0.085-0.382 0.027-0.03-0.052-0.032-0.098-0.006-0.137 0.022-0.034 0.083-0.071 0.182-0.111v0c0.862-0.264 1.685-0.615 2.468-1.052v0c-0.096-0.088-0.151-0.176-0.164-0.266-0.013-0.09 0.046-0.192 0.178-0.307 0.134-0.105 0.391-0.199 0.769-0.282 0.378-0.082 0.678-0.107 0.899-0.074 0.221 0.033 0.36 0.056 0.416 0.069 0.056 0.013 0.11 0.036 0.16 0.069v0c0.107 0.071-0.031 0.206-0.414 0.407v0l-1.071 0.482c0.385 0.287 0.719 0.523 1 0.709v0l0.471 0.299c0.152 0.101 0.249 0.193 0.29 0.277 0.047 0.088 0.022 0.168-0.075 0.242v0c-0.174 0.128-0.477 0.251-0.911 0.369v0c-0.939 0.27-1.775 0.665-2.507 1.184v0c-0.174 0.128-0.301 0.254-0.383 0.378v0c-0.168 0.254-0.158 0.442 0.027 0.565v0c0.062 0.041 0.212 0.071 0.45 0.091 0.238 0.02 0.681-0.02 1.329-0.118 0.648-0.098 1.213-0.243 1.695-0.434v0c0.064-0.023 0.113-0.006 0.149 0.05 0.03 0.052 0.038 0.09 0.023 0.112-0.015 0.023-0.038 0.039-0.07 0.051v0c-0.29 0.157-0.729 0.307-1.319 0.452-0.591 0.135-1.127 0.211-1.606 0.226v0c-0.479 0.039-0.905-0.064-1.277-0.31z" fill="#55328b" data-fill-palette-color="accent"></path><path d="M30.217 120.782v0c-0.074-0.033-0.163-0.091-0.267-0.173v0c-0.439-0.342-0.571-0.711-0.396-1.106 0.172-0.389 0.643-0.768 1.411-1.136 0.775-0.366 2.221-0.73 4.339-1.092v0c1.731-1.456 2.885-2.504 3.463-3.141v0c-0.177 0.084-0.536 0.276-1.075 0.576-0.539 0.3-1.008 0.55-1.407 0.75-0.405 0.197-0.852 0.357-1.343 0.48-0.493 0.114-0.895 0.102-1.203-0.034-0.309-0.137-0.519-0.311-0.632-0.524-0.104-0.216-0.131-0.405-0.081-0.567 0.044-0.165 0.09-0.303 0.139-0.415v0c0.159-0.358 0.416-0.672 0.772-0.943v0c0.553-0.464 1.17-0.8 1.853-1.007v0c0.262-0.091 0.461-0.106 0.597-0.046 0.142 0.063 0.253 0.164 0.331 0.302v0c0.063 0.191 0.051 0.326-0.035 0.405v0c-0.463 0.046-1.068 0.269-1.815 0.67v0c-0.401 0.221-0.758 0.561-1.072 1.02v0c-0.042 0.062-0.087 0.146-0.133 0.251-0.044 0.099-0.039 0.197 0.013 0.295 0.056 0.106 0.128 0.178 0.215 0.216v0c0.296 0.131 0.682 0.11 1.158-0.063 0.469-0.176 0.933-0.373 1.391-0.591 0.455-0.227 0.983-0.502 1.585-0.827 0.602-0.324 0.998-0.536 1.19-0.636 0.192-0.1 0.35-0.122 0.473-0.067v0c0.154 0.068 0.296 0.183 0.424 0.343 0.122 0.158 0.163 0.257 0.123 0.298-0.047 0.038-0.537 0.479-1.471 1.32-0.943 0.845-1.619 1.447-2.029 1.804v0c0.289-0.02 0.816-0.141 1.579-0.364 0.763-0.223 1.448-0.492 2.053-0.807v0c0.142-0.07 0.208-0.052 0.198 0.054v0c0.004 0.024-0.003 0.058-0.023 0.101-0.019 0.043-0.077 0.091-0.174 0.144v0c-0.471 0.264-1.171 0.552-2.1 0.864-0.926 0.306-1.627 0.48-2.103 0.52v0c-1.579 1.331-2.605 2.155-3.077 2.471v0c-1.204 0.752-2.162 0.97-2.871 0.655zM34.78 117.707v0c-1.546 0.356-2.682 0.677-3.406 0.962-0.722 0.279-1.163 0.6-1.325 0.965-0.161 0.364-0.115 0.602 0.138 0.714v0c0.191 0.085 0.457 0.084 0.798-0.001 0.341-0.085 0.702-0.243 1.085-0.472 0.373-0.226 0.674-0.429 0.901-0.609 0.23-0.186 0.551-0.461 0.963-0.825 0.421-0.367 0.703-0.612 0.846-0.734z" fill="#55328b" data-fill-palette-color="accent"></path><path d="M59.49 113.826v0c-0.029 0.235-0.157 0.494-0.383 0.779v0c-0.196 0.262-0.397 0.434-0.605 0.517-0.207 0.076-0.302 0.051-0.286-0.076v0c0.001-0.007 0.069-0.06 0.203-0.159v0c0.383-0.286 0.587-0.533 0.612-0.741v0c0.057-0.456-0.361-0.739-1.252-0.849v0c-0.382-0.047-0.89-0.039-1.524 0.025-0.641 0.063-1.269 0.22-1.885 0.471v0c-0.715 0.279-1.09 0.555-1.124 0.83v0c-0.027 0.221 0.151 0.458 0.535 0.709v0c0.208 0.135 0.625 0.367 1.251 0.696 0.627 0.323 1.13 0.603 1.508 0.841 0.386 0.232 0.739 0.541 1.059 0.927 0.32 0.38 0.455 0.774 0.404 1.183-0.051 0.409-0.347 0.824-0.889 1.247v0c-0.825 0.619-1.856 1.086-3.093 1.403-1.238 0.323-2.275 0.432-3.113 0.328v0c-1.662-0.206-2.435-0.775-2.32-1.706 0.116-0.938 0.724-1.669 1.824-2.193v0c0.917-0.478 1.837-0.66 2.762-0.545v0c0.221 0.027 0.317 0.077 0.288 0.148v0c-0.036 0.07-0.198 0.091-0.488 0.062-0.296-0.03-0.687 0.024-1.173 0.16-0.486 0.137-0.954 0.365-1.402 0.684v0c-0.588 0.403-0.911 0.843-0.969 1.319v0c-0.037 0.295 0.075 0.574 0.335 0.837 0.252 0.269 0.777 0.454 1.574 0.553 0.804 0.1 1.611 0.071 2.42-0.088v0c1.751-0.348 2.879-0.827 3.383-1.438v0c0.197-0.22 0.307-0.414 0.327-0.582v0c0.06-0.482-0.188-0.898-0.743-1.245v0c-0.644-0.4-1.558-0.88-2.74-1.443v0c-0.449-0.219-0.825-0.477-1.129-0.772-0.296-0.302-0.421-0.634-0.377-0.996 0.045-0.362 0.287-0.693 0.725-0.992 0.433-0.307 0.943-0.529 1.533-0.668v0c1.256-0.307 2.296-0.409 3.12-0.307v0c1.159 0.144 1.703 0.504 1.632 1.081z" fill="#55328b" data-fill-palette-color="accent"></path><path d="M63.961 117.961c-0.144 0.141-0.399 0.494-0.764 1.061-0.359 0.566-0.598 1.06-0.718 1.484-0.113 0.423-0.159 0.769-0.136 1.038 0.022 0.262 0.144 0.384 0.366 0.365 0.229-0.019 0.534-0.211 0.917-0.575v0c0.62-0.601 1.284-1.684 1.993-3.248v0c0.034-0.077 0.108-0.121 0.222-0.131 0.108-0.009 0.262 0.008 0.462 0.053 0.2 0.044 0.304 0.113 0.312 0.207v0c0.002 0.027-0.005 0.058-0.022 0.093v0c-0.383 0.757-0.594 1.595-0.632 2.514v0c-0.015 0.306 0.06 0.551 0.225 0.733v0c0.15 0.177 0.428 0.13 0.832-0.142v0c0.625-0.378 1.181-0.94 1.667-1.685 0.487-0.739 0.77-1.397 0.85-1.973v0c0.031-0.118 0.04-0.244 0.029-0.379v0c-0.05-0.592-0.249-0.938-0.596-1.037v0c-0.098-0.032-0.206-0.037-0.327-0.013-0.113 0.023-0.181 0.025-0.202 0.007-0.022-0.025-0.032-0.055-0.028-0.089v0c0.012-0.096 0.227-0.161 0.644-0.197v0c0.686-0.058 1.059 0.266 1.119 0.973 0.06 0.707-0.272 1.592-0.996 2.656v0c-0.454 0.641-1.003 1.243-1.646 1.806v0c-0.354 0.301-0.74 0.469-1.157 0.504v0c-0.538 0.045-0.885-0.129-1.04-0.522v0c-0.09-0.182-0.152-0.482-0.188-0.899-0.035-0.41-0.013-0.751 0.066-1.022v0c-0.234 0.596-0.503 1.103-0.807 1.522-0.31 0.419-0.577 0.709-0.8 0.87-0.224 0.161-0.456 0.252-0.699 0.273v0c-0.424 0.036-0.729-0.05-0.916-0.258-0.188-0.215-0.292-0.453-0.315-0.716v0c-0.03-0.35 0.016-0.737 0.136-1.16 0.114-0.416 0.238-0.749 0.373-0.997 0.134-0.255 0.312-0.558 0.533-0.909 0.221-0.357 0.367-0.553 0.439-0.586v0c0.151-0.053 0.298-0.086 0.439-0.098 0.141-0.012 0.267-0.002 0.378 0.029 0.111 0.031 0.173 0.077 0.185 0.137 0.006 0.067-0.06 0.171-0.198 0.311z" fill="#55328b" data-fill-palette-color="accent"></path><path d="M76.333 115.213v0c0.554-0.15 0.903 0.043 1.048 0.578v0c0.074 0.274 0.056 0.52-0.052 0.738v0c-0.152 0.447-0.477 0.888-0.975 1.323-0.498 0.435-0.941 0.723-1.331 0.863v0c-0.14 0.052-0.225 0.033-0.256-0.057v0c-0.025-0.042-0.019-0.072 0.018-0.089 0.029-0.022 0.053-0.035 0.073-0.04v0c0.229-0.083 0.503-0.276 0.819-0.579v0c0.584-0.556 0.983-1.073 1.197-1.55v0c0.081-0.218 0.099-0.411 0.053-0.581-0.046-0.17-0.15-0.232-0.313-0.188v0c-0.13 0.035-0.294 0.142-0.49 0.321v0c-0.423 0.352-0.822 0.88-1.199 1.583-0.385 0.698-0.587 1.337-0.605 1.915v0c-0.008 0.177 0.009 0.344 0.051 0.5 0.044 0.163 0.154 0.298 0.329 0.405 0.169 0.108 0.391 0.125 0.665 0.051v0c0.306-0.083 0.639-0.263 0.997-0.542v0c1.027-0.781 1.725-1.732 2.094-2.853v0c0.038-0.094 0.089-0.122 0.155-0.084v0c0.044 0.009 0.07 0.027 0.078 0.053 0.009 0.033 0.002 0.073-0.02 0.121v0c-0.167 0.598-0.432 1.159-0.794 1.683v0c-0.697 1.02-1.475 1.647-2.336 1.879v0c-0.737 0.199-1.314 0.121-1.732-0.235v0c-0.158-0.146-0.27-0.34-0.335-0.581-0.067-0.248-0.081-0.559-0.042-0.933v0c0.104-0.651 0.491-1.395 1.16-2.233 0.674-0.846 1.255-1.336 1.744-1.468z" fill="#55328b" data-fill-palette-color="accent"></path><path d="M83.603 112.476v0c0.528-0.226 0.9-0.085 1.119 0.424v0c0.112 0.261 0.129 0.507 0.052 0.739v0c-0.088 0.464-0.347 0.946-0.78 1.447-0.432 0.501-0.83 0.848-1.195 1.041v0c-0.131 0.071-0.219 0.064-0.262-0.02v0c-0.031-0.038-0.029-0.068 0.005-0.09 0.026-0.026 0.048-0.043 0.067-0.051v0c0.215-0.114 0.459-0.344 0.73-0.687v0c0.5-0.633 0.822-1.201 0.966-1.704v0c0.05-0.227 0.04-0.421-0.029-0.583-0.069-0.161-0.181-0.209-0.336-0.142v0c-0.124 0.053-0.271 0.182-0.441 0.387v0c-0.369 0.408-0.69 0.986-0.964 1.736-0.283 0.746-0.393 1.406-0.329 1.981v0c0.017 0.176 0.057 0.339 0.121 0.489 0.067 0.155 0.194 0.273 0.383 0.353 0.183 0.083 0.404 0.069 0.665-0.042v0c0.292-0.125 0.595-0.351 0.911-0.677v0c0.907-0.918 1.464-1.957 1.671-3.119v0c0.024-0.098 0.071-0.133 0.143-0.106v0c0.045 0.003 0.073 0.016 0.083 0.042 0.013 0.031 0.012 0.072-0.002 0.122v0c-0.082 0.615-0.265 1.208-0.549 1.778v0c-0.546 1.108-1.229 1.838-2.048 2.19v0c-0.701 0.301-1.284 0.304-1.748 0.011v0c-0.177-0.122-0.315-0.298-0.414-0.528-0.101-0.236-0.159-0.542-0.173-0.918v0c0.011-0.659 0.289-1.45 0.834-2.374 0.548-0.933 1.055-1.499 1.52-1.699z" fill="#55328b" data-fill-palette-color="accent"></path><path d="M89.392 109.624l0.177-0.117c0.664-0.482 1.072-0.767 1.223-0.857 0.145-0.086 0.231-0.106 0.259-0.06v0c0.031 0.052-0.041 0.17-0.215 0.352-0.18 0.186-0.658 0.572-1.432 1.158v0c0.002 0.109 0.004 0.237 0.005 0.386v0c-0.002 0.3 0.003 0.474 0.016 0.521v0c0.101 1.346 0.222 2.17 0.362 2.472v0c0.037 0.088 0.093 0.196 0.169 0.324 0.076 0.128 0.176 0.21 0.299 0.246v0c0.214 0.069 0.402-0.031 0.564-0.3 0.156-0.266 0.332-0.716 0.529-1.352 0.199-0.629 0.324-1.206 0.373-1.73v0c0.007-0.067 0.046-0.102 0.115-0.104v0c0.177-0.019 0.156 0.481-0.063 1.499v0c-0.213 0.975-0.471 1.651-0.774 2.028v0c-0.178 0.216-0.345 0.37-0.502 0.463v0c-0.366 0.217-0.71 0.187-1.033-0.092v0c-0.055-0.053-0.109-0.124-0.161-0.211v0c-0.19-0.319-0.333-0.89-0.43-1.713v0c0.016 0.132-0.025 0.467-0.122 1.004v0c-0.026 0.141-0.09 0.179-0.191 0.114v0c-0.022-0.011-0.043-0.033-0.064-0.068-0.017-0.029-0.019-0.079-0.007-0.15v0c0.11-0.819 0.178-1.497 0.206-2.031v0c-0.003-0.006-0.016-0.258-0.037-0.756v0c-0.079 0.078-0.165 0.145-0.258 0.2-0.099 0.059-0.19 0.07-0.274 0.034-0.075-0.034-0.119-0.102-0.133-0.204v0c-0.022-0.183 0.17-0.408 0.577-0.673v0c0.001-0.024 0.013-0.043 0.037-0.057v0l-0.068-1.68c-0.01-0.096-0.014-0.196-0.013-0.299-0.002-0.109-0.003-0.191-0.004-0.245-0.001-0.054-0.002-0.109-0.003-0.163 0.001-0.064 0.006-0.109 0.013-0.138 0.004-0.034 0.009-0.064 0.016-0.092v0c0.01-0.076 0.101-0.166 0.275-0.27 0.18-0.107 0.331-0.13 0.454-0.069v0c0.05 0.018 0.1 0.07 0.152 0.157 0.052 0.087 0.077 0.202 0.075 0.344-0.002 0.142-0.026 0.259-0.074 0.351-0.048 0.091-0.068 0.17-0.06 0.236v0z" fill="#55328b" data-fill-palette-color="accent"></path><path d="M95.684 110.973v0c-0.011 0.205 0.044 0.321 0.166 0.346 0.122 0.025 0.223 0.006 0.303-0.056 0.075-0.058 0.146-0.131 0.215-0.218v0c0.276-0.394 0.458-0.881 0.546-1.462 0.093-0.585 0.009-1.046-0.252-1.382v0c-0.145-0.187-0.508-0.23-1.088-0.13v0c-0.267 0.053-0.421 0.079-0.465 0.079v0c-0.34 0.025-0.597-0.015-0.772-0.119v0c0.04 0.294 0.074 0.729 0.103 1.305v0c-0.005 0.115-0.046 0.172-0.123 0.172-0.082 0.004-0.129-0.045-0.14-0.147v0c-0.023-0.734-0.101-1.302-0.233-1.704v0c-0.302-0.51-0.291-1.184 0.031-2.025 0.328-0.844 0.742-1.461 1.244-1.85v0c0.32-0.248 0.588-0.366 0.803-0.354 0.219 0.018 0.37 0.08 0.453 0.187 0.083 0.107 0.151 0.255 0.203 0.445 0.048 0.194 0.023 0.426-0.073 0.698v0c-0.024 0.079-0.073 0.104-0.147 0.075v0c-0.053-0.036-0.072-0.132-0.057-0.289 0.024-0.156-0.011-0.317-0.105-0.482-0.093-0.175-0.233-0.217-0.418-0.125v0c-0.021 0.017-0.045 0.035-0.072 0.056v0c-0.325 0.253-0.638 0.692-0.938 1.318-0.304 0.621-0.446 1.231-0.426 1.831v0c0.005 0.227 0.064 0.412 0.175 0.556 0.116 0.149 0.321 0.204 0.615 0.164v0c0.117-0.014 0.321-0.044 0.61-0.089 0.286-0.051 0.487-0.083 0.604-0.097 0.127-0.013 0.29-0.012 0.491 0.004 0.204 0.021 0.347 0.073 0.428 0.155v0c0.232 0.222 0.328 0.588 0.287 1.097v0c-0.055 0.744-0.404 1.506-1.046 2.287v0c-0.143 0.179-0.305 0.339-0.486 0.48-0.176 0.137-0.35 0.165-0.523 0.086v0c-0.056-0.017-0.11-0.06-0.165-0.129-0.054-0.069-0.076-0.236-0.067-0.5v0c0.029-0.227 0.136-0.507 0.323-0.84v0c0.017-0.022 0.043-0.033 0.076-0.033 0.028 0.004 0.048 0.023 0.058 0.057 0.015 0.031-0.005 0.093-0.06 0.188-0.055 0.094-0.081 0.242-0.078 0.445z" fill="#55328b" data-fill-palette-color="accent"></path><path d="M99.7 96.209v0c-0.08-0.257-0.166-0.43-0.259-0.519v0c-0.16-0.155-0.303-0.167-0.43-0.037v0c-0.103 0.107-0.17 0.301-0.199 0.583v0c-0.118 1.062 0.054 2.373 0.516 3.932v0c0.381 1.255 0.759 2.271 1.134 3.05v0c0.154-0.867 0.145-2.02-0.03-3.46-0.174-1.43-0.418-2.613-0.732-3.549zM100.757 103.829v0c0.172 0.346 0.297 0.566 0.375 0.661 0.082 0.09 0.196 0.205 0.342 0.346 0.15 0.146 0.321 0.241 0.513 0.286v0c0.33 0.067 0.557-0.137 0.678-0.612v0c0.1-0.345 0.157-0.85 0.171-1.514 0.019-0.659-0.013-1.213-0.096-1.66v0c-0.005-0.043 0.006-0.079 0.035-0.108v0c0.066-0.068 0.133-0.04 0.201 0.083v0c0.095 0.319 0.155 0.786 0.179 1.401 0.019 0.621-0.002 1.146-0.063 1.577-0.051 0.431-0.199 0.772-0.444 1.024v0c-0.56 0.576-1.123 0.59-1.69 0.039v0c-0.019-0.019-0.041-0.04-0.065-0.064v0c-0.505-0.547-1.048-1.596-1.629-3.149-0.581-1.553-0.946-2.801-1.094-3.744v0l-0.104-0.78c-0.012-0.181-0.013-0.422-0.004-0.723v0c0.001-0.583 0.159-1.036 0.475-1.361 0.315-0.325 0.626-0.446 0.933-0.365v0c0.105 0.027 0.224 0.104 0.354 0.232 0.126 0.122 0.254 0.354 0.383 0.696v0c0.599 2.107 0.783 4.685 0.55 7.735z" fill="#55328b" data-fill-palette-color="accent"></path><path d="M107.106 100.119v0c-0.1 0.136-0.25 0.252-0.447 0.349-0.198 0.097-0.41 0.146-0.637 0.146-0.231 0.005-0.433-0.056-0.607-0.185-0.168-0.125-0.3-0.281-0.396-0.469v0c-0.23-0.439-0.372-0.973-0.427-1.602-0.059-0.624-0.055-1.23 0.011-1.819 0.063-0.584 0.153-1.017 0.27-1.301 0.117-0.283 0.26-0.538 0.429-0.766 0.165-0.222 0.364-0.373 0.599-0.451 0.235-0.078 0.417-0.069 0.547 0.027v0c0.043 0.032 0.064 0.056 0.061 0.07 0.007 0.013-0.012 0.033-0.056 0.059v0c-0.239-0.017-0.475 0.131-0.709 0.446-0.237 0.32-0.403 0.76-0.498 1.32-0.086 0.558-0.104 1.133-0.055 1.725v0c0.056 0.503 0.178 1.002 0.368 1.494 0.188 0.484 0.363 0.786 0.526 0.907v0c0.315 0.233 0.538 0.26 0.671 0.081 0.133-0.179 0.187-0.559 0.163-1.14v0c-0.06-0.986-0.129-1.675-0.207-2.069v0c-0.258-1.41-0.365-2.144-0.321-2.204v0c0.072-0.098 0.193-0.198 0.361-0.3 0.168-0.102 0.273-0.096 0.314 0.018v0c0.292 0.888 0.721 1.601 1.289 2.14v0c0.072 0.062 0.168 0.137 0.287 0.225 0.119 0.088 0.241 0.128 0.366 0.119v0c0.232-0.03 0.371-0.2 0.416-0.511 0.041-0.305 0.03-0.789-0.035-1.45-0.059-0.657-0.172-1.232-0.337-1.724v0c-0.015-0.07 0.002-0.116 0.052-0.138 0.054-0.027 0.089-0.035 0.105-0.023v0c0.125 0.092 0.256 0.5 0.393 1.223 0.127 0.724 0.189 1.249 0.183 1.573v0c0.001 0.623-0.125 1.105-0.378 1.447v0c-0.237 0.32-0.561 0.417-0.971 0.29v0c-0.114-0.051-0.236-0.124-0.366-0.221v0c-0.385-0.285-0.731-0.663-1.038-1.134v0c-0.008 0.045 0.047 0.329 0.164 0.852 0.115 0.514 0.183 1.069 0.204 1.664 0.025 0.59-0.073 1.034-0.294 1.332z" fill="#55328b" data-fill-palette-color="accent"></path><path d="M110.533 85.853v0c0.108-0.218 0.28-0.268 0.516-0.151 0.23 0.114 0.496 0.383 0.799 0.805 0.297 0.419 0.55 0.745 0.758 0.977v0c0.345 0.398 0.648 0.662 0.908 0.79 0.26 0.129 0.45 0.179 0.571 0.149v0c0.223-0.07 0.33-0.262 0.32-0.576-0.016-0.317-0.112-0.791-0.288-1.422-0.173-0.637-0.384-1.183-0.633-1.638v0c-0.027-0.066-0.017-0.118 0.031-0.155 0.051-0.042 0.089-0.058 0.114-0.045 0.024 0.012 0.044 0.033 0.059 0.063v0c0.188 0.274 0.389 0.695 0.605 1.263 0.21 0.564 0.352 1.08 0.429 1.548 0.073 0.459 0.027 0.855-0.138 1.187v0c-0.171 0.314-0.36 0.504-0.566 0.568-0.205 0.064-0.411 0.045-0.616-0.058-0.212-0.105-0.405-0.224-0.58-0.357-0.175-0.133-0.365-0.313-0.568-0.542v0c-0.324-0.38-0.566-0.689-0.726-0.927-0.167-0.241-0.286-0.38-0.359-0.416-0.073-0.036-0.127-0.018-0.163 0.054v0c-0.078 0.157-0.035 0.541 0.129 1.151v0c0.125 0.432 0.425 1.124 0.901 2.077 0.482 0.956 0.729 1.483 0.742 1.579v0c-0.002 0.429-0.024 0.686-0.066 0.771-0.042 0.085-0.078 0.119-0.109 0.104-0.03-0.015-0.065-0.044-0.104-0.086-0.045-0.045-0.259-0.268-0.64-0.669-0.384-0.395-0.803-0.826-1.258-1.293-0.457-0.476-0.732-0.764-0.826-0.863-0.094-0.099-0.177-0.175-0.25-0.226-0.079-0.054-0.139-0.107-0.181-0.159-0.045-0.045-0.092-0.11-0.141-0.194-0.045-0.09-0.05-0.18-0.014-0.267 0.036-0.088 0.099-0.192 0.19-0.313 0.09-0.121 0.184-0.157 0.28-0.109v0c0.067 0.033 0.186 0.157 0.359 0.37 0.173 0.214 0.788 0.894 1.848 2.039v0c-0.249-0.546-0.514-1.217-0.797-2.014-0.285-0.791-0.48-1.438-0.584-1.942v0c-0.083-0.486-0.067-0.844 0.048-1.073z" fill="#55328b" data-fill-palette-color="accent"></path><path d="M114.181 81.228c-0.28-0.56-0.496-1.127-0.647-1.701-0.152-0.567-0.225-1.004-0.218-1.31 0.007-0.306 0.048-0.596 0.123-0.869 0.077-0.28 0.239-0.515 0.488-0.707v0c-2.865-2.292-4.123-4.076-3.773-5.352v0c0.118-0.43 0.322-0.689 0.613-0.777v0c0.143-0.038 0.261-0.044 0.352-0.019v0c0.254 0.07 0.546 0.269 0.875 0.598 0.336 0.33 0.677 0.788 1.021 1.372 0.342 0.591 0.74 1.411 1.194 2.46 0.456 1.042 0.71 1.623 0.761 1.742v0c0.673 0.535 1.335 0.99 1.989 1.365 0.653 0.375 1.152 0.61 1.498 0.705 0.352 0.097 0.645 0.111 0.881 0.043v0c0.153-0.021 0.259-0.09 0.319-0.207 0.053-0.118 0.066-0.227 0.037-0.326-0.035-0.101-0.066-0.179-0.093-0.235-0.027-0.056-0.05-0.126-0.069-0.208-0.015-0.074-0.008-0.125 0.021-0.152 0.027-0.021 0.08 0.001 0.161 0.065v0c0.081 0.113 0.147 0.216 0.199 0.307v0c0.066 0.193 0.07 0.397 0.011 0.612-0.061 0.221-0.107 0.366-0.141 0.434v0c-0.212 0.467-0.634 0.614-1.265 0.44v0c-0.619-0.17-1.166-0.408-1.643-0.713v0c-0.649-0.416-1.186-0.781-1.611-1.093v0c1.453 2.156 2.086 3.576 1.898 4.26v0c-0.045 0.163-0.142 0.325-0.292 0.487-0.149 0.162-0.33 0.284-0.541 0.366-0.213 0.088-0.424 0.104-0.633 0.047-0.202-0.055-0.381-0.154-0.539-0.295v0c-0.373-0.326-0.698-0.773-0.976-1.339zM114.607 77.185l-0.468-0.359c-0.093 0.108-0.181 0.314-0.265 0.62-0.084 0.306-0.069 0.737 0.044 1.294 0.122 0.552 0.312 1.094 0.572 1.627v0c0.234 0.449 0.528 0.87 0.883 1.261 0.35 0.383 0.623 0.602 0.818 0.656v0c0.378 0.104 0.596 0.048 0.655-0.167 0.059-0.215-0.027-0.589-0.259-1.122v0c-0.62-1.389-1.28-2.659-1.98-3.81zM111.514 71.274v0c-0.212-0.198-0.402-0.32-0.572-0.367-0.169-0.046-0.275 0.005-0.316 0.155-0.041 0.15 0 0.371 0.123 0.664v0c0.544 1.361 1.698 2.77 3.461 4.227v0c-0.243-0.774-0.622-1.624-1.138-2.55-0.518-0.919-1.037-1.629-1.558-2.129z" fill="#55328b" data-fill-palette-color="accent"></path><path d="M0.639 62.053c0-2.242 1.817-4.059 4.059-4.058 2.242 0 4.059 1.817 4.059 4.058 0 2.242-1.817 4.059-4.059 4.059-2.242 0-4.059-1.817-4.059-4.059z" fill="#55328b" data-fill-palette-color="accent"></path><path d="M112.436 62.053c0-2.242 1.817-4.059 4.059-4.058 2.242 0 4.059 1.817 4.059 4.058 0 2.242-1.817 4.059-4.059 4.059-2.242 0-4.059-1.817-4.059-4.059z" fill="#55328b" data-fill-palette-color="accent"></path></g><g id="text-1"></g></svg></g></svg></g></svg></g><defs></defs></svg><rect width="395.52" height="87.63286138066373" fill="none" stroke="none" visibility="hidden"></rect></g></svg></g></svg>