<svg xmlns="http://www.w3.org/2000/svg" version="1.1" xmlns:xlink="http://www.w3.org/1999/xlink" xmlns:svgjs="http://svgjs.dev/svgjs" width="1500" height="1682" viewBox="0 0 1500 1682"><g transform="matrix(1,0,0,1,-2.3364369158880436,0)"><svg viewBox="0 0 321 360" data-background-color="#ffffff" preserveAspectRatio="xMidYMid meet" height="1682" width="1500" xmlns="http://www.w3.org/2000/svg" xmlns:xlink="http://www.w3.org/1999/xlink"><g id="tight-bounds" transform="matrix(1,0,0,1,0.5000025000000505,0)"><svg viewBox="0 0 320 360" height="360" width="320"><g><svg></svg></g><g><svg viewBox="0 0 320 360" height="360" width="320"><g><path transform="translate(-19.44751,3.1739) scale(3.53591,3.53591)" d="M67.6 10.7c0.2 0 1.8 0.8 2.7 1.1-0.3 0.1-1-0.2-1.8-0.5 0.2 0 0.6 0.1 1 0.3-0.2-0.2-1.7-0.7-1.9-0.9M52.7 7.6c0.3-0.1 3.8 0.4 5.4 0.5 0.1-0.1-0.2-0.1-0.6-0.2 0.5-0.1 1.5 0.2 2.2 0.3-2.1 0.1-4.4-0.5-6.4-0.3-0.7 0-0.2-0.2-0.6-0.3M49.8 7.6c1.8 0 3.2 0 0.6 0.2-0.3-0.1-0.7-0.1-0.6-0.2M78.1 15.9c0.2 0 1 0.9 1.4 1.2-0.1 0.1-0.9-0.7-1.3-1 0.1 0.1 0 0-0.1-0.2M76.1 14.6c-0.8-0.7-1.1-0.7-1.2-1.1 0.7 0.4 1.2 0.8 1.2 1.1M63.2 8.3c0.1-0.1 0.3 0.1 0.8 0.2-0.6-0.1-0.5 0-0.3 0.2-0.7-0.1-0.9-0.2-0.7-0.4 0.4 0.2 0.5 0.1 0.2 0M34.8 9.5c0-0.1 0.4-0.3 0.7-0.4-0.3 0.2-0.2 0.3 0.3 0.1 0 0.1-0.6 0.3-1 0.5 0.2-0.1 0.4-0.4 0-0.2M65.2 7.3c-0.3 0.1-1.4-0.5-2.5-0.7-0.6-0.2 2.4 0.5 2.5 0.7M6.2 56.7c0.6 2.5 0.2 2.4 0 0M6.3 41.7c0.1-0.4 0.2-1.5 0.3-1.4-0.3 2.4-0.8 3.5-0.9 5.3 0.3-1.6-0.1 0.9-0.2 1.5 0.1 0.8 0.1-0.5 0.3-0.3 0.2 0.3-0.4 4.5-0.2 2.2-0.2 2.1 0 4.4 0.4 5-0.5 3.2 2 10.4 2.5 11.9 0.1 0.1 0-0.5 0.2-0.1 0.2 1.3 1.1 2.2 1.4 3.6 0.3 0.4 1.5 2.6 1.7 3.1 0.4 0.8 0.6 0.7 1 1.5 1.2 2.3 3.1 4.5 4.9 6.6 5.8 6.8 14.7 12.4 24.6 14.4 9.9 2.1 20.3 0.6 28.4-3.3 0.5-0.3 0.4-0.4 1-0.6 2.8-0.9 6.2-3.8 8.1-4.9 0.9-1 3.3-2.7 3.6-3.7 1.7-1.4 3.4-3.7 4.3-5.2 0.5-0.8 0.9-0.8 1.1-1.3-0.1 0 1.6-2.1 2.1-3.3-0.2 0-0.5 0.6-0.5 0 3.6-6.9 5.6-16.2 4.5-22.6 0.2 7.9-1.8 16.7-5.6 22.3-1.7 3.6-5.2 7.5-8.4 10.3-0.5 0.5-1 1.1-1.6 1.5-1.9 1.6-4 2.9-6.2 4.1-5.2 2.9-11 5.4-17.8 5.5 11.7-1 22.2-6.9 28-14.1-4.4 4.3-6.3 6-11.2 8.5-0.4 0.7-3.7 2.1-5.9 2.7 1.3-0.6 4-1.6 4.9-2.4-7.3 3.5-15.4 5.5-23 4.4 2.9 0 7 0.1 10.9-0.6 0.6-0.2 0.9-0.4 1.6-0.5 7.6-1.7 14.9-5.4 20.1-10.6-3 2.7-7.5 5.9-10.4 6.9 2.7-1.5 7.6-4.4 9.2-6.6-3.2 3.2-9.2 6.4-13 7.8-0.6 0.1 0.4-0.4-0.6 0-1.2 0.3-0.7 0.3-1 0.5-4.6 1.3-9.9 2.4-14.3 2-0.8-0.1-1.1-0.3-1.8-0.3-0.8-0.1-1.5-0.1-2.4-0.1-3.5-0.4-7.3-1.8-10.1-3-1.5-0.7-3-1.2-4.5-2.1-1.2-0.7-2.2-1.5-3.2-2.3-3.8-2.8-7-5.6-10-9.6-5.4-7.5-8.2-16.9-7.8-26.2 0.4-9.3 4.1-18.4 10-25.1-0.3 0.3 0.4-0.7 1-1.3 0 0.2-0.1 0.5 0.6-0.2 0.6-0.7-0.2-0.2 0.1-0.6 6.2-6.8 17-12.3 28.1-12.5 0.4-0.3 1.1-0.7 1.9-0.5 0 0.1-0.5 0.1-0.5 0.1 1.1-0.1 2.1-0.1 2.6 0.1 0.1-0.1-0.4-0.2 0-0.2 0.7 0.2 0.9 0 1.3 0.2-0.3 0-0.6 0-0.8 0.1 2.5 0 4.1 0.6 6.6 0.8-1.3-0.3-1.6-0.3-2.6-0.6 1.1 0.2 1.6 0.4 2.1 0.3-0.2 0-0.1-0.3 0.1-0.2 2 0.5 2.2 0.7 4.3 1.4 0.2-0.2-0.9-0.3-1.2-0.6 2 0.7 3.8 1.2 5 2-0.4-0.3-1.6-0.7-2.5-1.1-0.1 0.1 0.3 0.2 0.4 0.4-1-0.5-2.4-1-3.8-1.2 1.2 0.3 2 0.7 2.5 0.9-1.1-0.2-2.5-0.9-4.1-1.2 2.6 0.8 7.5 2.6 10.5 4.2-1.1-0.7-2.4-1.2-3.1-1.6 0.6 0.1 1.3 0.5 1.3 0.3 0.7 0.3 1.6 1 2.1 1.1-0.9-0.6-2.7-1.5-3.3-1.8 7.5 3.4 14.2 9.1 18.5 16.4 0.4 0.7 1 2.3 1.5 2.5-0.1-0.5-0.5-0.8-0.9-1.6 0.2 0 0.2-0.3 0-0.6-0.4-0.5 0 0.4-0.4-0.1-1.8-3.3-4-6.2-7.4-9.4 1.9 1.8 0.5 0.5 0.1-0.1 2.6 2.3 5.6 6.2 6.9 8.2-0.2-0.3-0.3-0.5-0.2-0.5 2.4 4.1 3.9 7.8 5.4 13.1 0.1 0.1 0-0.4 0.2-0.1 1 4.2 1.3 7.7 1.2 10.9 0.8-5.4-1-13.8-4.2-20.4-0.4-0.8-0.4-0.2-0.8-1.1 0-0.3-0.3-0.9-0.5-1.3-4-6.6-8.9-11.3-14.7-15 0.4 0.2 1.2 0.8 1.2 0.7-10.8-7.1-23.3-8.1-33.6-5.9-0.7 0.3-1 0.6-1.8 1 1.5-0.5 2.4-0.6 3.8-0.9 0.3-0.3-1.3 0.1-0.6-0.2 0.1 0.1 1.4-0.2 1.7-0.1 0 0.1-0.4 0.2-0.5 0.3 3.3-0.7 6.7-0.8 9.6-0.6-1.7 0.1-4.8-0.2-5.8 0.3 1-0.1 2.4-0.2 3.3-0.1-1.2 0-3.4 0.1-4.4 0.2-0.1-0.1 1.6-0.3 0.5-0.3-0.5 0.1-1.3 0.1-1.6 0.4-8.6 0.8-17 5.3-22.9 10.6-1.2 1-2.6 2.1-3.5 3.2-2.2 2.5-3.6 5-5.2 7.2 1-2.1 3.2-5.3 5.8-8 2.6-2.7 5.4-5 6.9-6.2 0 0.4 2.4-1.5 3.3-2.1-0.6 0.5 0.4-0.2 0.6-0.1 3.2-1.9 5.8-2.6 8.7-3.7-0.7 0.2-1.3 0.4-1.4 0.3 0.7-0.2 1.1-0.4 1-0.5-2.8 0.8-7.2 2.7-10.7 4.8 6.3-4.3 14.3-6.9 22.2-7 7.9-0.2 15.6 1.8 21.7 5 4.1 1.8 8 5.1 11.1 8.3 0.9 0.8 0.2-0.2 1.5 1.2-0.4-0.2-0.7-0.4-0.2 0.2 0.8 0.9-0.2-0.7 1.1 0.9-0.1 0-0.5-0.5-0.5-0.3 3.5 3.1 6.2 8.7 7.8 12.4-0.4-1.5-1.4-3.6-2.2-5.1 2.4 4.4 3.2 7 4.2 10.9 0.4 0.3-0.2-1.4 0.2-0.6 0.1 0.6 0.2 2.5 0.6 2.8-0.3-1.9-0.8-4.2-1.2-4.6 0.3 0.2-0.5-2.3-1-2.9-0.2-1.6-1.6-4.4-2.8-6.5-4.3-8.4-12-15.3-20.6-19.1 0-0.2-0.5-0.4-0.7-0.6-8.5-3.6-18.7-4.6-28.5-2.3-9.9 2.4-19.2 8.1-25.8 16.3 0.3-1 2.8-2.9 2.9-3.7-2.9 3.1-6 7.2-8.1 11.6-2.2 4.4-3.4 8.9-3.9 12.2" fill="#755bb4" fill-rule="nonzero" stroke="none" stroke-width="1" stroke-linecap="butt" stroke-linejoin="miter" stroke-miterlimit="10" stroke-dasharray="" stroke-dashoffset="0" font-family="none" font-weight="none" font-size="none" text-anchor="none" style="mix-blend-mode: normal" data-fill-palette-color="tertiary"></path></g><g transform="matrix(1,0,0,1,51.11414294756064,90)"><svg viewBox="0 0 217.77171410487873 180" height="180" width="217.77171410487873"><g><svg viewBox="0 0 224 185.14801229227555" height="180" width="217.77171410487873"><g transform="matrix(1,0,0,1,0,136.84899106471815)"><svg viewBox="0 0 224 48.299021227557404" height="48.299021227557404" width="224"><g id="textblocktransform"><svg viewBox="0 0 224 48.299021227557404" height="48.299021227557404" width="224" id="textblock"><g><svg viewBox="0 0 224 32.50104384133611" height="32.50104384133611" width="224"><g transform="matrix(1,0,0,1,0,0)"><svg width="224" viewBox="0.7 -29.6 335.26 48.650000000000006" height="32.50104384133611" data-palette-color="#55328b"><path d="M32.25-26.4L32.25-26.4Q32.25-25.3 31.35-23.85L31.35-23.85Q30.6-22.5 29.68-22 28.75-21.5 28.75-22.1L28.75-22.1Q28.75-22.15 29.3-22.7L29.3-22.7Q30.95-24.25 30.95-25.25L30.95-25.25Q30.95-27.4 26.7-27.4L26.7-27.4Q24.9-27.4 21.95-26.73 19-26.05 16.25-24.55L16.25-24.55Q13.05-22.8 13.05-21.5L13.05-21.5Q13.05-20.45 15-19.5L15-19.5Q16.05-19 19.18-17.82 22.3-16.65 24.23-15.78 26.15-14.9 27.88-13.3 29.6-11.7 29.6-9.75 29.6-7.8 27.3-5.5L27.3-5.5Q23.8-2.15 18.2 0.08 12.6 2.3 8.6 2.3L8.6 2.3Q0.7 2.3 0.7-2.15 0.7-6.6 5.55-9.7L5.55-9.7Q9.55-12.45 13.95-12.45L13.95-12.45Q15-12.45 14.9-12.1L14.9-12.1Q14.8-11.75 13.4-11.73 12-11.7 9.8-10.78 7.6-9.85 5.7-8.1L5.7-8.1Q3.2-5.85 3.2-3.6L3.2-3.6Q3.2-2.2 4.55-1.1 5.9 0 9.7 0 13.5 0 17.2-1.2L17.2-1.2Q25.2-3.85 27.2-7L27.2-7Q28-8.15 28-8.95L28-8.95Q28-11.25 25.2-12.55L25.2-12.55Q21.95-14.05 16.1-16L16.1-16Q13.85-16.75 12.28-17.98 10.7-19.2 10.7-20.93 10.7-22.65 12.58-24.33 14.45-26 17.1-27L17.1-27Q22.8-29.15 26.75-29.15L26.75-29.15Q32.25-29.15 32.25-26.4ZM48.75-29.25L48.75-29.25Q49.65-29.6 50.3-29.6L50.3-29.6Q52.5-29.6 53.2-28.4L53.2-28.4Q53.6-27.8 53.6-27.35L53.6-27.35Q53.6-23.95 47.9-18.8L47.9-18.8Q42.85-14.35 38.6-11.15L38.6-11.15Q37.2-8 35.7-3.4L35.7-3.4Q37.5-5.6 40.25-8.5L40.25-8.5Q45.8-14.25 48-14.25L48-14.25Q49.1-14.25 49.15-13.15L49.15-13.15Q49.25-12 48.67-10.95 48.1-9.9 47.6-9L47.6-9Q45.25-5.1 45.25-2.05L45.25-2.05Q45.25-1.05 45.65-0.6L45.65-0.6Q46.35 0.2 47.65-0.5 48.95-1.2 51.27-3.3 53.6-5.4 55.05-7.4L55.05-7.4Q55.3-7.65 55.52-7.53 55.75-7.4 55.75-7.28 55.75-7.15 55.65-7L55.65-7Q54.9-5.65 52.95-3.58 51-1.5 49.8-0.6L49.8-0.6Q47.5 1.15 45.4 1.15L45.4 1.15Q43.5 1.15 42.85-0.75L42.85-0.75Q42.7-1.2 42.7-1.83 42.7-2.45 42.8-3.15L42.8-3.15Q43.05-5.25 45.45-9.7L45.45-9.7Q45.95-10.6 45.95-10.98 45.95-11.35 45.55-11.35L45.55-11.35Q44.75-11.35 42.45-9.35L42.45-9.35Q40.9-7.9 37.87-3.88 34.85 0.15 34.45 0.4L34.45 0.4Q32.65 1.3 32.22 1.3 31.8 1.3 31.75 1.18 31.7 1.05 31.8 0.85 31.9 0.65 32.6-1.35L32.6-1.35Q34.95-8 35.8-10.15L35.8-10.15Q34.15-8.05 31.7-5.4L31.7-5.4Q31.3-5 31.3-5.58 31.3-6.15 31.75-6.75 32.2-7.35 33.62-9.08 35.05-10.8 35.65-11.65L35.65-11.65Q35.2-11.9 35.17-12.35 35.15-12.8 35.47-12.98 35.8-13.15 36.55-12.85L36.55-12.85Q37.05-13.55 37.45-14.4L37.45-14.4Q43.4-27.2 48.75-29.25ZM51.55-25.5L51.55-25.5Q52.2-26.7 52.2-27.53 52.2-28.35 51.47-28.35 50.75-28.35 49.55-27.45L49.55-27.45Q44.05-23.25 39.6-13.4L39.6-13.4Q42.85-15.5 46.4-19 49.95-22.5 51.55-25.5ZM65.95-14.55L65.95-14.55Q68.65-14.55 68.65-11.95L68.65-11.95Q68.65-10.6 67.9-9.75L67.9-9.75Q66.65-7.9 63.85-6.53 61.05-5.15 59.1-5L59.1-5Q58.4-4.95 58.35-5.4L58.35-5.4Q58.3-5.6 58.47-5.65 58.65-5.7 58.75-5.7L58.75-5.7Q59.9-5.8 61.7-6.8L61.7-6.8Q65.05-8.6 66.59-10.5L66.59-10.5Q67.25-11.4 67.25-12.23 67.25-13.05 66.45-13.05L66.45-13.05Q65.8-13.05 64.7-12.5L64.7-12.5Q62.35-11.4 59.75-8.68 57.15-5.95 56.35-3.35L56.35-3.35Q56.1-2.55 56.1-1.78 56.1-1 56.75-0.3 57.4 0.4 58.75 0.4L58.75 0.4Q60.25 0.4 62.2-0.4L62.2-0.4Q67.84-2.7 70.9-7.35L70.9-7.35Q71.2-7.75 71.45-7.5L71.45-7.5Q71.65-7.4 71.65-7.25 71.65-7.1 71.5-6.9L71.5-6.9Q70-4.4 67.7-2.45L67.7-2.45Q63.25 1.35 59.05 1.35L59.05 1.35Q55.45 1.35 54-0.8L54-0.8Q53.45-1.65 53.45-2.85 53.45-4.05 54.1-5.7L54.1-5.7Q55.35-8.55 59.45-11.55 63.55-14.55 65.95-14.55ZM76.94 1.25L76.94 1.25Q74.39 1.25 74.39-1.83 74.39-4.9 78.79-9.4L78.79-9.4Q79.14-9.75 79.29-9.95L79.29-9.95 79.64-10.45Q80.34-11.4 80.29-11.65L80.29-11.65 80.14-12.1Q79.94-12.7 78.49-12.98 77.04-13.25 76.14-13.25L76.14-13.25Q71.64-6.9 70.94-6 70.24-5.1 69.99-5.25 69.74-5.4 69.74-5.6 69.74-5.8 70.04-6.2L70.04-6.2Q72.74-9.5 74.69-13.25L74.69-13.25Q74.09-13.35 73.79-13.68 73.49-14 73.74-14.78 73.99-15.55 75.27-16.85 76.54-18.15 77.49-18.6 78.44-19.05 78.69-19.15 78.94-19.25 79.24-19.25L79.24-19.25Q79.84-19.25 78.84-17.45L78.84-17.45 76.89-14.35Q79.14-14.2 80.74-14.2L80.74-14.2 82.49-14.25Q83.34-14.25 83.74-14.03 84.14-13.8 83.94-13.25L83.94-13.25Q83.59-12.3 82.19-10.7L82.19-10.7Q79.19-7.2 77.69-3.25L77.69-3.25Q77.34-2.3 77.34-1.6L77.34-1.6Q77.34-0.15 78.39-0.15L78.39-0.15Q78.74-0.15 79.72-0.7 80.69-1.25 82.99-3.33 85.29-5.4 86.69-7.4L86.69-7.4Q86.89-7.65 87.17-7.53 87.44-7.4 87.44-7.28 87.44-7.15 87.34-7L87.34-7Q86.59-5.65 84.64-3.55 82.69-1.45 80.84-0.15L80.84-0.15Q79.04 1.25 76.94 1.25ZM92.69 1.25L92.69 1.25Q90.14 1.25 90.14-1.83 90.14-4.9 94.54-9.4L94.54-9.4Q94.89-9.75 95.04-9.95L95.04-9.95 95.39-10.45Q96.09-11.4 96.04-11.65L96.04-11.65 95.89-12.1Q95.69-12.7 94.24-12.98 92.79-13.25 91.89-13.25L91.89-13.25Q87.39-6.9 86.69-6 85.99-5.1 85.74-5.25 85.49-5.4 85.49-5.6 85.49-5.8 85.79-6.2L85.79-6.2Q88.49-9.5 90.44-13.25L90.44-13.25Q89.84-13.35 89.54-13.68 89.24-14 89.49-14.78 89.74-15.55 91.02-16.85 92.29-18.15 93.24-18.6 94.19-19.05 94.44-19.15 94.69-19.25 94.99-19.25L94.99-19.25Q95.59-19.25 94.59-17.45L94.59-17.45 92.64-14.35Q94.89-14.2 96.49-14.2L96.49-14.2 98.24-14.25Q99.09-14.25 99.49-14.03 99.89-13.8 99.69-13.25L99.69-13.25Q99.34-12.3 97.94-10.7L97.94-10.7Q94.94-7.2 93.44-3.25L93.44-3.25Q93.09-2.3 93.09-1.6L93.09-1.6Q93.09-0.15 94.14-0.15L94.14-0.15Q94.49-0.15 95.47-0.7 96.44-1.25 98.74-3.33 101.04-5.4 102.44-7.4L102.44-7.4Q102.64-7.65 102.92-7.53 103.19-7.4 103.19-7.28 103.19-7.15 103.09-7L103.09-7Q102.34-5.65 100.39-3.55 98.44-1.45 96.59-0.15L96.59-0.15Q94.79 1.25 92.69 1.25ZM100.49 19.05L100.49 19.05Q100.09 19.05 99.49 18.9L99.49 18.9Q96.94 18.25 96.94 16.23 96.94 14.2 99.56 11.15 102.19 8.1 110.64 2.5L110.64 2.5Q115.34-7.1 116.59-10.95L116.59-10.95Q115.99-10.25 114.24-7.93 112.49-5.6 111.14-3.98 109.79-2.35 107.89-0.9 105.99 0.55 104.39 0.55 102.79 0.55 101.91-0.18 101.04-0.9 100.94-1.7 100.84-2.5 100.84-3.05L100.84-3.05Q100.84-4.9 101.84-6.75L101.84-6.75Q103.34-9.8 105.89-12L105.89-12Q106.84-12.9 107.56-12.9 108.29-12.9 108.89-12.45L108.89-12.45Q109.54-11.75 109.29-11.25L109.29-11.25Q107.39-10.15 104.94-7L104.94-7Q103.64-5.3 103.14-2.7L103.14-2.7Q103.09-2.35 103.09-1.83 103.09-1.3 103.51-0.98 103.94-0.65 104.39-0.65L104.39-0.65Q105.94-0.65 107.64-2.3 109.34-3.95 110.89-5.78 112.44-7.6 114.41-10.15 116.39-12.7 117.01-13.5 117.64-14.3 118.29-14.3L118.29-14.3Q119.09-14.3 119.94-13.85 120.79-13.4 120.66-13.15 120.54-12.9 118.11-7.48 115.69-2.05 114.59 0.3L114.59 0.3Q115.79-0.35 118.66-2.78 121.54-5.2 123.54-7.7L123.54-7.7Q124.04-8.3 124.19-7.8L124.19-7.8Q124.24-7.7 124.24-7.48 124.24-7.25 123.94-6.85L123.94-6.85Q122.39-4.8 118.99-1.7 115.59 1.4 113.59 2.5L113.59 2.5Q109.34 11.25 107.89 13.5L107.89 13.5Q104.14 19.05 100.49 19.05ZM109.69 4.4L109.69 4.4Q103.69 8.9 101.11 11.5 98.54 14.1 98.54 15.98 98.54 17.85 99.84 17.85L99.84 17.85Q100.84 17.85 102.14 16.82 103.44 15.8 104.64 14.1 105.84 12.4 106.46 11.18 107.09 9.95 108.19 7.58 109.29 5.2 109.69 4.4ZM163.83-26.4L163.83-26.4Q163.83-25.3 162.93-23.85L162.93-23.85Q162.18-22.5 161.26-22 160.33-21.5 160.33-22.1L160.33-22.1Q160.33-22.15 160.88-22.7L160.88-22.7Q162.53-24.25 162.53-25.25L162.53-25.25Q162.53-27.4 158.28-27.4L158.28-27.4Q156.48-27.4 153.53-26.73 150.58-26.05 147.83-24.55L147.83-24.55Q144.63-22.8 144.63-21.5L144.63-21.5Q144.63-20.45 146.58-19.5L146.58-19.5Q147.63-19 150.76-17.82 153.88-16.65 155.81-15.78 157.73-14.9 159.46-13.3 161.18-11.7 161.18-9.75 161.18-7.8 158.88-5.5L158.88-5.5Q155.38-2.15 149.78 0.08 144.18 2.3 140.18 2.3L140.18 2.3Q132.28 2.3 132.28-2.15 132.28-6.6 137.13-9.7L137.13-9.7Q141.13-12.45 145.53-12.45L145.53-12.45Q146.58-12.45 146.48-12.1L146.48-12.1Q146.38-11.75 144.98-11.73 143.58-11.7 141.38-10.78 139.18-9.85 137.28-8.1L137.28-8.1Q134.78-5.85 134.78-3.6L134.78-3.6Q134.78-2.2 136.13-1.1 137.48 0 141.28 0 145.08 0 148.78-1.2L148.78-1.2Q156.78-3.85 158.78-7L158.78-7Q159.58-8.15 159.58-8.95L159.58-8.95Q159.58-11.25 156.78-12.55L156.78-12.55Q153.53-14.05 147.68-16L147.68-16Q145.43-16.75 143.86-17.98 142.28-19.2 142.28-20.93 142.28-22.65 144.16-24.33 146.03-26 148.68-27L148.68-27Q154.38-29.15 158.33-29.15L158.33-29.15Q163.83-29.15 163.83-26.4ZM170.86-12.5Q170.13-11.9 168.21-9.38 166.28-6.85 165.56-4.9 164.83-2.95 164.83-1.7 164.83-0.45 165.91-0.45 166.98-0.45 168.93-2L168.93-2Q172.08-4.6 176.03-11.65L176.03-11.65Q176.23-12 176.75-12 177.28-12 178.21-11.73 179.13-11.45 179.13-11L179.13-11Q179.13-10.85 179.03-10.7L179.03-10.7Q176.93-7.3 176.38-3L176.38-3Q176.18-1.55 176.88-0.65L176.88-0.65Q177.53 0.25 179.53-0.85L179.53-0.85Q182.63-2.4 185.21-5.7 187.78-9 188.38-11.65L188.38-11.65Q188.58-12.2 188.58-12.85L188.58-12.85Q188.58-15.65 186.98-16.25L186.98-16.25Q186.53-16.45 185.98-16.38 185.43-16.3 185.33-16.43 185.23-16.55 185.28-16.7L185.28-16.7Q185.38-17.15 187.33-17.15L187.33-17.15Q190.58-17.15 190.58-13.8 190.58-10.45 186.78-5.75L186.78-5.75Q184.38-2.9 181.13-0.5L181.13-0.5Q179.33 0.75 177.38 0.75L177.38 0.75Q174.83 0.75 174.23-1.15L174.23-1.15Q173.88-2.05 173.88-4 173.88-5.95 174.38-7.2L174.38-7.2Q173.03-4.5 171.43-2.65 169.83-0.8 168.71-0.13 167.58 0.55 166.43 0.55L166.43 0.55Q164.43 0.55 163.63-0.53 162.83-1.6 162.83-2.85L162.83-2.85Q162.83-4.5 163.56-6.43 164.28-8.35 165-9.47 165.73-10.6 166.91-12.18 168.08-13.75 168.43-13.9L168.43-13.9Q169.18-14.1 169.86-14.1 170.53-14.1 171.03-13.9 171.53-13.7 171.56-13.4 171.58-13.1 170.86-12.5ZM202.23-14.55L202.23-14.55Q204.93-14.55 204.93-11.95L204.93-11.95Q204.93-10.6 204.18-9.75L204.18-9.75Q202.93-7.9 200.13-6.53 197.33-5.15 195.38-5L195.38-5Q194.68-4.95 194.63-5.4L194.63-5.4Q194.58-5.6 194.75-5.65 194.93-5.7 195.03-5.7L195.03-5.7Q196.18-5.8 197.98-6.8L197.98-6.8Q201.33-8.6 202.88-10.5L202.88-10.5Q203.53-11.4 203.53-12.23 203.53-13.05 202.73-13.05L202.73-13.05Q202.08-13.05 200.98-12.5L200.98-12.5Q198.63-11.4 196.03-8.68 193.43-5.95 192.63-3.35L192.63-3.35Q192.38-2.55 192.38-1.78 192.38-1 193.03-0.3 193.68 0.4 195.03 0.4L195.03 0.4Q196.53 0.4 198.48-0.4L198.48-0.4Q204.13-2.7 207.18-7.35L207.18-7.35Q207.48-7.75 207.73-7.5L207.73-7.5Q207.93-7.4 207.93-7.25 207.93-7.1 207.78-6.9L207.78-6.9Q206.28-4.4 203.98-2.45L203.98-2.45Q199.53 1.35 195.33 1.35L195.33 1.35Q191.73 1.35 190.28-0.8L190.28-0.8Q189.73-1.65 189.73-2.85 189.73-4.05 190.38-5.7L190.38-5.7Q191.63-8.55 195.73-11.55 199.83-14.55 202.23-14.55ZM218.18-14.55L218.18-14.55Q220.88-14.55 220.88-11.95L220.88-11.95Q220.88-10.6 220.13-9.75L220.13-9.75Q218.88-7.9 216.07-6.53 213.28-5.15 211.32-5L211.32-5Q210.63-4.95 210.57-5.4L210.57-5.4Q210.53-5.6 210.7-5.65 210.88-5.7 210.97-5.7L210.97-5.7Q212.13-5.8 213.93-6.8L213.93-6.8Q217.28-8.6 218.82-10.5L218.82-10.5Q219.47-11.4 219.47-12.23 219.47-13.05 218.68-13.05L218.68-13.05Q218.03-13.05 216.93-12.5L216.93-12.5Q214.57-11.4 211.97-8.68 209.38-5.95 208.57-3.35L208.57-3.35Q208.32-2.55 208.32-1.78 208.32-1 208.97-0.3 209.63 0.4 210.97 0.4L210.97 0.4Q212.47 0.4 214.43-0.4L214.43-0.4Q220.07-2.7 223.13-7.35L223.13-7.35Q223.43-7.75 223.68-7.5L223.68-7.5Q223.88-7.4 223.88-7.25 223.88-7.1 223.72-6.9L223.72-6.9Q222.22-4.4 219.93-2.45L219.93-2.45Q215.47 1.35 211.28 1.35L211.28 1.35Q207.68 1.35 206.22-0.8L206.22-0.8Q205.68-1.65 205.68-2.85 205.68-4.05 206.32-5.7L206.32-5.7Q207.57-8.55 211.68-11.55 215.78-14.55 218.18-14.55ZM229.92-13.95L230.57-14Q234.42-14.35 235.25-14.35 236.07-14.35 236.07-14.1L236.07-14.1Q236.07-13.8 234.9-13.48 233.72-13.15 229.17-12.65L229.17-12.65Q228.92-12.2 228.57-11.6L228.57-11.6Q227.82-10.4 227.77-10.15L227.77-10.15Q224.92-4.45 224.77-2.9L224.77-2.9Q224.72-2.45 224.72-1.75 224.72-1.05 225.12-0.6L225.12-0.6Q225.82 0.2 227.12-0.5 228.42-1.2 230.75-3.3 233.07-5.4 234.52-7.4L234.52-7.4Q234.72-7.65 235.02-7.5L235.02-7.5Q235.77-7.15 232.42-3.55L232.42-3.55Q229.22-0.1 227.07 0.7L227.07 0.7Q225.82 1.15 224.97 1.15L224.97 1.15Q222.97 1.15 222.32-0.75L222.32-0.75Q222.22-1.1 222.22-1.6L222.22-1.6Q222.22-3.35 223.82-6.9L223.82-6.9Q223.57-6.35 221.87-4.4L221.87-4.4Q221.42-3.9 221.17-4.4L221.17-4.4Q221.12-4.5 221.12-4.67 221.12-4.85 221.32-5.1L221.32-5.1Q223.77-8.15 225.17-10.25L225.17-10.25Q225.17-10.3 226.27-12.35L226.27-12.35Q225.77-12.25 225.25-12.25 224.72-12.25 224.47-12.58 224.22-12.9 224.42-13.35L224.42-13.35Q224.77-14.15 227.07-14.25L227.07-14.25Q227.12-14.35 227.27-14.35L227.27-14.35 229.77-19Q229.97-19.4 230.22-19.83 230.47-20.25 230.6-20.48 230.72-20.7 230.87-20.95 231.02-21.2 231.12-21.3 231.22-21.4 231.32-21.5L231.32-21.5Q231.52-21.8 232.5-21.8 233.47-21.8 233.82-21.25L233.82-21.25Q233.97-21.05 233.97-20.58 233.97-20.1 233.62-19.53 233.27-18.95 232.87-18.7 232.47-18.45 232.32-18.15L232.32-18.15 229.92-13.95ZM234.37 0.5L234.37 0.5Q233.72 1.25 234.09 1.7 234.47 2.15 234.94 2.15 235.42 2.15 235.92 2L235.92 2Q238.07 1.35 240.09-0.58 242.12-2.5 242.12-4.5L242.12-4.5Q242.12-5.6 239.67-6.9L239.67-6.9Q238.52-7.5 238.37-7.6L238.37-7.6Q237.02-8.5 236.67-9.4L236.67-9.4Q235.97-8.2 234.42-5.95L234.42-5.95Q234.07-5.55 233.77-5.78 233.47-6 233.72-6.4L233.72-6.4Q235.77-9.2 236.42-11.1L236.42-11.1Q236.77-13.85 240.42-16.05 244.07-18.25 247.07-18.25L247.07-18.25Q248.97-18.25 249.75-17.57 250.52-16.9 250.52-16.25 250.52-15.6 250.15-14.75 249.77-13.9 248.62-13.15L248.62-13.15Q248.32-12.95 248.12-13.25L248.12-13.25Q248.02-13.55 248.55-14.08 249.07-14.6 249.22-15.5 249.37-16.4 248.42-16.6L248.42-16.6Q248.27-16.6 248.12-16.6L248.12-16.6Q246.17-16.6 243.25-15.15 240.32-13.7 238.67-11.4L238.67-11.4Q238.02-10.55 238.02-9.68 238.02-8.8 239.22-8.1L239.22-8.1Q239.72-7.8 240.92-7.15 242.12-6.5 242.62-6.2 243.12-5.9 243.82-5.25 244.52-4.6 244.57-4.05L244.57-4.05Q244.82-2.55 243.17-0.75L243.17-0.75Q240.82 1.85 236.17 2.9L236.17 2.9Q235.12 3.15 234.05 3.15 232.97 3.15 232.57 2.35L232.57 2.35Q232.42 2.15 232.42 1.73 232.42 1.3 233.22 0.35L233.22 0.35Q233.97-0.4 235.62-1.1L235.62-1.1Q235.77-1.15 235.87-1.05 235.97-0.95 235.92-0.8 235.87-0.65 235.4-0.45 234.92-0.25 234.37 0.5ZM266.02-25.5L266.02-25.5Q266.62-26.6 266.62-27.2L266.62-27.2Q266.62-28.25 265.77-28.25L265.77-28.25Q265.07-28.25 264.02-27.45L264.02-27.45Q260.02-24.35 256.27-17.65L256.27-17.65Q253.27-12.25 251.87-8.4L251.87-8.4Q255.32-10.75 259.59-16.05 263.87-21.35 266.02-25.5ZM251.12-6.4L251.12-6.4Q250.52-4.7 250.47-4.13 250.42-3.55 250.42-2.58 250.42-1.6 250.92-0.8L250.92-0.8Q251.77 0.55 253.77-0.6L253.77-0.6Q255.27-1.4 257.57-3.53 259.87-5.65 261.12-7.4L261.12-7.4Q261.22-7.55 261.42-7.55L261.42-7.55Q261.87-7.55 261.67-6.9L261.67-6.9Q260.92-5.55 258.89-3.45 256.87-1.35 255.22-0.13 253.57 1.1 251.92 1.1L251.92 1.1Q248.12 1.1 248.12-2.6L248.12-2.6Q248.12-2.75 248.12-2.9L248.12-2.9Q248.32-6.4 251.67-13.48 255.02-20.55 257.72-24.15L257.72-24.15 259.27-26.1Q259.82-26.75 260.87-27.7L260.87-27.7Q262.87-29.6 264.99-29.6 267.12-29.6 267.87-28.3L267.87-28.3Q268.12-27.85 268.12-27 268.12-26.15 267.37-24.6L267.37-24.6Q262.22-15.65 251.12-6.4ZM262.92 0.55L262.92 0.55Q262.12 0.55 261.19 0.08 260.27-0.4 259.62-1.28 258.97-2.15 258.97-3.15 258.97-4.15 259.42-5.05L259.42-5.05Q260.42-7.15 262.64-9.13 264.87-11.1 267.27-12.5 269.67-13.9 271.06-14.25 272.47-14.6 273.79-14.6 275.12-14.6 276.06-13.93 277.02-13.25 277.02-12.5L277.02-12.5Q277.02-12.25 276.97-12.2 276.92-12.15 276.72-12.25L276.72-12.25Q276.12-13.2 274.24-13.2 272.37-13.2 269.99-11.98 267.62-10.75 265.52-8.9L265.52-8.9Q263.77-7.25 262.44-5.18 261.12-3.1 261.12-2.15L261.12-2.15Q261.12-0.3 262.17-0.3 263.22-0.3 265.37-2L265.37-2Q268.92-5 270.22-6.4L270.22-6.4Q274.81-11.35 275.17-11.35L275.17-11.35Q275.77-11.35 276.62-11 277.47-10.65 277.17-10.15L277.17-10.15Q274.62-6.55 274.17-2.9L274.17-2.9Q274.12-2.45 274.12-1.75 274.12-1.05 274.52-0.6L274.52-0.6Q275.27 0.2 276.56-0.5 277.87-1.2 280.19-3.3 282.52-5.4 283.92-7.4L283.92-7.4Q284.12-7.65 284.37-7.53 284.62-7.4 284.62-7.3L284.62-7.3Q284.62-6.55 282.24-4.03 279.87-1.5 278.62-0.6L278.62-0.6Q276.27 1.15 274.27 1.15L274.27 1.15Q272.37 1.15 271.72-0.75L271.72-0.75Q271.56-1.35 271.56-2.1L271.56-2.1Q271.56-4.35 272.52-6.85L272.52-6.85Q272.31-6.75 270.67-4.85 269.02-2.95 266.84-1.2 264.67 0.55 262.92 0.55ZM297.16-14.2L297.16-14.2Q298.31-14.2 298.31-12.98 298.31-11.75 297.16-9.6 296.01-7.45 295.46-6.1L295.46-6.1Q294.51-3.8 294.51-2.43 294.51-1.05 294.91-0.6L294.91-0.6Q295.66 0.2 296.96-0.53 298.26-1.25 300.59-3.33 302.91-5.4 304.31-7.4L304.31-7.4Q304.51-7.65 304.79-7.53 305.06-7.4 305.06-7.28 305.06-7.15 304.96-7L304.96-7Q304.21-5.65 302.26-3.55 300.31-1.45 298.51-0.18 296.71 1.1 294.96 1.1L294.96 1.1Q293.26 1.05 292.56 0.33 291.86-0.4 291.86-1.5 291.86-2.6 292.06-3.63 292.26-4.65 292.81-6L292.81-6Q293.71-8.15 294.39-9.35 295.06-10.55 295.06-10.93 295.06-11.3 294.66-11.3L294.66-11.3Q293.86-11.3 291.61-9.35L291.61-9.35Q290.06-7.9 287.04-3.88 284.01 0.15 283.61 0.4L283.61 0.4Q281.81 1.3 281.36 1.3 280.91 1.3 280.91 1.15 280.91 1 281.01 0.73 281.11 0.45 281.99-2 282.86-4.45 283.89-7.38 284.91-10.3 285.14-10.9 285.36-11.5 285.44-11.93 285.51-12.35 285.61-12.65 285.71-12.95 285.99-13.33 286.26-13.7 286.71-13.73 287.16-13.75 287.86-13.63 288.56-13.5 288.56-13L288.56-13Q288.56-12.65 288.01-11.48 287.46-10.3 284.86-3.4L284.86-3.4Q286.66-5.6 289.41-8.47 292.16-11.35 294.06-12.85L294.06-12.85Q295.96-14.2 297.16-14.2ZM305.94-9.13Q308.16-11.1 310.56-12.5 312.96-13.9 314.36-14.25 315.76-14.6 317.11-14.6 318.46-14.6 319.66-13.7L319.66-13.7Q326.51-29.6 332.76-29.6L332.76-29.6Q334.86-29.6 335.61-28.4L335.61-28.4Q335.96-27.8 335.96-27.35L335.96-27.35Q335.96-26.1 334.89-24.18 333.81-22.25 331.56-19.95 329.31-17.65 325.11-14.28 320.91-10.9 320.46-10.5L320.46-10.5Q318.86-6.8 317.96-3.35 317.06 0.1 317.06 1.8 317.06 3.5 317.66 4.5L317.66 4.5Q317.96 5.15 318.56 5.28 319.16 5.4 319.59 5.13 320.01 4.85 320.24 4.65 320.46 4.45 320.79 4.28 321.11 4.1 321.26 4.2 321.41 4.3 321.21 4.75L321.21 4.75Q320.81 5.25 320.46 5.6L320.46 5.6Q319.66 6.15 318.59 6.15 317.51 6.15 317.16 6.1L317.16 6.1Q314.76 5.7 314.76 2.6L314.76 2.6Q314.76-0.4 315.56-2.95L315.56-2.95Q316.66-6.45 317.56-8.75L317.56-8.75Q309.56 0.55 306.21 0.55L306.21 0.55Q305.41 0.55 304.49 0.08 303.56-0.4 302.91-1.28 302.26-2.15 302.26-3.15 302.26-4.15 302.71-5.05L302.71-5.05Q303.71-7.15 305.94-9.13ZM318.56-11.2L319.26-12.9Q318.66-13.2 317.16-13.2 315.66-13.2 313.29-11.98 310.91-10.75 308.81-8.9L308.81-8.9Q307.06-7.25 305.74-5.18 304.41-3.1 304.41-2.15L304.41-2.15Q304.41-0.3 305.46-0.3 306.51-0.3 308.66-2L308.66-2Q314.21-6.55 318.56-11.2L318.56-11.2ZM333.91-25.5L333.91-25.5Q334.56-26.7 334.56-27.53 334.56-28.35 333.84-28.35 333.11-28.35 331.91-27.45L331.91-27.45Q326.41-23.25 321.96-13.4L321.96-13.4Q325.21-15.5 328.76-19 332.31-22.5 333.91-25.5Z" opacity="1" transform="matrix(1,0,0,1,0,0)" fill="#55328b" class="wordmark-text-0" data-fill-palette-color="primary" id="text-0"></path></svg></g></svg></g><g transform="matrix(1,0,0,1,100.10405044088101,40.17376026722338)"><svg viewBox="0 0 23.79189911823799 8.125260960334028" height="8.125260960334028" width="23.79189911823799"><g transform="matrix(1,0,0,1,0,0)"><svg width="23.79189911823799" viewBox="1.98 -35.4 106.44 36.35" height="8.125260960334028" data-palette-color="#55328b"><path d="M25.22-25.56L25.22-25.56Q25.22-22.83 23.99-20.2 22.75-17.58 20.74-15.15 18.73-12.72 16.37-10.51 14.01-8.3 11.72-6.4 9.42-4.49 7.67-2.91L7.67-2.91 12.28-2.91Q14.45-2.91 16.93-3.27 19.41-3.64 21.86-4.24 24.32-4.83 26.42-5.49L26.42-5.49Q26.42-5.49 26.72-4.5 27.03-3.52 27.03-2.59L27.03-2.59Q27.03-1.07 25.95-0.48 24.88 0.12 22.35 0.21 19.82 0.29 15.43 0.29L15.43 0.29Q13.04 0.29 10.68 0.24 8.33 0.2 6.52 0.13 4.71 0.07 3.88 0L3.88 0Q2.76-0.12 2.37-0.59 1.98-1.05 1.98-2.1L1.98-2.1Q1.98-2.08 2.93-3.05 3.88-4.03 5.41-5.64 6.93-7.25 8.72-9.14 10.5-11.04 12.19-12.88 13.89-14.72 15.16-16.16 16.43-17.6 16.92-18.26L16.92-18.26Q18.46-20.24 19.21-22.27 19.97-24.29 19.97-26.15L19.97-26.15Q19.97-28.74 18.6-30.49 17.24-32.25 14.72-32.25L14.72-32.25Q13.06-32.25 11.39-31.52 9.72-30.79 8.18-29.74 6.64-28.69 5.32-27.71L5.32-27.71 3.42-30.3Q3.13-30.74 3.13-31.15L3.13-31.15Q3.13-32.01 4.2-32.76 5.27-33.52 6.93-34.12 8.59-34.72 10.41-35.06 12.23-35.4 13.72-35.4L13.72-35.4Q17.77-35.4 20.31-34 22.85-32.59 24.04-30.35 25.22-28.1 25.22-25.56ZM46.48 0.95L46.48 0.95Q42.26 0.95 39.18-1.31 36.11-3.56 34.45-7.6 32.79-11.65 32.79-16.99L32.79-16.99Q32.79-22.36 34.35-26.51 35.91-30.66 38.96-33.03 42.01-35.4 46.48-35.4L46.48-35.4Q50.97-35.4 54.01-33.03 57.05-30.66 58.62-26.51 60.18-22.36 60.18-16.99L60.18-16.99Q60.18-11.65 58.52-7.6 56.86-3.56 53.78-1.31 50.71 0.95 46.48 0.95ZM46.48-2.25L46.48-2.25Q49.48-2.25 51.28-4.2 53.07-6.15 53.85-9.5 54.64-12.84 54.64-16.99L54.64-16.99Q54.64-21.41 53.85-24.84 53.07-28.27 51.28-30.24 49.48-32.2 46.48-32.2L46.48-32.2Q43.5-32.2 41.71-30.24 39.91-28.27 39.12-24.84 38.33-21.41 38.33-16.99L38.33-16.99Q38.33-12.84 39.12-9.5 39.91-6.15 41.71-4.2 43.5-2.25 46.48-2.25ZM76.51-33.2L76.51-7.69Q76.51-4.59 76.8-2.84 77.09-1.1 77.24-0.39L77.24-0.39Q75.78 0.44 74.36 0.44L74.36 0.44Q73.09 0.44 72.27-0.09 71.45-0.61 71.45-2L71.45-2 71.45-31.4 65.2-29.15 64.4-31.2Q65.52-31.96 67.34-32.82 69.16-33.69 71.16-34.33 73.16-34.96 74.8-34.96L74.8-34.96Q75.92-34.96 76.22-34.53 76.51-34.11 76.51-33.2L76.51-33.2ZM105.71-6.3L105.71-6.3Q104.46-4.03 102.42-2.4 100.38-0.78 97.87 0.09 95.35 0.95 92.67 0.95L92.67 0.95Q91.96 0.95 90.89 0.87 89.81 0.78 88.75 0.56 87.69 0.34 86.97-0.06 86.25-0.46 86.25-1.1L86.25-1.1Q86.25-1.29 86.42-1.61L86.42-1.61 88.3-5.05Q89.96-3.71 91.73-3.08 93.5-2.44 94.91-2.44L94.91-2.44Q97.26-2.44 98.86-3.93 100.46-5.42 101.42-7.78 102.39-10.13 102.84-12.82 103.29-15.5 103.31-17.9L103.31-17.9Q101.29-15.6 99.43-14.65 97.58-13.7 96.09-13.5 94.6-13.31 93.64-13.31L93.64-13.31Q90.64-13.31 88.53-14.83 86.42-16.36 85.31-18.77 84.2-21.19 84.2-23.8L84.2-23.8Q84.2-25.83 84.92-27.88 85.64-29.93 87.11-31.63 88.59-33.33 90.85-34.36 93.11-35.4 96.16-35.4L96.16-35.4Q100.41-35.4 103.12-33.36 105.83-31.32 107.12-27.75 108.42-24.17 108.42-19.56L108.42-19.56Q108.42-16.16 107.79-12.54 107.17-8.91 105.71-6.3ZM103.17-21.09L103.17-21.09Q103.22-21.51 103.24-21.96 103.26-22.41 103.26-22.9L103.26-22.9Q103.26-25.17 102.58-27.31 101.9-29.44 100.3-30.82 98.7-32.2 95.92-32.2L95.92-32.2Q92.99-32.2 91.17-29.93 89.35-27.66 89.35-23.66L89.35-23.66Q89.35-20.12 90.7-18.33 92.06-16.55 94.16-16.55L94.16-16.55Q95.48-16.55 97.01-17.22 98.55-17.9 99.94-18.77 101.34-19.65 102.23-20.35 103.12-21.04 103.17-21.09Z" opacity="1" transform="matrix(1,0,0,1,0,0)" fill="#55328b" class="slogan-text-1" data-fill-palette-color="secondary" id="text-1"></path></svg></g></svg></g></svg></g></svg></g><g transform="matrix(1,0,0,1,53.1664,0)"><svg viewBox="0 0 117.6672 117.6672" height="117.6672" width="117.6672"><g><svg viewBox="0 0 117.6672 117.6672" height="117.6672" width="117.6672"><g transform="matrix(1,0,0,1,38.028073340336235,31.09917498558876)"><svg viewBox="0 0 41.611053319327524 55.46885002882247" height="55.46885002882247" width="41.611053319327524"><g><svg xmlns="http://www.w3.org/2000/svg" xmlns:xlink="http://www.w3.org/1999/xlink" version="1.0" x="0" y="0" viewBox="13.487 0.8890334498059245 73.02900000000001 97.34996655019408" enable-background="new 0 0 100 100" xml:space="preserve" height="55.46885002882247" width="41.611053319327524" class="icon-dxe-0" data-fill-palette-color="accent" id="dxe-0"><g fill="#55328b" data-fill-palette-color="accent"><path d="M75.51 59.285L70.067 93.552C70.067 96.142 67.693 98.239 64.764 98.239H35.237C32.308 98.239 29.934 96.142 29.934 93.552L24.486 59.285C25.674 59.75 26.958 60.176 28.329 60.562 28.786 63.482 29.243 66.251 29.692 68.981 30.996 76.87 32.227 84.32 33.382 94.512A0.39 0.39 0 0 0 33.768 94.856H33.776A0.39 0.39 0 0 0 34.155 94.371C33.749 85.64 33.202 78.767 32.671 72.12A976 976 0 0 1 31.859 61.439C32.901 61.662 33.979 61.869 35.088 62.052 35.295 63.779 35.502 65.457 35.701 67.124 36.709 75.435 37.662 83.287 38.642 94.101A0.387 0.387 0 0 0 39.029 94.456H39.033C39.247 94.444 39.427 94.28 39.427 94.065 39.427 94.034 39.423 94.006 39.42 93.975 39.252 86.908 39.076 81.139 38.908 75.563 38.772 71.111 38.647 66.945 38.537 62.543A81 81 0 0 0 41.736 62.871C41.818 63.753 41.9 64.624 41.978 65.491 42.774 74.203 43.524 82.431 44.297 93.822A0.39 0.39 0 0 0 44.688 94.185H44.692A0.397 0.397 0 0 0 45.079 93.716C45.067 81.517 45.106 73.059 45.2 63.101 46.239 63.152 47.285 63.183 48.344 63.203L48.485 65.241C49.078 73.988 49.637 82.248 50.149 93.678A0.394 0.394 0 0 0 50.54 94.053H50.547A0.39 0.39 0 0 0 50.93 93.67C51.2 81.373 51.524 72.786 51.891 63.199 52.95 63.178 54 63.14 55.038 63.09 55.409 72.72 55.732 81.322 56.006 93.67A0.39 0.39 0 0 0 56.393 94.053H56.397A0.394 0.394 0 0 0 56.788 93.678C57.347 81.221 57.87 72.615 58.472 62.852 59.562 62.762 60.632 62.649 61.678 62.516 61.705 69.186 61.694 75.258 61.682 82.151 61.674 85.716 61.666 89.532 61.662 93.796A0.39 0.39 0 0 0 62.041 94.187H62.053A0.387 0.387 0 0 0 62.444 93.824C63.216 82.429 63.966 74.201 64.763 65.489 64.868 64.344 64.974 63.193 65.079 62.021A66 66 0 0 0 68.296 61.404 942 942 0 0 1 67.801 72.132C67.474 78.689 67.134 85.464 66.931 94.055A0.39 0.39 0 0 0 67.298 94.457H67.32C67.52 94.457 67.691 94.305 67.707 94.102 68.645 83.766 69.659 76.213 70.737 68.215 71.073 65.716 71.413 63.186 71.757 60.537A41 41 0 0 0 75.51 59.285" fill="#55328b" data-fill-palette-color="accent"></path><path d="M75.51 33.593C75.51 39.669 70.582 44.653 64.502 44.653 62.605 44.653 60.816 44.172 59.258 43.325A11 11 0 0 1 49.999 48.378 11 11 0 0 1 40.744 43.325 10.95 10.95 0 0 1 35.5 44.653C29.419 44.653 24.491 39.67 24.491 33.593 24.491 28.028 28.623 23.373 33.985 22.639 34.481 22.569 34.985 22.534 35.5 22.534S36.519 22.569 37.015 22.639C38.35 22.822 39.608 23.244 40.744 23.861 41.021 23.431 41.326 23.021 41.658 22.639A11 11 0 0 1 43.357 21.041 10.4 10.4 0 0 0 46.004 22.639C47.234 23.154 48.586 23.435 49.999 23.435S52.764 23.154 53.994 22.639A10.4 10.4 0 0 0 56.645 21.041 11 11 0 0 1 58.344 22.639C58.676 23.021 58.981 23.431 59.258 23.861A10.9 10.9 0 0 1 62.987 22.639C63.483 22.569 63.987 22.534 64.503 22.534S65.523 22.569 66.019 22.639C71.383 23.377 75.51 28.032 75.51 33.593" fill="#55328b" data-fill-palette-color="accent"></path><path d="M86.516 45.719C86.516 51.713 81.719 56.587 75.756 56.72 69.77 59.246 60.465 60.874 49.999 60.874 39.537 60.874 30.231 59.246 24.245 56.72 18.282 56.587 13.487 51.713 13.487 45.719 13.487 41.185 16.224 37.292 20.141 35.605 21.055 35.945 22.016 36.179 23.015 36.296 23.749 42.533 29.068 47.387 35.5 47.387 37.128 47.387 38.741 47.071 40.241 46.461A12.5 12.5 0 0 0 50 51.112C53.831 51.112 57.388 49.398 59.763 46.461 61.262 47.07 62.874 47.387 64.503 47.387 70.935 47.387 76.253 42.533 76.987 36.296 77.987 36.179 78.948 35.945 79.862 35.605 83.773 37.292 86.516 41.185 86.516 45.719" fill="#55328b" data-fill-palette-color="accent"></path><path d="M58.865 12.229A8.865 8.865 0 1 1 50 3.364C50.816 3.364 51.596 3.52 52.357 3.681 53.44 3.911 52.618 6.706 53.27 7.073 53.925 7.442 56.374 5.949 56.955 6.731 58.103 8.279 58.865 10.152 58.865 12.229" fill="#55328b" data-fill-palette-color="accent"></path><path d="M55.513 5.185A0.998 0.998 0 0 1 54.753 3.536C57.032 0.859 60.292 0.458 62.518 1.252A1 1 0 1 1 61.846 3.135C60.324 2.593 57.929 2.892 56.275 4.832A1 1 0 0 1 55.513 5.185" fill="#55328b" data-fill-palette-color="accent"></path></g></svg></g></svg></g><g id="text-0"><path d="M5.817 33.197v0c0.253 0.096 0.502 0.306 0.748 0.63v0c0.241 0.279 0.379 0.545 0.413 0.796 0.035 0.252-0.018 0.351-0.157 0.299v0c-0.006-0.002-0.049-0.091-0.127-0.265v0c-0.208-0.498-0.426-0.79-0.653-0.877v0c-0.48-0.182-0.901 0.204-1.263 1.157v0c-0.153 0.404-0.28 0.967-0.38 1.688-0.1 0.721-0.099 1.451 0.003 2.19v0c0.118 0.869 0.326 1.359 0.623 1.472v0c0.234 0.089 0.541-0.044 0.921-0.399v0c0.205-0.197 0.57-0.597 1.094-1.199 0.531-0.6 0.976-1.078 1.335-1.433 0.361-0.361 0.795-0.667 1.301-0.916 0.506-0.249 0.977-0.29 1.413-0.125 0.442 0.168 0.821 0.608 1.135 1.32v0c0.461 1.071 0.702 2.329 0.725 3.775 0.022 1.446-0.137 2.618-0.478 3.514v0c-0.673 1.775-1.509 2.473-2.506 2.094-1.004-0.381-1.648-1.246-1.93-2.596v0c-0.279-1.132-0.23-2.193 0.146-3.185v0c0.089-0.234 0.17-0.325 0.245-0.275v0c0.066 0.054 0.043 0.24-0.071 0.558-0.111 0.312-0.157 0.757-0.138 1.335 0.022 0.572 0.148 1.143 0.379 1.715v0c0.292 0.754 0.691 1.226 1.196 1.418v0c0.316 0.12 0.654 0.075 1.016-0.135 0.361-0.21 0.704-0.741 1.027-1.593 0.323-0.853 0.506-1.744 0.549-2.674v0c0.089-2.025-0.135-3.396-0.672-4.113v0c-0.192-0.275-0.376-0.446-0.553-0.513v0c-0.518-0.196-1.041-0.037-1.569 0.477v0c-0.613 0.606-1.389 1.481-2.33 2.628v0c-0.356 0.443-0.74 0.789-1.151 1.036-0.412 0.248-0.811 0.299-1.196 0.153-0.385-0.146-0.687-0.503-0.906-1.069-0.212-0.565-0.319-1.187-0.321-1.867v0c0.006-1.464 0.177-2.638 0.513-3.522v0c0.467-1.232 1.007-1.731 1.619-1.499z" fill="#55328b" data-fill-palette-color="accent"></path><path d="M9.439 25.365v0c0.048-0.226 0.113-0.404 0.197-0.536v0c0.283-0.444 0.59-0.661 0.92-0.651v0c0.176 0 0.31 0.029 0.401 0.087v0c0.689 0.439 1.189 1.566 1.498 3.381v0c0.247 1.599 0.421 3.035 0.522 4.31v0c0.457 0.691 1.053 1.484 1.789 2.377v0c-0.212-0.648-0.434-1.438-0.665-2.37v0c-0.453-1.866-0.538-3.022-0.254-3.466v0c0.142-0.222 0.33-0.266 0.565-0.132v0c0.242 0.122 0.434 0.312 0.574 0.57 0.138 0.248 0.266 0.482 0.382 0.7v0c0.487 0.983 1.038 1.671 1.654 2.063v0c0.205 0.131 0.38 0.182 0.526 0.155v0c0.247-0.035 0.384-0.232 0.412-0.591 0.025-0.353-0.023-0.9-0.144-1.641-0.13-0.739-0.302-1.386-0.518-1.94v0c-0.019-0.084-0.002-0.141 0.05-0.172 0.058-0.027 0.098-0.034 0.121-0.02 0.028 0.018 0.05 0.048 0.063 0.089v0c0.175 0.328 0.349 0.823 0.52 1.485 0.171 0.662 0.27 1.173 0.296 1.534v0c0.056 0.692-0.051 1.249-0.32 1.67v0c-0.247 0.387-0.606 0.523-1.076 0.408v0c-0.109-0.03-0.227-0.084-0.352-0.165-0.125-0.08-0.254-0.174-0.385-0.281v0c-0.395-0.324-0.888-1.014-1.479-2.072v0c-0.117-0.219-0.212-0.352-0.287-0.399-0.074-0.047-0.136-0.031-0.187 0.049v0c-0.102 0.16-0.099 0.602 0.008 1.327v0c0.091 0.498 0.348 1.315 0.77 2.449 0.426 1.129 0.638 1.752 0.634 1.87v0c-0.05 0.481-0.102 0.764-0.156 0.849-0.054 0.085-0.097 0.127-0.127 0.123-0.032-0.012-0.063-0.04-0.092-0.082-0.025-0.048-0.195-0.272-0.508-0.672v0c-1.043-1.329-1.73-2.219-2.06-2.67v0c0.217 0.603 0.435 1.322 0.655 2.159v0c0.025 0.136-0.019 0.168-0.133 0.095-0.12-0.076-0.21-0.198-0.272-0.365-0.062-0.167-0.176-0.509-0.344-1.024-0.162-0.512-0.291-0.882-0.386-1.111v0c-0.109 0.058-0.211 0.062-0.306 0.009-0.095-0.052-0.137-0.124-0.128-0.214 0.006-0.084 0.086-0.185 0.241-0.303v0c-0.077-0.193-0.176-0.384-0.296-0.573v0c-1.822-2.859-2.597-4.963-2.323-6.309zM11.115 25.243v0c-0.156-0.283-0.316-0.478-0.482-0.583-0.171-0.109-0.302-0.092-0.392 0.05-0.094 0.148-0.128 0.403-0.102 0.764v0c0.141 1.652 0.923 3.567 2.345 5.747v0c-0.006-0.933-0.134-1.983-0.383-3.151-0.255-1.171-0.583-2.114-0.986-2.827z" fill="#55328b" data-fill-palette-color="accent"></path><path d="M18.867 22.08v0c0.432-0.484 0.88-0.518 1.344-0.104v0c0.242 0.216 0.378 0.46 0.407 0.73v0c0.134 0.519 0.1 1.14-0.103 1.865-0.199 0.719-0.443 1.266-0.733 1.641v0c-0.102 0.135-0.196 0.169-0.281 0.102v0c-0.044-0.021-0.058-0.052-0.041-0.091 0.017-0.039 0.034-0.069 0.052-0.089v0c0.169-0.22 0.307-0.572 0.414-1.056v0c0.213-0.887 0.275-1.62 0.185-2.2v0c-0.058-0.26-0.162-0.457-0.314-0.592-0.146-0.13-0.284-0.123-0.414 0.024v0c-0.103 0.116-0.193 0.317-0.268 0.603v0c-0.177 0.594-0.23 1.343-0.16 2.248 0.07 0.895 0.273 1.625 0.611 2.19v0c0.105 0.166 0.228 0.312 0.37 0.439 0.136 0.121 0.319 0.181 0.548 0.177 0.229-0.003 0.452-0.126 0.668-0.368v0c0.238-0.267 0.442-0.637 0.612-1.111v0c0.491-1.382 0.567-2.718 0.226-4.01v0c-0.031-0.118-0.003-0.179 0.083-0.184v0c0.052-0.017 0.09-0.015 0.115 0.008 0.03 0.027 0.052 0.069 0.064 0.126v0c0.21 0.667 0.304 1.363 0.283 2.086v0c-0.031 1.403-0.384 2.483-1.059 3.239v0c-0.576 0.645-1.17 0.925-1.782 0.839v0c-0.246-0.039-0.475-0.153-0.687-0.341-0.217-0.193-0.422-0.481-0.615-0.862v0c-0.306-0.681-0.4-1.63-0.283-2.848 0.118-1.207 0.371-2.028 0.758-2.461z" fill="#55328b" data-fill-palette-color="accent"></path><path d="M26.661 22.529v0c-0.468 0.399-0.94 0.318-1.418-0.242-0.478-0.56-0.667-1.593-0.567-3.099v0c0.01-0.124 0.012-0.215 0.007-0.273v0l-0.011-0.216c-0.021-0.284-0.056-0.445-0.106-0.483v0l-0.151-0.084c-0.128-0.077-0.345-0.03-0.651 0.143-0.311 0.177-0.549 0.335-0.713 0.475v0c0.169 1.863 0.259 2.931 0.27 3.205 0.017 0.27-0.011 0.409-0.083 0.418-0.068 0.014-0.118 0.003-0.148-0.034-0.031-0.036-0.051-0.112-0.061-0.227v0c-0.024-1.027-0.148-2.036-0.372-3.027v0c-0.131 0.076-0.246 0.108-0.345 0.095-0.109-0.013-0.2-0.109-0.272-0.287-0.077-0.183-0.1-0.492-0.07-0.926 0.035-0.438 0.102-0.771 0.201-0.997 0.105-0.231 0.171-0.377 0.2-0.437 0.033-0.055 0.075-0.104 0.127-0.148v0c0.113-0.096 0.217 0.099 0.313 0.585v0l0.191 1.302c0.433-0.325 0.796-0.613 1.089-0.863v0l0.465-0.423c0.154-0.132 0.285-0.207 0.391-0.228 0.112-0.025 0.194 0.03 0.246 0.164v0c0.082 0.232 0.12 0.604 0.113 1.115v0c-0.001 1.102 0.167 2.131 0.503 3.087v0c0.087 0.227 0.186 0.405 0.296 0.534v0c0.228 0.267 0.437 0.32 0.627 0.158v0c0.067-0.057 0.144-0.211 0.231-0.464 0.097-0.251 0.193-0.747 0.29-1.486 0.097-0.74 0.116-1.399 0.056-1.979v0c-0.004-0.077 0.029-0.127 0.098-0.15 0.073-0.018 0.119-0.017 0.136 0.003 0.022 0.026 0.034 0.06 0.035 0.104v0c0.077 0.361 0.1 0.887 0.069 1.579-0.03 0.683-0.112 1.29-0.245 1.82v0c-0.114 0.532-0.361 0.961-0.741 1.286z" fill="#55328b" data-fill-palette-color="accent"></path><path d="M31.939 18.596v0c-0.517 0.332-0.975 0.188-1.372-0.431-0.398-0.62-0.445-1.669-0.143-3.147v0c0.026-0.121 0.041-0.211 0.044-0.27v0l0.018-0.216c0.018-0.284 0.005-0.449-0.04-0.492v0l-0.138-0.104c-0.116-0.094-0.338-0.076-0.665 0.053-0.332 0.133-0.589 0.258-0.77 0.375v0c-0.085 1.869-0.14 2.939-0.165 3.213-0.02 0.269-0.066 0.404-0.139 0.402-0.069 0.004-0.117-0.013-0.143-0.053-0.026-0.04-0.035-0.118-0.029-0.234v0c0.115-1.021 0.129-2.037 0.041-3.049v0c-0.14 0.058-0.258 0.073-0.355 0.048-0.106-0.028-0.183-0.135-0.231-0.322-0.051-0.192-0.033-0.501 0.055-0.926 0.094-0.429 0.205-0.75 0.335-0.962 0.135-0.215 0.221-0.35 0.257-0.405 0.04-0.05 0.089-0.093 0.145-0.13v0c0.125-0.08 0.202 0.127 0.231 0.622v0l0.014 1.316c0.473-0.264 0.871-0.499 1.196-0.708v0l0.517-0.356c0.171-0.109 0.31-0.167 0.419-0.173 0.114-0.009 0.188 0.056 0.222 0.195v0c0.05 0.241 0.037 0.614-0.039 1.121v0c-0.15 1.092-0.123 2.134 0.081 3.127v0c0.056 0.237 0.129 0.427 0.221 0.568v0c0.19 0.296 0.39 0.376 0.6 0.241v0c0.074-0.047 0.171-0.19 0.291-0.428 0.13-0.236 0.292-0.714 0.488-1.433 0.196-0.72 0.304-1.371 0.323-1.954v0c0.007-0.077 0.046-0.122 0.118-0.135 0.075-0.008 0.12-0.001 0.134 0.022 0.018 0.028 0.025 0.064 0.021 0.107v0c0.027 0.368-0.021 0.892-0.145 1.574-0.122 0.672-0.285 1.263-0.489 1.771v0c-0.185 0.512-0.488 0.903-0.908 1.173z" fill="#55328b" data-fill-palette-color="accent"></path><path d="M37.478 22.591v0c-0.087 0.037-0.202 0.068-0.346 0.092v0c-0.626 0.098-1.035-0.076-1.226-0.523-0.191-0.447-0.142-1.133 0.147-2.057 0.298-0.92 1.115-2.396 2.451-4.428v0c0.133-2.561 0.155-4.326 0.065-5.293v0c-0.064 0.211-0.18 0.653-0.348 1.327-0.165 0.68-0.32 1.264-0.464 1.752-0.147 0.481-0.363 0.974-0.647 1.477-0.278 0.501-0.595 0.827-0.949 0.977-0.354 0.151-0.662 0.187-0.924 0.108-0.262-0.079-0.442-0.201-0.541-0.364-0.096-0.172-0.168-0.317-0.218-0.435v0c-0.175-0.41-0.241-0.866-0.199-1.37v0c0.043-0.811 0.242-1.583 0.598-2.315v0c0.126-0.289 0.27-0.468 0.432-0.537 0.155-0.066 0.323-0.079 0.501-0.038v0c0.209 0.094 0.31 0.209 0.302 0.345v0c-0.319 0.423-0.6 1.097-0.844 2.024v0c-0.124 0.501-0.12 1.061 0.012 1.68v0c0.026 0.077 0.064 0.175 0.114 0.293 0.05 0.118 0.137 0.191 0.259 0.22 0.125 0.035 0.237 0.031 0.337-0.011v0c0.342-0.146 0.621-0.482 0.837-1.007 0.225-0.522 0.422-1.058 0.592-1.608 0.169-0.55 0.351-1.2 0.544-1.951 0.196-0.745 0.327-1.238 0.394-1.479 0.062-0.232 0.165-0.379 0.308-0.44v0c0.174-0.074 0.378-0.103 0.613-0.085 0.229 0.02 0.34 0.064 0.332 0.133-0.004 0.06-0.017 0.804-0.039 2.231-0.029 1.43-0.053 2.457-0.073 3.083v0c0.206-0.257 0.511-0.791 0.914-1.602 0.406-0.805 0.714-1.579 0.926-2.323v0c0.05-0.176 0.117-0.215 0.202-0.119v0c0.014 0.016 0.032 0.049 0.053 0.098 0.021 0.05 0.019 0.131-0.005 0.245v0c-0.148 0.599-0.451 1.404-0.909 2.415-0.46 1.004-0.859 1.722-1.196 2.152v0c-0.114 2.332-0.226 3.816-0.337 4.451v0c-0.304 1.577-0.86 2.537-1.668 2.882zM38.454 16.435v0c-0.899 1.559-1.511 2.749-1.836 3.571-0.321 0.813-0.393 1.427-0.216 1.843 0.178 0.416 0.409 0.563 0.695 0.442v0c0.224-0.095 0.429-0.319 0.617-0.671 0.19-0.346 0.338-0.765 0.444-1.258 0.102-0.484 0.166-0.893 0.192-1.228 0.023-0.325 0.042-0.804 0.059-1.435 0.02-0.625 0.034-1.047 0.045-1.264z" fill="#55328b" data-fill-palette-color="accent"></path><path d="M57.417 0.791v0c0.031 0.268-0.04 0.586-0.216 0.953v0c-0.137 0.342-0.309 0.587-0.516 0.734-0.207 0.147-0.32 0.146-0.337-0.002v0c-0.001-0.007 0.058-0.085 0.177-0.235v0c0.346-0.414 0.505-0.742 0.477-0.984v0c-0.059-0.51-0.596-0.706-1.609-0.587v0c-0.429 0.05-0.987 0.197-1.673 0.44-0.686 0.243-1.333 0.581-1.942 1.012v0c-0.716 0.505-1.056 0.915-1.02 1.231v0c0.029 0.248 0.288 0.459 0.778 0.633v0c0.269 0.091 0.792 0.231 1.569 0.419 0.778 0.195 1.407 0.37 1.887 0.524 0.487 0.154 0.958 0.398 1.412 0.733 0.454 0.335 0.708 0.733 0.762 1.197 0.055 0.47-0.161 1.008-0.648 1.616v0c-0.738 0.902-1.744 1.696-3.017 2.382-1.273 0.686-2.386 1.084-3.339 1.195v0c-1.885 0.22-2.89-0.2-3.014-1.26-0.124-1.067 0.347-2.036 1.415-2.909v0c0.876-0.769 1.841-1.214 2.894-1.337v0c0.248-0.029 0.367 0.001 0.358 0.09v0c-0.017 0.084-0.194 0.148-0.528 0.195-0.328 0.045-0.744 0.209-1.249 0.492-0.497 0.282-0.947 0.658-1.347 1.126v0c-0.535 0.606-0.77 1.178-0.708 1.715v0c0.039 0.335 0.235 0.615 0.587 0.839 0.353 0.224 0.982 0.283 1.888 0.178 0.906-0.106 1.781-0.354 2.626-0.745v0c1.839-0.854 2.952-1.684 3.341-2.491v0c0.156-0.297 0.223-0.539 0.201-0.727v0c-0.064-0.55-0.446-0.941-1.147-1.172v0c-0.82-0.265-1.955-0.551-3.405-0.858v0c-0.557-0.112-1.041-0.293-1.451-0.545-0.41-0.251-0.639-0.582-0.686-0.991-0.048-0.409 0.13-0.841 0.532-1.296 0.403-0.448 0.906-0.83 1.509-1.145v0c1.302-0.669 2.423-1.058 3.362-1.168v0c1.308-0.153 2 0.096 2.077 0.748z" fill="#55328b" data-fill-palette-color="accent"></path><path d="M62.099 6.148c-0.189 0.124-0.542 0.465-1.06 1.025-0.523 0.552-0.893 1.055-1.107 1.508-0.221 0.446-0.347 0.821-0.377 1.123-0.03 0.296 0.083 0.456 0.339 0.482 0.255 0.025 0.637-0.123 1.144-0.446v0c0.808-0.551 1.77-1.619 2.886-3.204v0c0.056-0.083 0.148-0.118 0.275-0.105 0.121 0.012 0.289 0.063 0.504 0.152 0.215 0.089 0.317 0.188 0.307 0.296v0c-0.003 0.034-0.017 0.07-0.042 0.107v0c-0.585 0.756-0.995 1.642-1.232 2.657v0c-0.082 0.345-0.05 0.633 0.097 0.865v0c0.133 0.231 0.451 0.239 0.954 0.024v0c0.783-0.295 1.52-0.809 2.211-1.541 0.697-0.725 1.147-1.396 1.352-2.013v0c0.06-0.13 0.098-0.272 0.113-0.427v0c0.066-0.665-0.085-1.091-0.452-1.277v0c-0.103-0.058-0.219-0.083-0.349-0.076-0.136 0.007-0.213-0.008-0.23-0.043-0.024-0.03-0.028-0.064-0.01-0.103v0c0.031-0.106 0.282-0.135 0.752-0.088v0c0.773 0.077 1.12 0.516 1.039 1.316-0.081 0.807-0.63 1.726-1.649 2.758v0c-0.639 0.622-1.377 1.179-2.214 1.673v0c-0.46 0.26-0.922 0.366-1.386 0.319v0c-0.612-0.061-0.965-0.327-1.061-0.798v0c-0.066-0.224-0.076-0.568-0.029-1.031 0.047-0.47 0.146-0.848 0.296-1.132v0c-0.387 0.613-0.794 1.122-1.222 1.528-0.421 0.406-0.773 0.676-1.058 0.811-0.285 0.134-0.565 0.188-0.841 0.16v0c-0.477-0.048-0.8-0.212-0.969-0.493-0.163-0.274-0.229-0.559-0.2-0.855v0c0.04-0.397 0.166-0.815 0.38-1.256 0.221-0.446 0.432-0.795 0.634-1.046 0.202-0.251 0.462-0.551 0.782-0.9 0.313-0.349 0.515-0.536 0.606-0.56v0c0.179-0.03 0.35-0.036 0.511-0.021 0.161 0.016 0.3 0.054 0.417 0.113 0.116 0.059 0.174 0.126 0.173 0.201 0 0.068-0.095 0.167-0.284 0.297z" fill="#55328b" data-fill-palette-color="accent"></path><path d="M74.936 7.752v0c0.623 0.18 0.848 0.569 0.675 1.166v0c-0.09 0.311-0.251 0.539-0.482 0.683v0c-0.41 0.345-0.985 0.583-1.726 0.714-0.734 0.132-1.333 0.148-1.797 0.049v0c-0.166-0.034-0.237-0.104-0.214-0.21v0c0-0.049 0.022-0.075 0.065-0.076 0.043-0.002 0.077 0.001 0.103 0.008v0c0.272 0.058 0.649 0.03 1.131-0.083v0c0.892-0.192 1.58-0.453 2.063-0.784v0c0.209-0.164 0.342-0.344 0.399-0.539 0.055-0.188-0.012-0.309-0.201-0.364v0c-0.149-0.043-0.369-0.037-0.659 0.02v0c-0.612 0.097-1.311 0.373-2.097 0.827-0.777 0.45-1.347 0.949-1.71 1.498v0c-0.105 0.167-0.183 0.341-0.236 0.523-0.051 0.175-0.025 0.365 0.077 0.571 0.102 0.205 0.309 0.353 0.621 0.443v0c0.344 0.1 0.766 0.123 1.266 0.072v0c1.458-0.154 2.696-0.664 3.713-1.53v0c0.093-0.079 0.16-0.08 0.202-0.005v0c0.038 0.039 0.052 0.075 0.043 0.108-0.011 0.039-0.04 0.076-0.085 0.112v0c-0.511 0.478-1.098 0.863-1.76 1.157v0c-1.279 0.579-2.405 0.727-3.378 0.445v0c-0.83-0.241-1.34-0.655-1.527-1.244v0c-0.071-0.239-0.068-0.494 0.011-0.767 0.081-0.279 0.251-0.588 0.511-0.928v0c0.482-0.571 1.297-1.066 2.445-1.485 1.14-0.415 1.989-0.542 2.547-0.381z" fill="#55328b" data-fill-palette-color="accent"></path><path d="M81.833 10.509v0c0.592 0.264 0.762 0.68 0.51 1.247v0c-0.132 0.296-0.322 0.5-0.572 0.61v0c-0.453 0.286-1.055 0.443-1.807 0.471-0.746 0.03-1.341-0.035-1.786-0.197v0c-0.16-0.056-0.221-0.135-0.183-0.236v0c0.007-0.049 0.032-0.071 0.074-0.067 0.043 0.004 0.076 0.012 0.101 0.022v0c0.261 0.094 0.639 0.118 1.132 0.072v0c0.91-0.068 1.627-0.233 2.151-0.495v0c0.23-0.134 0.386-0.294 0.468-0.479 0.08-0.179 0.03-0.308-0.149-0.388v0c-0.142-0.063-0.361-0.087-0.656-0.07v0c-0.619 0.013-1.349 0.19-2.19 0.533-0.832 0.34-1.465 0.756-1.899 1.25v0c-0.126 0.151-0.228 0.313-0.305 0.486-0.074 0.167-0.075 0.359-0.001 0.576 0.073 0.217 0.258 0.392 0.554 0.524v0c0.327 0.146 0.742 0.227 1.245 0.244v0c1.466 0.046 2.761-0.29 3.887-1.008v0c0.103-0.065 0.17-0.057 0.201 0.022v0c0.032 0.044 0.041 0.081 0.027 0.113-0.017 0.037-0.05 0.07-0.1 0.099v0c-0.572 0.403-1.205 0.705-1.9 0.906v0c-1.346 0.399-2.482 0.392-3.408-0.02v0c-0.79-0.352-1.238-0.832-1.343-1.442v0c-0.038-0.246 0-0.499 0.116-0.758 0.118-0.265 0.329-0.548 0.633-0.849v0c0.555-0.5 1.43-0.879 2.625-1.138 1.186-0.256 2.044-0.265 2.576-0.028z" fill="#55328b" data-fill-palette-color="accent"></path><path d="M86.901 13.523l0.21 0.104c0.833 0.41 1.337 0.668 1.51 0.772 0.168 0.102 0.236 0.178 0.204 0.231v0c-0.035 0.058-0.195 0.048-0.48-0.03-0.285-0.078-0.922-0.349-1.911-0.815v0c-0.108 0.061-0.238 0.132-0.39 0.214v0c-0.297 0.152-0.467 0.25-0.511 0.295v0c-1.294 0.819-2.055 1.377-2.281 1.674v0c-0.062 0.089-0.136 0.206-0.224 0.35-0.087 0.144-0.119 0.287-0.094 0.429v0c0.046 0.249 0.246 0.382 0.599 0.399 0.353 0.017 0.899-0.044 1.638-0.181 0.736-0.146 1.379-0.334 1.928-0.562v0c0.072-0.028 0.131-0.008 0.177 0.06v0c0.105 0.166-0.411 0.411-1.546 0.734v0c-1.08 0.309-1.893 0.413-2.44 0.311v0c-0.31-0.062-0.555-0.147-0.734-0.255v0c-0.41-0.248-0.563-0.609-0.457-1.083v0c0.025-0.08 0.069-0.172 0.131-0.276v0c0.217-0.358 0.711-0.801 1.481-1.33v0c-0.118 0.078-0.476 0.213-1.074 0.404v0c-0.152 0.042-0.224-0.002-0.216-0.131v0c0.008-0.027 0.023-0.057 0.044-0.092 0.021-0.035 0.067-0.066 0.139-0.093v0c0.884-0.325 1.6-0.614 2.148-0.867v0c0.007-0.012 0.251-0.16 0.732-0.445v0c-0.118-0.04-0.232-0.093-0.342-0.16-0.104-0.063-0.161-0.145-0.171-0.245-0.01-0.101 0.033-0.185 0.13-0.253v0c0.167-0.12 0.495-0.048 0.982 0.216v0c0.022-0.01 0.048-0.007 0.077 0.01v0l1.637-0.962c0.093-0.062 0.192-0.121 0.296-0.176 0.104-0.055 0.182-0.099 0.234-0.131 0.057-0.029 0.116-0.06 0.176-0.095 0.06-0.035 0.107-0.053 0.141-0.057 0.037-0.009 0.07-0.017 0.097-0.024v0c0.079-0.039 0.22 0.003 0.422 0.125 0.202 0.122 0.303 0.263 0.302 0.421v0c0.004 0.058-0.023 0.136-0.083 0.234-0.056 0.092-0.155 0.178-0.298 0.257-0.145 0.07-0.274 0.107-0.386 0.11-0.112 0.003-0.202 0.028-0.27 0.074v0z" fill="#55328b" data-fill-palette-color="accent"></path><path d="M86.426 19.428v0c-0.23 0.043-0.344 0.135-0.341 0.273 0.003 0.139 0.05 0.244 0.14 0.315 0.091 0.07 0.194 0.13 0.311 0.178v0c0.501 0.192 1.084 0.257 1.75 0.192 0.67-0.069 1.152-0.294 1.446-0.672v0c0.162-0.208 0.106-0.615-0.167-1.221v0c-0.127-0.287-0.198-0.449-0.212-0.486v0c-0.123-0.37-0.151-0.665-0.082-0.885v0c-0.307 0.12-0.774 0.28-1.399 0.478v0c-0.132 0.026-0.207-0.003-0.227-0.087-0.025-0.088 0.017-0.154 0.127-0.196v0c0.8-0.225 1.402-0.472 1.806-0.739v0c0.466-0.468 1.21-0.642 2.23-0.525 1.017 0.123 1.808 0.404 2.373 0.844v0c0.363 0.282 0.566 0.543 0.611 0.783 0.05 0.244 0.027 0.427-0.068 0.55-0.095 0.123-0.242 0.24-0.44 0.351-0.199 0.102-0.464 0.14-0.795 0.114v0c-0.082-0.004-0.119-0.05-0.111-0.138v0c0.024-0.075 0.124-0.121 0.301-0.139 0.175-0.027 0.344-0.113 0.509-0.258 0.159-0.15 0.163-0.314 0.01-0.493v0c-0.027-0.021-0.053-0.041-0.08-0.062v0c-0.373-0.29-0.943-0.515-1.709-0.674-0.77-0.154-1.48-0.132-2.129 0.064v0c-0.247 0.065-0.435 0.18-0.563 0.345-0.129 0.165-0.133 0.402-0.012 0.709v0c0.05 0.133 0.143 0.35 0.276 0.652 0.129 0.297 0.218 0.512 0.269 0.645 0.055 0.128 0.101 0.305 0.138 0.531 0.038 0.226 0.018 0.395-0.059 0.506v0c-0.172 0.32-0.545 0.53-1.12 0.631v0c-0.834 0.148-1.767-0.022-2.8-0.508v0c-0.235-0.105-0.456-0.239-0.664-0.401-0.203-0.158-0.283-0.34-0.242-0.547v0c0.006-0.063 0.041-0.135 0.103-0.215 0.062-0.08 0.238-0.153 0.529-0.218v0c0.252-0.027 0.584 0.013 0.997 0.12v0c0.04 0.014 0.06 0.038 0.06 0.072 0.009 0.033-0.004 0.061-0.04 0.085-0.031 0.018-0.107 0.011-0.227-0.022-0.12-0.033-0.286-0.017-0.499 0.048z" fill="#55328b" data-fill-palette-color="accent"></path><path d="M102.264 21.153v0c0.288-0.083 0.482-0.174 0.583-0.273v0c0.179-0.175 0.197-0.335 0.056-0.479v0c-0.118-0.121-0.332-0.204-0.642-0.251v0c-1.202-0.166-2.696-0.009-4.483 0.473v0c-1.428 0.395-2.588 0.793-3.482 1.193v0c0.982 0.202 2.286 0.221 3.912 0.058 1.626-0.154 2.978-0.394 4.056-0.721zM93.591 22.124v0c-0.394 0.187-0.644 0.322-0.75 0.407-0.111 0.09-0.248 0.215-0.412 0.375-0.169 0.165-0.281 0.36-0.337 0.584v0c-0.09 0.372 0.131 0.632 0.665 0.781v0c0.395 0.124 0.965 0.204 1.71 0.241 0.754 0.037 1.387 0.018 1.899-0.058v0c0.038-0.009 0.074 0.003 0.107 0.038v0c0.076 0.077 0.041 0.153-0.103 0.228v0c-0.355 0.101-0.881 0.153-1.578 0.154-0.702 0.006-1.299-0.029-1.79-0.106-0.486-0.082-0.866-0.263-1.14-0.543v0c-0.638-0.652-0.64-1.287-0.007-1.906v0c0.029-0.028 0.056-0.054 0.079-0.078v0c0.637-0.557 1.842-1.14 3.617-1.751 1.779-0.615 3.204-0.994 4.276-1.134v0l0.889-0.091c0.201-0.017 0.473-0.014 0.817 0.01v0c0.659 0.026 1.165 0.221 1.519 0.583 0.359 0.367 0.491 0.724 0.397 1.072v0c-0.035 0.119-0.125 0.249-0.27 0.391-0.145 0.142-0.414 0.277-0.807 0.406v0c-2.405 0.623-5.332 0.755-8.781 0.397z" fill="#55328b" data-fill-palette-color="accent"></path><path d="M95.387 27.688v0c-0.114-0.151-0.192-0.35-0.235-0.597-0.043-0.247-0.027-0.496 0.047-0.746 0.074-0.25 0.207-0.449 0.401-0.595 0.194-0.147 0.41-0.242 0.648-0.285v0c0.541-0.112 1.162-0.098 1.86 0.042 0.704 0.137 1.363 0.338 1.978 0.602 0.615 0.255 1.06 0.49 1.333 0.707 0.264 0.215 0.494 0.452 0.69 0.711 0.191 0.253 0.289 0.518 0.294 0.794 0.009 0.281-0.059 0.476-0.205 0.586v0c-0.049 0.037-0.08 0.052-0.093 0.045-0.015 0.003-0.028-0.021-0.041-0.071v0c0.094-0.257 0.006-0.563-0.262-0.919-0.273-0.361-0.698-0.683-1.276-0.967-0.579-0.274-1.199-0.479-1.86-0.614v0c-0.565-0.098-1.143-0.123-1.733-0.076-0.59 0.048-0.977 0.141-1.16 0.28v0c-0.35 0.265-0.45 0.497-0.3 0.696 0.155 0.205 0.548 0.39 1.181 0.555v0c1.09 0.244 1.863 0.388 2.32 0.433v0c1.611 0.172 2.441 0.29 2.49 0.355v0c0.09 0.119 0.163 0.283 0.22 0.493 0.057 0.211 0.017 0.326-0.121 0.345v0c-1.06 0.03-1.974 0.267-2.739 0.71v0c-0.094 0.054-0.209 0.132-0.344 0.234-0.135 0.102-0.217 0.223-0.246 0.364v0c-0.041 0.26 0.099 0.462 0.421 0.608 0.322 0.146 0.851 0.292 1.588 0.439 0.742 0.142 1.406 0.204 1.993 0.184v0c0.077 0.001 0.123 0.034 0.138 0.099 0.006 0.063 0 0.101-0.016 0.114v0c-0.146 0.11-0.632 0.122-1.459 0.035-0.827-0.087-1.418-0.186-1.774-0.299v0c-0.672-0.195-1.155-0.487-1.447-0.875v0c-0.273-0.361-0.273-0.742 0-1.143v0c0.089-0.118 0.206-0.232 0.352-0.341v0c0.431-0.326 0.956-0.578 1.574-0.757v0c-0.05-0.021-0.378-0.053-0.985-0.094-0.597-0.04-1.22-0.141-1.868-0.304-0.657-0.164-1.112-0.413-1.364-0.748z" fill="#55328b" data-fill-palette-color="accent"></path><path d="M107.17 36.257v0c0.125 0.247 0.055 0.438-0.21 0.572-0.259 0.131-0.683 0.191-1.272 0.179-0.583-0.015-1.048-0.007-1.396 0.025v0c-0.598 0.045-1.045 0.143-1.339 0.292-0.295 0.149-0.47 0.291-0.524 0.424v0c-0.086 0.248 0.019 0.471 0.316 0.669 0.291 0.201 0.786 0.439 1.485 0.713 0.699 0.274 1.337 0.451 1.915 0.53v0c0.079 0.021 0.12 0.064 0.123 0.131 0 0.076-0.011 0.119-0.035 0.131-0.03 0.015-0.065 0.021-0.105 0.019v0c-0.372-0.016-0.889-0.118-1.551-0.305-0.66-0.196-1.226-0.417-1.698-0.662-0.466-0.248-0.794-0.559-0.983-0.933v0c-0.171-0.368-0.219-0.665-0.145-0.892 0.08-0.23 0.238-0.404 0.473-0.524 0.235-0.119 0.475-0.214 0.719-0.284 0.238-0.068 0.533-0.114 0.883-0.14v0c0.562-0.042 1.006-0.055 1.332-0.039 0.332 0.013 0.538 0 0.616-0.039 0.084-0.043 0.104-0.109 0.058-0.2v0c-0.085-0.169-0.461-0.387-1.127-0.656v0c-0.475-0.176-1.308-0.371-2.5-0.585-1.188-0.209-1.831-0.341-1.927-0.399v0c-0.388-0.288-0.607-0.48-0.656-0.576-0.049-0.096-0.058-0.152-0.028-0.168 0.03-0.015 0.08-0.029 0.15-0.041 0.072-0.006 0.418-0.049 1.037-0.128 0.619-0.079 1.297-0.168 2.033-0.268 0.74-0.094 1.185-0.149 1.336-0.165 0.157-0.019 0.284-0.045 0.38-0.079 0.1-0.028 0.189-0.046 0.267-0.056 0.069-0.012 0.162-0.01 0.277 0.008 0.109 0.021 0.191 0.078 0.245 0.171 0.055 0.093 0.105 0.223 0.152 0.388 0.052 0.163 0.024 0.272-0.085 0.327v0c-0.072 0.037-0.266 0.059-0.58 0.066-0.314 0.008-1.35 0.108-3.107 0.301v0c0.665 0.148 1.455 0.361 2.369 0.641 0.911 0.273 1.632 0.533 2.165 0.778v0c0.497 0.263 0.809 0.522 0.938 0.775z" fill="#55328b" data-fill-palette-color="accent"></path><path d="M107.291 41.219c0.604 0.387 1.143 0.816 1.616 1.288 0.478 0.464 0.805 0.846 0.98 1.149 0.166 0.297 0.292 0.602 0.379 0.915 0.086 0.313 0.064 0.638-0.068 0.975v0c4.117 0.573 6.376 1.582 6.775 3.027v0c0.133 0.482 0.087 0.848-0.138 1.1v0c-0.12 0.124-0.232 0.201-0.336 0.229v0c-0.286 0.079-0.689 0.054-1.209-0.076-0.511-0.125-1.105-0.375-1.783-0.748-0.678-0.373-1.541-0.937-2.59-1.692-1.049-0.754-1.634-1.171-1.754-1.25v0c-0.955-0.136-1.862-0.197-2.72-0.184-0.858 0.013-1.483 0.073-1.874 0.181-0.391 0.108-0.684 0.263-0.881 0.464v0c-0.13 0.113-0.192 0.242-0.187 0.388 0.012 0.144 0.064 0.256 0.155 0.335 0.094 0.086 0.171 0.149 0.231 0.189 0.06 0.04 0.119 0.09 0.178 0.15 0.061 0.067 0.086 0.12 0.076 0.158-0.017 0.04-0.084 0.051-0.201 0.035v0c-0.142-0.059-0.263-0.116-0.363-0.173v0c-0.182-0.153-0.308-0.353-0.376-0.601-0.068-0.247-0.108-0.415-0.118-0.503v0c-0.062-0.579 0.269-0.968 0.991-1.167v0c0.69-0.191 1.357-0.276 2-0.258v0c0.877 0.031 1.612 0.077 2.203 0.138v0c-2.666-1.254-4.106-2.269-4.319-3.044v0c-0.05-0.182-0.05-0.396 0.001-0.641 0.051-0.245 0.157-0.471 0.318-0.677 0.161-0.205 0.358-0.341 0.592-0.405 0.234-0.065 0.47-0.074 0.708-0.027v0c0.545 0.095 1.116 0.337 1.714 0.725zM109.224 45.405l0.663 0.079c0.027-0.155-0.007-0.408-0.104-0.759-0.095-0.345-0.359-0.756-0.792-1.232-0.437-0.468-0.939-0.887-1.504-1.256v0c-0.489-0.299-1.017-0.536-1.583-0.709-0.566-0.173-0.96-0.229-1.181-0.168v0c-0.423 0.117-0.602 0.296-0.535 0.537 0.068 0.247 0.366 0.565 0.893 0.952v0c1.409 0.991 2.79 1.843 4.143 2.556zM115.668 49.365v0c0.315 0.074 0.567 0.085 0.755 0.033 0.195-0.054 0.27-0.166 0.223-0.335-0.047-0.169-0.212-0.362-0.496-0.578v0c-1.323-1.008-3.268-1.711-5.838-2.109v0c0.695 0.614 1.56 1.223 2.596 1.827 1.04 0.596 1.96 0.983 2.76 1.162z" fill="#55328b" data-fill-palette-color="accent"></path><path d="M14.191 81.844v0c-0.222 0.081-0.508 0.085-0.858 0.012v0c-0.328-0.053-0.577-0.152-0.746-0.299-0.162-0.149-0.183-0.246-0.063-0.29v0c0.006-0.002 0.083 0.031 0.23 0.099v0c0.431 0.216 0.749 0.287 0.952 0.213v0c0.425-0.155 0.482-0.658 0.171-1.508v0c-0.13-0.355-0.369-0.804-0.718-1.345-0.349-0.541-0.773-1.033-1.273-1.476v0c-0.581-0.507-1.001-0.713-1.262-0.618v0c-0.209 0.077-0.338 0.343-0.387 0.8v0c-0.025 0.246-0.041 0.723-0.049 1.431-0.005 0.714-0.027 1.294-0.065 1.739-0.03 0.45-0.141 0.904-0.333 1.362-0.196 0.467-0.487 0.772-0.874 0.913-0.393 0.144-0.903 0.068-1.529-0.228v0c-0.921-0.454-1.808-1.159-2.66-2.113-0.852-0.954-1.425-1.831-1.717-2.63v0c-0.578-1.58-0.422-2.532 0.466-2.857 0.888-0.325 1.817-0.114 2.787 0.632v0c0.844 0.598 1.426 1.334 1.747 2.209v0c0.077 0.209 0.076 0.317-0.001 0.324v0c-0.077 0.006-0.169-0.129-0.277-0.406-0.108-0.277-0.336-0.604-0.683-0.98-0.344-0.37-0.76-0.682-1.248-0.935v0c-0.631-0.33-1.172-0.413-1.622-0.249v0c-0.279 0.102-0.478 0.326-0.596 0.671-0.122 0.354-0.045 0.908 0.23 1.664 0.278 0.761 0.673 1.466 1.183 2.113v0c1.111 1.406 2.054 2.194 2.828 2.365v0c0.293 0.073 0.518 0.08 0.677 0.022v0c0.457-0.167 0.713-0.577 0.769-1.231v0c0.062-0.756 0.076-1.79 0.042-3.101v0c-0.019-0.504 0.038-0.959 0.169-1.367 0.127-0.399 0.366-0.662 0.714-0.79 0.343-0.125 0.75-0.062 1.224 0.19 0.467 0.254 0.898 0.607 1.293 1.059v0c0.843 0.987 1.408 1.873 1.696 2.659v0c0.401 1.098 0.329 1.746-0.217 1.946z" fill="#55328b" data-fill-palette-color="accent"></path><path d="M18.491 87.151v0c0.162 0.122 0.279 0.241 0.349 0.357v0c0.247 0.403 0.3 0.735 0.159 0.995v0c-0.067 0.136-0.141 0.229-0.221 0.279v0c-0.616 0.378-1.707 0.338-3.272-0.12v0c-1.368-0.421-2.579-0.838-3.634-1.253v0c-0.725 0.096-1.589 0.266-2.589 0.507v0c0.599 0.084 1.315 0.212 2.148 0.382v0c1.655 0.372 2.604 0.756 2.848 1.153v0c0.124 0.202 0.089 0.365-0.103 0.491v0c-0.197 0.144-0.422 0.223-0.676 0.236-0.254 0.013-0.49 0.027-0.71 0.044v0c-0.964 0.005-1.722 0.177-2.275 0.516v0c-0.184 0.113-0.295 0.229-0.333 0.347v0c-0.066 0.215 0.036 0.402 0.308 0.56 0.272 0.158 0.726 0.331 1.364 0.518 0.638 0.187 1.219 0.302 1.744 0.344v0c0.074 0.018 0.112 0.054 0.114 0.109 0.002 0.054-0.009 0.089-0.031 0.102-0.023 0.014-0.054 0.021-0.094 0.022v0c-0.327 0.01-0.785-0.045-1.375-0.167-0.595-0.118-1.041-0.237-1.336-0.357v0c-0.575-0.226-0.978-0.529-1.212-0.908v0c-0.212-0.345-0.181-0.682 0.095-1.009v0c0.063-0.078 0.149-0.151 0.258-0.218 0.115-0.071 0.241-0.136 0.379-0.197v0c0.408-0.187 1.15-0.309 2.224-0.366v0c0.223-0.01 0.367-0.035 0.43-0.074 0.069-0.042 0.081-0.101 0.035-0.176v0c-0.088-0.144-0.443-0.315-1.064-0.512v0c-0.429-0.117-1.178-0.228-2.248-0.332-1.067-0.098-1.644-0.168-1.733-0.209v0c-0.363-0.229-0.567-0.381-0.613-0.456-0.049-0.081-0.064-0.131-0.045-0.151 0.016-0.026 0.047-0.04 0.092-0.044 0.051-0.007 0.294-0.057 0.728-0.15v0c1.47-0.316 2.446-0.514 2.928-0.596v0c-0.564-0.066-1.22-0.174-1.971-0.324v0c-0.117-0.023-0.124-0.067-0.02-0.13 0.109-0.067 0.241-0.092 0.394-0.075 0.159 0.013 0.476 0.053 0.951 0.117 0.47 0.068 0.814 0.107 1.034 0.115v0c-0.003-0.109 0.033-0.191 0.11-0.246 0.081-0.049 0.153-0.054 0.217-0.015 0.07 0.036 0.118 0.141 0.146 0.315v0c0.18 0.009 0.37 0.003 0.571-0.018v0c2.981-0.347 4.957-0.149 5.928 0.594zM17.938 88.537v0c0.284-0.016 0.5-0.069 0.65-0.161 0.15-0.092 0.184-0.204 0.103-0.337-0.078-0.127-0.264-0.25-0.56-0.37v0c-1.371-0.53-3.196-0.65-5.476-0.36v0c0.74 0.354 1.625 0.659 2.654 0.915 1.025 0.25 1.902 0.355 2.629 0.313z" fill="#55328b" data-fill-palette-color="accent"></path><path d="M19.255 95.726v0c0.375 0.434 0.353 0.833-0.065 1.194v0c-0.215 0.185-0.442 0.279-0.682 0.281v0c-0.473 0.052-1.016-0.05-1.629-0.306-0.608-0.26-1.06-0.535-1.355-0.824v0c-0.102-0.108-0.122-0.198-0.06-0.27v0c0.026-0.032 0.056-0.039 0.088-0.022 0.032 0.026 0.054 0.047 0.067 0.062v0c0.179 0.166 0.474 0.327 0.885 0.481v0c0.755 0.285 1.392 0.422 1.909 0.412v0c0.237-0.026 0.421-0.096 0.554-0.211 0.133-0.115 0.144-0.236 0.034-0.363v0c-0.088-0.102-0.256-0.203-0.502-0.303v0c-0.501-0.228-1.152-0.362-1.954-0.401-0.802-0.039-1.467 0.058-1.996 0.293v0c-0.163 0.07-0.306 0.157-0.429 0.263-0.128 0.11-0.202 0.268-0.221 0.472-0.024 0.199 0.059 0.409 0.248 0.629v0c0.208 0.24 0.512 0.459 0.915 0.656v0c1.154 0.592 2.316 0.811 3.486 0.656v0c0.111-0.006 0.163 0.029 0.158 0.105v0c0.011 0.044 0.004 0.077-0.022 0.099-0.026 0.022-0.065 0.034-0.117 0.035v0c-0.611 0.109-1.232 0.114-1.862 0.015v0c-1.231-0.195-2.138-0.63-2.72-1.305v0c-0.499-0.578-0.679-1.132-0.54-1.663v0c0.063-0.206 0.192-0.393 0.386-0.561 0.189-0.163 0.463-0.306 0.821-0.428v0c0.632-0.198 1.476-0.177 2.531 0.062 1.05 0.244 1.741 0.558 2.072 0.942z" fill="#55328b" data-fill-palette-color="accent"></path><path d="M20.101 103.581v0c-0.411-0.361-0.404-0.785 0.024-1.273 0.432-0.493 1.317-0.79 2.655-0.893v0c0.105-0.007 0.183-0.014 0.235-0.022v0l0.191-0.049c0.245-0.054 0.381-0.106 0.406-0.156v0l0.056-0.14c0.054-0.123-0.018-0.308-0.216-0.553-0.189-0.246-0.356-0.434-0.504-0.563v0c-1.607 0.388-2.528 0.605-2.765 0.649-0.236 0.044-0.366 0.038-0.389-0.017-0.018-0.061-0.014-0.107 0.013-0.137 0.031-0.036 0.099-0.062 0.203-0.078v0c0.89-0.154 1.755-0.393 2.595-0.717v0c-0.083-0.1-0.125-0.195-0.127-0.286-0.002-0.1 0.071-0.194 0.219-0.28 0.147-0.086 0.414-0.145 0.8-0.175 0.386-0.03 0.686-0.014 0.9 0.048 0.219 0.057 0.356 0.096 0.41 0.117 0.054 0.02 0.104 0.051 0.15 0.091v0c0.097 0.085-0.063 0.2-0.48 0.347v0l-1.113 0.332c0.338 0.341 0.635 0.624 0.889 0.846v0l0.426 0.36c0.137 0.12 0.223 0.227 0.258 0.32 0.03 0.089-0.008 0.163-0.115 0.223v0c-0.189 0.103-0.507 0.184-0.953 0.242v0c-0.972 0.136-1.856 0.417-2.651 0.843v0c-0.189 0.103-0.333 0.211-0.431 0.323v0c-0.2 0.229-0.217 0.416-0.049 0.563v0c0.056 0.049 0.2 0.099 0.433 0.151 0.233 0.052 0.68 0.07 1.339 0.055 0.655-0.01 1.237-0.074 1.747-0.194v0c0.066-0.014 0.111 0.007 0.133 0.063 0.028 0.06 0.033 0.101 0.015 0.121-0.018 0.02-0.045 0.037-0.083 0.049v0c-0.309 0.107-0.765 0.192-1.369 0.255-0.604 0.064-1.147 0.068-1.629 0.014v0c-0.48-0.026-0.888-0.186-1.223-0.479z" fill="#55328b" data-fill-palette-color="accent"></path><path d="M26.481 108.445v0c-0.457-0.3-0.508-0.721-0.152-1.263 0.359-0.548 1.195-0.965 2.506-1.252v0c0.103-0.021 0.18-0.04 0.23-0.055v0l0.182-0.075c0.235-0.088 0.362-0.158 0.38-0.21v0l0.036-0.147c0.037-0.13-0.06-0.302-0.291-0.518-0.221-0.218-0.413-0.38-0.577-0.487v0c-1.537 0.607-2.42 0.949-2.648 1.025-0.228 0.077-0.357 0.089-0.387 0.037-0.027-0.058-0.029-0.104-0.007-0.138 0.026-0.04 0.089-0.075 0.19-0.105v0c0.86-0.276 1.683-0.632 2.471-1.069v0c-0.096-0.087-0.151-0.176-0.165-0.266-0.016-0.099 0.043-0.202 0.178-0.308 0.134-0.106 0.39-0.201 0.768-0.283 0.378-0.083 0.677-0.109 0.899-0.077 0.225 0.026 0.366 0.046 0.421 0.058 0.056 0.013 0.11 0.036 0.161 0.07v0c0.107 0.07-0.035 0.207-0.427 0.41v0l-1.056 0.483c0.382 0.291 0.715 0.53 0.998 0.715v0l0.471 0.297c0.152 0.1 0.252 0.194 0.3 0.282 0.042 0.084 0.014 0.163-0.083 0.236v0c-0.173 0.129-0.477 0.253-0.91 0.372v0c-0.944 0.269-1.781 0.67-2.509 1.202v0c-0.173 0.129-0.301 0.255-0.383 0.379v0c-0.167 0.254-0.157 0.442 0.03 0.565v0c0.062 0.041 0.212 0.071 0.45 0.089 0.238 0.019 0.683-0.025 1.334-0.13 0.647-0.1 1.215-0.245 1.703-0.434v0c0.064-0.023 0.11-0.008 0.141 0.043 0.036 0.056 0.047 0.095 0.031 0.118-0.015 0.023-0.04 0.042-0.075 0.06v0c-0.291 0.148-0.731 0.296-1.32 0.442-0.589 0.147-1.126 0.227-1.612 0.24v0c-0.479 0.041-0.905-0.061-1.278-0.306z" fill="#55328b" data-fill-palette-color="accent"></path><path d="M29.003 116.543v0c-0.074-0.033-0.163-0.09-0.268-0.173v0c-0.438-0.347-0.571-0.715-0.4-1.105 0.174-0.396 0.645-0.779 1.413-1.15 0.774-0.368 2.223-0.736 4.345-1.103v0c1.735-1.466 2.889-2.523 3.462-3.172v0c-0.177 0.084-0.536 0.281-1.078 0.589-0.538 0.302-1.007 0.554-1.405 0.756-0.404 0.199-0.855 0.359-1.35 0.48-0.487 0.118-0.888 0.108-1.204-0.03-0.309-0.136-0.519-0.313-0.63-0.531-0.107-0.209-0.135-0.399-0.083-0.568 0.043-0.165 0.088-0.301 0.134-0.406v0c0.157-0.359 0.414-0.674 0.769-0.945v0c0.551-0.466 1.169-0.807 1.855-1.023v0c0.262-0.092 0.463-0.106 0.605-0.044 0.142 0.062 0.253 0.163 0.333 0.301v0c0.064 0.19 0.05 0.324-0.043 0.401v0c-0.46 0.056-1.062 0.286-1.808 0.689v0c-0.397 0.216-0.757 0.557-1.078 1.021v0c-0.042 0.063-0.086 0.146-0.133 0.251-0.043 0.099-0.035 0.198 0.024 0.299 0.051 0.103 0.119 0.174 0.206 0.212v0c0.303 0.133 0.689 0.111 1.158-0.067 0.475-0.175 0.943-0.375 1.403-0.602 0.458-0.22 0.987-0.493 1.588-0.819 0.603-0.333 1.001-0.549 1.193-0.649 0.185-0.103 0.343-0.126 0.472-0.069v0c0.155 0.068 0.296 0.182 0.426 0.342 0.123 0.157 0.161 0.255 0.114 0.293-0.046 0.039-0.537 0.484-1.471 1.335-0.932 0.845-1.606 1.449-2.023 1.812v0c0.289-0.021 0.815-0.144 1.578-0.369 0.772-0.229 1.459-0.499 2.06-0.811v0c0.151-0.074 0.216-0.056 0.198 0.053v0c0.004 0.024-0.003 0.058-0.022 0.101-0.019 0.043-0.076 0.088-0.17 0.136v0c-0.473 0.272-1.173 0.562-2.098 0.872-0.928 0.316-1.634 0.496-2.119 0.541v0c-1.575 1.337-2.602 2.163-3.079 2.477v0c-1.205 0.762-2.163 0.987-2.874 0.675zM33.575 113.438v0c-1.555 0.365-2.694 0.691-3.418 0.978-0.724 0.287-1.166 0.613-1.325 0.978-0.16 0.365-0.113 0.603 0.14 0.715v0c0.192 0.084 0.458 0.083 0.798-0.004 0.343-0.093 0.704-0.252 1.083-0.476 0.382-0.231 0.686-0.437 0.913-0.617 0.223-0.19 0.545-0.469 0.965-0.838 0.411-0.365 0.692-0.611 0.844-0.736z" fill="#55328b" data-fill-palette-color="accent"></path><path d="M57.572 109.272v0c-0.029 0.235-0.155 0.491-0.38 0.77v0c-0.196 0.269-0.398 0.445-0.606 0.528-0.207 0.077-0.302 0.052-0.287-0.076v0c0.001-0.007 0.065-0.06 0.193-0.16v0c0.389-0.286 0.596-0.536 0.623-0.751v0c0.055-0.449-0.367-0.729-1.265-0.838v0c-0.375-0.046-0.884-0.037-1.525 0.028-0.641 0.065-1.272 0.219-1.894 0.463v0c-0.716 0.287-1.09 0.568-1.123 0.842v0c-0.027 0.221 0.152 0.457 0.536 0.709v0c0.208 0.134 0.626 0.366 1.252 0.694 0.633 0.329 1.14 0.612 1.519 0.849 0.387 0.231 0.741 0.536 1.062 0.916 0.327 0.387 0.466 0.785 0.416 1.194-0.051 0.416-0.35 0.835-0.899 1.258v0c-0.824 0.614-1.854 1.083-3.091 1.408-1.237 0.325-2.279 0.436-3.124 0.333v0c-1.67-0.204-2.447-0.775-2.332-1.714 0.115-0.939 0.725-1.671 1.83-2.195v0c0.916-0.48 1.837-0.664 2.762-0.551v0c0.221 0.027 0.317 0.076 0.288 0.148v0c-0.029 0.071-0.192 0.092-0.487 0.062-0.296-0.029-0.69 0.025-1.183 0.162-0.486 0.138-0.953 0.367-1.401 0.686v0c-0.581 0.412-0.901 0.856-0.959 1.333v0c-0.036 0.295 0.073 0.574 0.326 0.836 0.26 0.27 0.788 0.454 1.587 0.551 0.805 0.098 1.611 0.068 2.42-0.092v0c1.758-0.35 2.888-0.831 3.392-1.444v0c0.198-0.228 0.307-0.425 0.327-0.592v0c0.059-0.483-0.19-0.898-0.746-1.245v0c-0.645-0.399-1.56-0.881-2.742-1.448v0c-0.457-0.212-0.837-0.47-1.141-0.772-0.297-0.295-0.424-0.627-0.379-0.996 0.044-0.362 0.286-0.697 0.725-1.003 0.438-0.3 0.949-0.524 1.532-0.671v0c1.262-0.302 2.308-0.402 3.139-0.3v0c1.16 0.142 1.705 0.501 1.635 1.078z" fill="#55328b" data-fill-palette-color="accent"></path><path d="M61.649 113.397c-0.137 0.134-0.387 0.489-0.75 1.063-0.357 0.567-0.594 1.066-0.712 1.497-0.119 0.424-0.166 0.767-0.143 1.03 0.024 0.269 0.15 0.394 0.379 0.373 0.229-0.02 0.534-0.213 0.915-0.579v0c0.617-0.611 1.277-1.7 1.979-3.267v0c0.041-0.078 0.115-0.122 0.223-0.131 0.114-0.01 0.272 0.007 0.472 0.049 0.2 0.043 0.305 0.112 0.313 0.207v0c0.003 0.034-0.004 0.065-0.022 0.093v0c-0.381 0.759-0.591 1.602-0.631 2.528v0c-0.014 0.306 0.062 0.551 0.227 0.732v0c0.158 0.176 0.438 0.127 0.842-0.145v0c0.624-0.387 1.177-0.952 1.661-1.693 0.483-0.748 0.764-1.41 0.841-1.987v0c0.03-0.118 0.039-0.244 0.028-0.378v0c-0.053-0.599-0.253-0.944-0.6-1.036v0c-0.098-0.039-0.204-0.043-0.316-0.013-0.12 0.024-0.191 0.024-0.214-0.001-0.023-0.025-0.032-0.055-0.028-0.089v0c0.019-0.097 0.233-0.163 0.643-0.199v0c0.686-0.061 1.061 0.266 1.124 0.979 0.062 0.707-0.263 1.593-0.975 2.659v0c-0.458 0.651-1.008 1.259-1.65 1.824v0c-0.36 0.303-0.745 0.473-1.155 0.509v0c-0.538 0.048-0.889-0.125-1.053-0.517v0c-0.091-0.189-0.155-0.488-0.191-0.899-0.036-0.41-0.016-0.755 0.061-1.033v0c-0.232 0.597-0.499 1.109-0.8 1.536-0.309 0.421-0.575 0.712-0.797 0.874-0.23 0.163-0.466 0.255-0.708 0.276v0c-0.424 0.037-0.73-0.051-0.919-0.265-0.188-0.207-0.294-0.445-0.317-0.714v0c-0.031-0.35 0.013-0.734 0.132-1.151 0.119-0.424 0.241-0.76 0.369-1.009 0.133-0.256 0.31-0.56 0.529-0.912 0.219-0.358 0.365-0.554 0.437-0.587v0c0.157-0.061 0.307-0.098 0.448-0.111 0.141-0.012 0.268 0 0.379 0.037 0.111 0.031 0.173 0.076 0.185 0.137 0.006 0.067-0.063 0.172-0.206 0.313z" fill="#55328b" data-fill-palette-color="accent"></path><path d="M73.657 110.665v0c0.554-0.152 0.904 0.039 1.051 0.572v0c0.075 0.274 0.062 0.519-0.04 0.736v0c-0.157 0.449-0.482 0.896-0.976 1.341-0.496 0.438-0.938 0.728-1.326 0.869v0c-0.141 0.046-0.231 0.025-0.27-0.063v0c-0.017-0.037-0.011-0.067 0.018-0.088 0.037-0.017 0.066-0.029 0.085-0.034v0c0.227-0.091 0.499-0.288 0.814-0.592v0c0.582-0.559 0.979-1.075 1.193-1.547v0c0.078-0.225 0.094-0.422 0.048-0.591-0.047-0.169-0.151-0.232-0.314-0.187v0c-0.13 0.036-0.293 0.144-0.489 0.323v0c-0.421 0.354-0.822 0.885-1.202 1.592-0.38 0.707-0.578 1.35-0.594 1.929v0c-0.007 0.177 0.011 0.344 0.054 0.5 0.045 0.163 0.155 0.297 0.331 0.403 0.17 0.107 0.395 0.123 0.675 0.045v0c0.306-0.084 0.634-0.266 0.985-0.544v0c1.03-0.788 1.727-1.743 2.091-2.866v0c0.042-0.103 0.096-0.135 0.162-0.097v0c0.044 0.009 0.071 0.029 0.081 0.062 0.009 0.033 0.003 0.073-0.02 0.121v0c-0.165 0.599-0.427 1.161-0.786 1.687v0c-0.705 1.028-1.487 1.66-2.347 1.896v0c-0.736 0.202-1.314 0.127-1.733-0.227v0c-0.159-0.145-0.273-0.342-0.341-0.589-0.066-0.241-0.078-0.55-0.034-0.926v0c0.093-0.656 0.474-1.409 1.144-2.259 0.672-0.843 1.252-1.332 1.74-1.466z" fill="#55328b" data-fill-palette-color="accent"></path><path d="M80.558 108.024v0c0.527-0.228 0.9-0.088 1.12 0.42v0c0.113 0.26 0.134 0.505 0.064 0.735v0c-0.092 0.467-0.352 0.955-0.779 1.463-0.43 0.503-0.827 0.852-1.192 1.047v0c-0.134 0.065-0.226 0.057-0.276-0.025v0c-0.022-0.035-0.021-0.065 0.005-0.09 0.035-0.022 0.061-0.037 0.08-0.046v0c0.212-0.121 0.454-0.355 0.724-0.7v0c0.498-0.635 0.819-1.201 0.965-1.698v0c0.046-0.233 0.034-0.431-0.036-0.592-0.07-0.161-0.182-0.208-0.337-0.141v0c-0.124 0.054-0.27 0.183-0.439 0.389v0c-0.367 0.409-0.69 0.991-0.967 1.743-0.277 0.753-0.384 1.417-0.319 1.993v0c0.018 0.176 0.058 0.339 0.123 0.488 0.067 0.155 0.195 0.272 0.385 0.353 0.183 0.083 0.408 0.066 0.674-0.05v0c0.291-0.126 0.591-0.352 0.9-0.676v0c0.91-0.924 1.467-1.968 1.669-3.13v0c0.027-0.107 0.076-0.147 0.148-0.119v0c0.045 0.002 0.075 0.019 0.088 0.05 0.013 0.031 0.013 0.072-0.003 0.122v0c-0.079 0.616-0.26 1.209-0.542 1.781v0c-0.555 1.116-1.241 1.851-2.059 2.206v0c-0.7 0.303-1.283 0.309-1.749 0.017v0c-0.178-0.122-0.318-0.3-0.419-0.536-0.099-0.229-0.154-0.533-0.163-0.912v0c0-0.663 0.273-1.461 0.817-2.396 0.547-0.929 1.053-1.494 1.518-1.696z" fill="#55328b" data-fill-palette-color="accent"></path><path d="M86.002 105.331l0.172-0.127c0.663-0.483 1.07-0.77 1.221-0.86 0.151-0.09 0.24-0.112 0.268-0.066v0c0.035 0.058-0.038 0.18-0.218 0.367-0.18 0.186-0.657 0.574-1.43 1.162v0c0.002 0.109 0.004 0.237 0.006 0.386v0c-0.007 0.303 0 0.48 0.022 0.53v0c0.099 1.35 0.218 2.175 0.359 2.476v0c0.043 0.085 0.102 0.191 0.179 0.319 0.076 0.128 0.173 0.211 0.291 0.25v0c0.214 0.069 0.402-0.032 0.564-0.301 0.161-0.27 0.339-0.722 0.534-1.358 0.194-0.636 0.316-1.216 0.364-1.741v0c0.007-0.067 0.048-0.104 0.123-0.109v0c0.171-0.016 0.149 0.486-0.068 1.505v0c-0.208 0.982-0.463 1.662-0.764 2.038v0c-0.183 0.22-0.353 0.377-0.51 0.471v0c-0.359 0.215-0.704 0.185-1.034-0.091v0c-0.056-0.053-0.109-0.124-0.161-0.21v0c-0.191-0.319-0.335-0.89-0.434-1.713v0c0.013 0.126-0.027 0.461-0.12 1.005v0c-0.029 0.135-0.093 0.174-0.191 0.114v0c-0.025-0.016-0.047-0.039-0.064-0.068-0.021-0.035-0.025-0.087-0.012-0.158v0c0.114-0.823 0.184-1.503 0.21-2.038v0c-0.003-0.006-0.019-0.256-0.047-0.751v0c-0.077 0.069-0.164 0.134-0.263 0.193-0.093 0.055-0.18 0.068-0.261 0.038-0.081-0.03-0.128-0.096-0.142-0.199v0c-0.023-0.183 0.172-0.41 0.585-0.68v0c-0.008-0.027 0.002-0.049 0.031-0.066v0l-0.072-1.68c-0.01-0.096-0.015-0.196-0.013-0.299 0.001-0.103 0.001-0.182 0-0.237-0.007-0.051-0.01-0.108-0.008-0.172 0.001-0.064 0.005-0.109 0.012-0.137 0.004-0.034 0.009-0.064 0.016-0.092v0c0.009-0.076 0.101-0.167 0.275-0.271 0.18-0.107 0.331-0.131 0.454-0.07v0c0.053 0.023 0.104 0.075 0.152 0.157 0.052 0.087 0.077 0.202 0.076 0.344 0.002 0.148-0.022 0.265-0.073 0.351-0.042 0.088-0.06 0.17-0.055 0.245v0z" fill="#55328b" data-fill-palette-color="accent"></path><path d="M91.981 106.897v0c-0.017 0.21 0.038 0.33 0.165 0.36 0.122 0.025 0.223 0.006 0.303-0.056 0.08-0.062 0.15-0.138 0.209-0.226v0c0.276-0.394 0.46-0.883 0.552-1.469 0.089-0.591 0.002-1.054-0.258-1.39v0c-0.141-0.181-0.504-0.22-1.091-0.115v0c-0.271 0.048-0.423 0.072-0.456 0.072v0c-0.35 0.023-0.612-0.017-0.787-0.12v0c0.04 0.294 0.077 0.732 0.11 1.313v0c-0.009 0.11-0.052 0.164-0.129 0.165-0.082 0.004-0.127-0.042-0.134-0.14v0c-0.022-0.744-0.102-1.315-0.24-1.712v0c-0.302-0.51-0.289-1.187 0.038-2.032 0.328-0.845 0.742-1.462 1.244-1.851v0c0.32-0.249 0.59-0.369 0.81-0.36 0.215 0.013 0.366 0.075 0.453 0.187 0.083 0.107 0.148 0.257 0.197 0.45 0.048 0.194 0.023 0.427-0.074 0.699v0c-0.023 0.069-0.072 0.094-0.146 0.075v0c-0.053-0.036-0.07-0.134-0.05-0.295 0.019-0.152-0.018-0.315-0.112-0.491-0.089-0.17-0.226-0.209-0.411-0.116v0c-0.027 0.021-0.053 0.041-0.08 0.062v0c-0.325 0.253-0.64 0.69-0.945 1.311-0.3 0.627-0.44 1.24-0.418 1.839v0c0.005 0.227 0.066 0.415 0.182 0.565 0.112 0.144 0.312 0.198 0.6 0.162v0c0.127-0.013 0.333-0.045 0.619-0.096 0.286-0.051 0.489-0.081 0.61-0.089 0.123-0.018 0.286-0.017 0.491 0.004 0.2 0.016 0.343 0.067 0.428 0.155v0c0.237 0.218 0.333 0.583 0.288 1.097v0c-0.055 0.744-0.406 1.509-1.053 2.294v0c-0.143 0.179-0.305 0.34-0.487 0.48-0.176 0.137-0.351 0.165-0.523 0.086v0c-0.052-0.011-0.106-0.054-0.165-0.129-0.054-0.069-0.076-0.236-0.067-0.499v0c0.029-0.227 0.136-0.508 0.322-0.841v0c0.023-0.026 0.048-0.037 0.077-0.033 0.028 0.004 0.048 0.023 0.058 0.058 0.015 0.031-0.004 0.093-0.06 0.187-0.055 0.094-0.078 0.24-0.07 0.439z" fill="#55328b" data-fill-palette-color="accent"></path><path d="M95.7 92.355v0c-0.075-0.252-0.159-0.423-0.25-0.513v0c-0.16-0.155-0.303-0.168-0.431-0.037v0c-0.104 0.107-0.173 0.299-0.207 0.576v0c-0.119 1.072 0.055 2.39 0.521 3.955v0c0.376 1.251 0.755 2.27 1.139 3.058v0c0.15-0.871 0.139-2.027-0.034-3.467-0.178-1.435-0.424-2.626-0.738-3.572zM96.761 100.014v0c0.167 0.342 0.292 0.557 0.374 0.646 0.078 0.094 0.192 0.215 0.342 0.361 0.15 0.146 0.323 0.239 0.52 0.279v0c0.331 0.067 0.555-0.134 0.672-0.604v0c0.105-0.35 0.165-0.857 0.179-1.521 0.015-0.664-0.017-1.223-0.095-1.676v0c-0.01-0.038-0.001-0.072 0.027-0.1v0c0.066-0.068 0.136-0.038 0.209 0.09v0c0.09 0.314 0.147 0.779 0.17 1.395 0.023 0.625 0.004 1.154-0.056 1.584-0.056 0.435-0.206 0.779-0.452 1.031v0c-0.56 0.576-1.124 0.589-1.69 0.038v0c-0.024-0.024-0.046-0.045-0.065-0.064v0c-0.504-0.547-1.049-1.6-1.635-3.158-0.581-1.563-0.945-2.817-1.092-3.761v0l-0.097-0.787c-0.022-0.181-0.027-0.422-0.017-0.723v0c0.006-0.588 0.167-1.044 0.482-1.368 0.316-0.324 0.627-0.446 0.934-0.364v0c0.105 0.027 0.224 0.104 0.354 0.231 0.131 0.127 0.258 0.364 0.383 0.711v0c0.598 2.108 0.782 4.694 0.553 7.76z" fill="#55328b" data-fill-palette-color="accent"></path><path d="M102.868 96.596v0c-0.105 0.141-0.256 0.26-0.455 0.357-0.198 0.097-0.411 0.145-0.637 0.144-0.236 0.001-0.439-0.061-0.607-0.186-0.173-0.129-0.308-0.288-0.403-0.477v0c-0.229-0.439-0.37-0.974-0.424-1.603-0.054-0.629-0.047-1.239 0.021-1.828 0.064-0.584 0.155-1.017 0.272-1.3 0.118-0.283 0.261-0.538 0.431-0.765 0.169-0.228 0.369-0.378 0.6-0.451 0.235-0.078 0.417-0.069 0.547 0.028v0c0.038 0.028 0.06 0.049 0.067 0.063 0.003 0.019-0.019 0.037-0.065 0.053v0c-0.234-0.014-0.47 0.139-0.707 0.459-0.238 0.32-0.405 0.76-0.501 1.319-0.087 0.558-0.108 1.136-0.064 1.733v0c0.06 0.508 0.184 1.004 0.371 1.488 0.183 0.49 0.356 0.795 0.518 0.916v0c0.32 0.238 0.546 0.267 0.679 0.088 0.133-0.179 0.19-0.561 0.172-1.148v0c-0.062-0.981-0.13-1.671-0.203-2.07v0c-0.261-1.415-0.369-2.152-0.325-2.211v0c0.077-0.103 0.199-0.205 0.367-0.308 0.168-0.102 0.276-0.094 0.323 0.025v0c0.29 0.889 0.718 1.603 1.285 2.143v0c0.068 0.067 0.161 0.145 0.281 0.234 0.119 0.089 0.243 0.126 0.371 0.112v0c0.228-0.024 0.365-0.191 0.411-0.502 0.046-0.311 0.037-0.797-0.026-1.459-0.063-0.662-0.175-1.242-0.335-1.74v0c-0.019-0.065-0.002-0.111 0.052-0.138 0.054-0.027 0.089-0.035 0.105-0.022v0c0.13 0.097 0.258 0.508 0.384 1.232 0.131 0.729 0.194 1.256 0.189 1.58v0c0 0.623-0.127 1.105-0.381 1.447v0c-0.242 0.325-0.566 0.421-0.972 0.287v0c-0.118-0.045-0.242-0.117-0.372-0.213v0c-0.385-0.286-0.731-0.67-1.038-1.151v0c-0.007 0.054 0.047 0.338 0.162 0.852 0.116 0.524 0.183 1.083 0.203 1.68 0.024 0.59-0.075 1.034-0.296 1.332z" fill="#55328b" data-fill-palette-color="accent"></path><path d="M106.117 82.646v0c0.112-0.224 0.285-0.277 0.521-0.159 0.23 0.115 0.494 0.386 0.793 0.815 0.302 0.423 0.555 0.749 0.757 0.979v0c0.345 0.399 0.65 0.664 0.916 0.797 0.26 0.13 0.452 0.176 0.576 0.14v0c0.22-0.064 0.323-0.254 0.307-0.571-0.009-0.314-0.103-0.791-0.281-1.432-0.173-0.637-0.383-1.184-0.631-1.64v0c-0.027-0.066-0.017-0.118 0.032-0.154 0.051-0.042 0.089-0.057 0.113-0.045 0.024 0.012 0.047 0.035 0.068 0.068v0c0.181 0.272 0.379 0.692 0.594 1.259 0.215 0.568 0.357 1.084 0.427 1.549 0.076 0.468 0.031 0.868-0.135 1.201v0c-0.172 0.314-0.361 0.503-0.567 0.567-0.205 0.064-0.411 0.044-0.616-0.059-0.212-0.106-0.405-0.225-0.58-0.357-0.175-0.133-0.366-0.318-0.571-0.557v0c-0.326-0.374-0.57-0.681-0.73-0.92-0.166-0.242-0.286-0.38-0.358-0.416-0.073-0.036-0.127-0.018-0.164 0.054v0c-0.075 0.151-0.033 0.535 0.128 1.151v0c0.124 0.432 0.427 1.127 0.907 2.084 0.481 0.957 0.726 1.487 0.735 1.59v0c-0.003 0.429-0.025 0.686-0.067 0.77-0.042 0.085-0.078 0.119-0.109 0.105-0.03-0.015-0.065-0.044-0.104-0.087-0.045-0.045-0.258-0.269-0.64-0.67-0.384-0.396-0.804-0.832-1.26-1.309-0.459-0.471-0.736-0.756-0.83-0.856-0.094-0.1-0.177-0.175-0.249-0.226-0.076-0.06-0.136-0.113-0.181-0.158-0.051-0.048-0.097-0.116-0.136-0.204-0.048-0.085-0.053-0.174-0.014-0.268 0.036-0.088 0.1-0.192 0.19-0.312 0.091-0.121 0.184-0.157 0.281-0.109v0c0.066 0.033 0.184 0.16 0.354 0.38 0.172 0.214 0.79 0.897 1.854 2.047v0c-0.245-0.553-0.511-1.229-0.799-2.029-0.284-0.791-0.478-1.439-0.581-1.944v0c-0.079-0.492-0.062-0.85 0.05-1.074z" fill="#55328b" data-fill-palette-color="accent"></path><path d="M109.627 78.385c-0.279-0.567-0.493-1.137-0.644-1.711-0.153-0.567-0.225-1.004-0.218-1.311 0.007-0.306 0.049-0.599 0.126-0.879 0.075-0.274 0.238-0.509 0.488-0.707v0c-2.877-2.303-4.141-4.092-3.79-5.369v0c0.118-0.43 0.322-0.689 0.612-0.777v0c0.143-0.038 0.261-0.044 0.352-0.019v0c0.261 0.072 0.556 0.272 0.886 0.6 0.337 0.331 0.676 0.791 1.018 1.383 0.35 0.586 0.752 1.408 1.205 2.463 0.454 1.049 0.712 1.631 0.771 1.746v0c0.666 0.533 1.328 0.992 1.986 1.375 0.653 0.375 1.156 0.611 1.508 0.708 0.345 0.095 0.639 0.109 0.882 0.043v0c0.146-0.023 0.25-0.093 0.309-0.21 0.06-0.117 0.073-0.229 0.04-0.335-0.029-0.099-0.06-0.178-0.093-0.236-0.027-0.056-0.047-0.122-0.062-0.196-0.019-0.082-0.016-0.134 0.011-0.154 0.028-0.027 0.083-0.009 0.163 0.055v0c0.081 0.113 0.147 0.216 0.2 0.307v0c0.073 0.195 0.078 0.403 0.018 0.625-0.061 0.221-0.108 0.366-0.141 0.434v0c-0.219 0.465-0.644 0.611-1.276 0.438v0c-0.619-0.17-1.166-0.408-1.642-0.714v0c-0.654-0.425-1.19-0.793-1.61-1.103v0c1.451 2.164 2.083 3.587 1.896 4.271v0c-0.046 0.169-0.144 0.335-0.294 0.497-0.15 0.162-0.33 0.284-0.542 0.366-0.22 0.087-0.431 0.102-0.633 0.047-0.208-0.057-0.391-0.156-0.548-0.298v0c-0.373-0.326-0.698-0.773-0.978-1.34zM110.057 74.331l-0.469-0.36c-0.093 0.108-0.181 0.315-0.264 0.621-0.084 0.306-0.069 0.737 0.044 1.294 0.122 0.552 0.312 1.098 0.569 1.638v0c0.24 0.451 0.536 0.868 0.886 1.252 0.348 0.39 0.62 0.612 0.816 0.665v0c0.384 0.105 0.606 0.051 0.665-0.164 0.059-0.215-0.027-0.592-0.257-1.132v0c-0.62-1.389-1.284-2.66-1.99-3.814zM106.946 68.402v0c-0.203-0.203-0.39-0.328-0.559-0.374-0.169-0.046-0.275 0.005-0.316 0.155-0.041 0.15-0.004 0.374 0.11 0.671v0c0.551 1.363 1.71 2.777 3.479 4.244v0c-0.246-0.789-0.628-1.643-1.146-2.563-0.516-0.926-1.039-1.637-1.568-2.133z" fill="#55328b" data-fill-palette-color="accent"></path><path d="M0.62 59.79c0-2.249 1.823-4.072 4.072-4.072 2.249 0 4.072 1.823 4.071 4.072 0 2.249-1.823 4.072-4.071 4.072-2.249 0-4.072-1.823-4.072-4.072z" fill="#55328b" data-fill-palette-color="accent"></path><path d="M107.804 59.79c0-2.249 1.823-4.072 4.072-4.072 2.249 0 4.072 1.823 4.071 4.072 0 2.249-1.823 4.072-4.071 4.072-2.249 0-4.072-1.823-4.072-4.072z" fill="#55328b" data-fill-palette-color="accent"></path></g><g id="text-1"></g></svg></g></svg></g><g></g></svg></g></svg></g></svg></g><defs></defs></svg><rect width="320" height="360" fill="none" stroke="none" visibility="hidden"></rect></g></svg></g></svg>